<?xml version="1.0" encoding="utf-8"?>
<!-- Generator: Adobe Illustrator 16.0.0, SVG Export Plug-In . SVG Version: 6.00 Build 0)  -->
<!DOCTYPE svg PUBLIC "-//W3C//DTD SVG 1.1//EN" "http://www.w3.org/Graphics/SVG/1.1/DTD/svg11.dtd">
<svg version="1.1" id="Layer_1" xmlns="http://www.w3.org/2000/svg" xmlns:xlink="http://www.w3.org/1999/xlink" x="0px" y="0px"
	 width="1024px" height="1024px" viewBox="0 0 1024 1024" enable-background="new 0 0 1024 1024" xml:space="preserve">
<g>
	<g>
		<g enable-background="new    ">
			<defs>
				<polygon id="SVGID_1_" enable-background="new    " points="-2.093,1266.617 160.334,1.917 810.953,172.624 1064.958,755.846 
									"/>
			</defs>
			<clipPath id="SVGID_2_">
				<use xlink:href="#SVGID_1_"  overflow="visible"/>
			</clipPath>
			<g clip-path="url(#SVGID_2_)">
				<g>
					<g>
						<g>
							<path fill="#FFFFFF" d="M626.436,324.247l3.945,88.464l41-66.09c-1.706-1.288-3.439-2.537-5.195-3.743
								c-1.759-1.207-3.542-2.373-5.348-3.495c-1.807-1.123-3.637-2.202-5.486-3.236c-1.854-1.036-3.728-2.026-5.619-2.97
								c-1.896-0.946-3.805-1.844-5.725-2.689c-1.922-0.848-3.856-1.645-5.798-2.39c-1.946-0.747-3.901-1.441-5.861-2.083
								C630.383,325.372,628.411,324.782,626.436,324.247"/>
							<path fill="#FFFFFF" d="M630.381,412.711l-3.945-88.464c1.976,0.535,3.947,1.125,5.913,1.768
								c1.96,0.642,3.915,1.336,5.861,2.083c1.941,0.745,3.876,1.542,5.798,2.39c1.92,0.846,3.828,1.743,5.725,2.689
								c1.892,0.943,3.766,1.934,5.619,2.97c1.85,1.034,3.68,2.113,5.486,3.236c1.806,1.122,3.589,2.288,5.348,3.495
								c1.756,1.206,3.489,2.455,5.195,3.743L630.381,412.711 M625.559,323.261l4.053,92.608l42.842-69.249
								c-1.738-1.332-3.513-2.628-5.321-3.885c-1.811-1.259-3.655-2.479-5.534-3.657c-1.882-1.181-3.797-2.32-5.746-3.417
								c-1.951-1.098-3.938-2.152-5.955-3.161c-2.021-1.008-4.045-1.956-6.068-2.843c-2.028-0.889-4.058-1.718-6.085-2.485
								c-2.032-0.771-4.064-1.481-6.093-2.132C629.616,324.387,627.585,323.794,625.559,323.261"/>
							<path fill="#FFFFFF" d="M622.467,234.996l2.59,58.217c2.67,0.775,5.334,1.621,7.986,2.537
								c2.643,0.912,5.277,1.895,7.896,2.943c2.611,1.046,5.21,2.158,7.792,3.337c2.575,1.176,5.134,2.416,7.673,3.721
								c2.536,1.304,5.046,2.667,7.527,4.089c2.476,1.418,4.924,2.895,7.341,4.427c2.413,1.529,4.796,3.115,7.146,4.755
								c2.346,1.637,4.66,3.329,6.938,5.073l25.663-41.356c-3.321-2.596-6.694-5.121-10.114-7.574
								c-3.427-2.457-6.902-4.843-10.422-7.152c-3.529-2.314-7.104-4.556-10.722-6.718c-3.629-2.169-7.301-4.261-11.012-6.271
								c-3.726-2.018-7.481-3.948-11.264-5.79c-3.799-1.849-7.625-3.609-11.476-5.278c-3.868-1.678-7.762-3.263-11.677-4.753
								C630.399,237.704,626.442,236.301,622.467,234.996"/>
							<path fill="#FFFFFF" d="M685.356,324.095c-2.278-1.744-4.593-3.437-6.938-5.073c-2.35-1.64-4.732-3.226-7.146-4.755
								c-2.417-1.532-4.865-3.009-7.341-4.427c-2.481-1.422-4.991-2.785-7.527-4.089c-2.539-1.305-5.098-2.545-7.673-3.721
								c-2.582-1.179-5.181-2.291-7.792-3.337c-2.619-1.049-5.254-2.031-7.896-2.943c-2.652-0.916-5.316-1.762-7.986-2.537
								l-2.59-58.217c3.976,1.305,7.933,2.708,11.867,4.206c3.915,1.49,7.809,3.075,11.677,4.753
								c3.851,1.669,7.677,3.43,11.476,5.278c3.782,1.842,7.538,3.772,11.264,5.79c3.711,2.01,7.383,4.102,11.012,6.271
								c3.617,2.162,7.192,4.403,10.722,6.718c3.52,2.31,6.995,4.695,10.422,7.152c3.42,2.453,6.793,4.979,10.114,7.574
								L685.356,324.095 M621.663,234.102l2.604,59.593c2.673,0.758,5.351,1.592,8.029,2.501c2.67,0.906,5.343,1.889,8.015,2.947
								c2.663,1.055,5.327,2.187,7.988,3.395c2.653,1.205,5.305,2.487,7.953,3.848c2.642,1.356,5.24,2.771,7.793,4.238
								c2.547,1.464,5.051,2.982,7.51,4.551c2.453,1.566,4.863,3.184,7.229,4.848c2.362,1.662,4.68,3.372,6.953,5.126l26.207-42.35
								c-3.316-2.606-6.696-5.154-10.141-7.639c-3.45-2.489-6.967-4.917-10.547-7.278c-3.589-2.367-7.245-4.669-10.967-6.9
								c-3.733-2.238-7.535-4.408-11.403-6.503c-3.882-2.104-7.773-4.104-11.671-5.997c-3.914-1.901-7.837-3.698-11.764-5.392
								c-3.945-1.701-7.898-3.298-11.853-4.792C629.623,236.795,625.644,235.396,621.663,234.102"/>
							<path fill="#FFFFFF" d="M619.107,159.564l2.197,49.323c4.563,1.579,9.1,3.265,13.608,5.055
								c4.481,1.78,8.937,3.663,13.36,5.646c4.399,1.974,8.77,4.047,13.104,6.218c4.315,2.159,8.598,4.417,12.843,6.768
								c4.226,2.341,8.405,4.77,12.534,7.283c4.114,2.506,8.181,5.096,12.194,7.769c4.002,2.664,7.953,5.411,11.85,8.237
								c3.887,2.82,7.722,5.72,11.498,8.696l20.938-33.739c-4.607-3.687-9.285-7.288-14.029-10.801
								c-4.756-3.522-9.583-6.957-14.474-10.302c-4.909-3.355-9.886-6.622-14.926-9.795c-5.062-3.187-10.192-6.281-15.384-9.279
								c-5.219-3.012-10.484-5.916-15.793-8.71c-5.338-2.811-10.723-5.51-16.146-8.097c-5.461-2.603-10.965-5.093-16.507-7.464
								C630.394,163.984,624.769,161.713,619.107,159.564"/>
							<path fill="#FFFFFF" d="M722.297,264.56c-3.776-2.977-7.611-5.876-11.498-8.696c-3.896-2.826-7.848-5.573-11.85-8.237
								c-4.014-2.673-8.08-5.263-12.194-7.769c-4.129-2.514-8.309-4.942-12.534-7.283c-4.245-2.351-8.527-4.608-12.843-6.768
								c-4.335-2.171-8.705-4.244-13.104-6.218c-4.424-1.983-8.879-3.866-13.36-5.646c-4.509-1.79-9.046-3.476-13.608-5.055
								l-2.197-49.323c5.661,2.148,11.286,4.42,16.868,6.809c5.542,2.371,11.046,4.861,16.507,7.464
								c5.424,2.587,10.809,5.286,16.146,8.097c5.309,2.794,10.574,5.698,15.793,8.71c5.191,2.998,10.322,6.093,15.384,9.279
								c5.04,3.173,10.017,6.439,14.926,9.795c4.891,3.345,9.718,6.779,14.474,10.302c4.744,3.513,9.422,7.114,14.029,10.801
								L722.297,264.56 M618.369,158.754l2.208,50.482c4.526,1.551,9.05,3.214,13.563,4.99c4.488,1.767,8.97,3.646,13.441,5.638
								c4.447,1.981,8.889,4.077,13.317,6.286c4.407,2.198,8.807,4.511,13.194,6.939c4.367,2.418,8.658,4.916,12.871,7.487
								c4.199,2.562,8.323,5.198,12.372,7.905c4.038,2.698,8.003,5.469,11.894,8.305c3.883,2.829,7.695,5.727,11.434,8.688
								l21.38-34.556c-4.577-3.675-9.241-7.281-13.992-10.813c-4.764-3.541-9.618-7.01-14.561-10.4
								c-4.96-3.403-10.014-6.731-15.159-9.978c-5.169-3.261-10.435-6.442-15.797-9.539c-5.393-3.113-10.804-6.096-16.23-8.948
								c-5.459-2.869-10.938-5.608-16.432-8.219c-5.529-2.628-11.078-5.127-16.642-7.496
								C629.627,163.139,624.005,160.882,618.369,158.754"/>
							<path fill="#FFFFFF" d="M636.59,416.958l88.789,25.131c-0.097-1.908-0.248-3.825-0.455-5.748
								c-0.205-1.916-0.466-3.837-0.781-5.762c-0.313-1.919-0.681-3.84-1.101-5.762c-0.419-1.917-0.892-3.833-1.416-5.748
								L636.59,416.958"/>
							<path fill="#FFFFFF" d="M725.379,442.089l-88.789-25.131l85.036,2.111c0.524,1.915,0.997,3.831,1.416,5.748
								c0.42,1.922,0.788,3.843,1.101,5.762c0.315,1.925,0.576,3.846,0.781,5.762C725.131,438.264,725.282,440.181,725.379,442.089
								 M629.611,415.869l96.621,27.291c-0.09-2.1-0.246-4.199-0.467-6.297c-0.219-2.09-0.502-4.178-0.847-6.26
								c-0.343-2.076-0.747-4.148-1.21-6.212c-0.461-2.058-0.98-4.108-1.557-6.149L629.611,415.869"/>
							<path fill="#FFFFFF" d="M837.042,421.938c1.634,4.534,3.16,9.091,4.577,13.664c1.426,4.605,2.741,9.23,3.943,13.869
								c1.21,4.673,2.306,9.361,3.283,14.061c0.986,4.736,1.852,9.484,2.595,14.24l55.966,15.839
								c-1.233-6.079-2.609-12.133-4.123-18.154c-1.498-5.961-3.132-11.894-4.897-17.792c-1.749-5.842-3.63-11.654-5.636-17.429
								c-1.988-5.724-4.104-11.415-6.34-17.065L837.042,421.938"/>
							<path fill="#FFFFFF" d="M907.406,493.61l-55.966-15.839c-0.743-4.756-1.608-9.504-2.595-14.24
								c-0.978-4.699-2.073-9.388-3.283-14.061c-1.202-4.639-2.518-9.264-3.943-13.869c-1.417-4.573-2.943-9.13-4.577-13.664
								l49.368,1.232c2.236,5.65,4.352,11.342,6.34,17.065c2.006,5.774,3.887,11.587,5.636,17.429
								c1.766,5.898,3.399,11.831,4.897,17.792C904.797,481.478,906.173,487.531,907.406,493.61 M836.167,421.168
								c1.659,4.573,3.215,9.186,4.661,13.832c1.456,4.68,2.803,9.396,4.034,14.146c1.241,4.786,2.366,9.607,3.369,14.46
								c1.011,4.893,1.898,9.819,2.657,14.774l57.301,16.188c-1.273-6.322-2.693-12.591-4.254-18.8
								c-1.545-6.146-3.228-12.237-5.041-18.27c-1.797-5.976-3.723-11.897-5.772-17.762c-2.031-5.812-4.186-11.57-6.456-17.271
								L836.167,421.168"/>
							<path fill="#FFFFFF" d="M752.674,419.842c0.78,2.619,1.492,5.243,2.132,7.869c0.644,2.636,1.215,5.273,1.714,7.91
								c0.502,2.647,0.931,5.294,1.286,7.936c0.356,2.654,0.638,5.304,0.845,7.945l63.683,18.033
								c-0.538-4.084-1.187-8.168-1.942-12.246c-0.749-4.05-1.605-8.096-2.564-12.133c-0.952-4.012-2.008-8.015-3.162-12.006
								c-1.148-3.967-2.396-7.923-3.742-11.863L752.674,419.842"/>
							<path fill="#FFFFFF" d="M822.333,469.535l-63.683-18.033c-0.207-2.642-0.488-5.291-0.845-7.945
								c-0.355-2.642-0.784-5.288-1.286-7.936c-0.499-2.637-1.07-5.274-1.714-7.91c-0.64-2.626-1.352-5.25-2.132-7.869l58.248,1.445
								c1.346,3.94,2.594,7.896,3.742,11.863c1.154,3.991,2.21,7.994,3.162,12.006c0.959,4.037,1.815,8.083,2.564,12.133
								C821.146,461.367,821.795,465.451,822.333,469.535 M751.712,419.003c0.816,2.694,1.563,5.404,2.234,8.127
								c0.675,2.734,1.276,5.481,1.799,8.238c0.526,2.769,0.974,5.548,1.34,8.334c0.368,2.8,0.654,5.606,0.854,8.417l65.205,18.422
								c-0.555-4.306-1.229-8.592-2.017-12.854c-0.781-4.231-1.675-8.441-2.675-12.625c-0.992-4.155-2.092-8.286-3.291-12.388
								c-1.191-4.077-2.483-8.127-3.871-12.146L751.712,419.003"/>
							<path fill="#FFFFFF" d="M454.667,244.93c-3.741,2.038-7.399,4.212-10.966,6.52c-3.604,2.331-7.114,4.8-10.525,7.402
								c-3.446,2.63-6.791,5.397-10.024,8.301c-3.269,2.934-6.424,6.005-9.458,9.212l81.056,52.011
								c1.61-2.137,3.302-4.198,5.068-6.184c1.755-1.972,3.585-3.868,5.486-5.687c1.889-1.808,3.848-3.537,5.872-5.188
								c2.011-1.641,4.087-3.204,6.224-4.688L454.667,244.93"/>
							<path fill="#FFFFFF" d="M494.749,328.375l-81.056-52.011c3.034-3.207,6.189-6.278,9.458-9.212
								c3.233-2.903,6.578-5.671,10.024-8.301c3.411-2.603,6.922-5.071,10.525-7.402c3.566-2.308,7.225-4.481,10.966-6.52
								l62.732,61.699c-2.137,1.483-4.213,3.047-6.224,4.688c-2.024,1.651-3.983,3.381-5.872,5.188
								c-1.901,1.818-3.731,3.715-5.486,5.687C498.051,324.177,496.359,326.238,494.749,328.375 M454.679,243.817
								c-3.837,2.058-7.602,4.265-11.282,6.62c-3.722,2.382-7.358,4.916-10.902,7.605c-3.582,2.719-7.069,5.597-10.451,8.634
								c-3.42,3.071-6.731,6.307-9.926,9.706l83.045,53.26c1.692-2.289,3.467-4.483,5.318-6.584c1.84-2.087,3.755-4.08,5.74-5.98
								c1.973-1.887,4.014-3.683,6.12-5.387c2.092-1.691,4.247-3.294,6.46-4.805L454.679,243.817"/>
							<path fill="#FFFFFF" d="M548.042,336.768c-1.446,1.128-2.845,2.31-4.194,3.543c-1.357,1.239-2.664,2.531-3.921,3.874
								c-1.262,1.35-2.472,2.75-3.629,4.2c-1.162,1.457-2.27,2.963-3.32,4.518l90.523,58.09L548.042,336.768"/>
							<path fill="#FFFFFF" d="M623.501,410.992l-90.523-58.09c1.051-1.555,2.158-3.061,3.32-4.518
								c1.157-1.45,2.367-2.851,3.629-4.2c1.257-1.343,2.563-2.635,3.921-3.874c1.35-1.233,2.748-2.415,4.194-3.543L623.501,410.992
								 M547.949,335.561c-1.557,1.184-3.066,2.432-4.528,3.745c-1.468,1.319-2.887,2.705-4.251,4.155
								c-1.372,1.458-2.689,2.98-3.947,4.57c-1.266,1.596-2.472,3.259-3.615,4.987l98.004,62.851L547.949,335.561"/>
							<path fill="#FFFFFF" d="M361.316,153.118c-6.577,2.424-13.067,5.069-19.459,7.938c-6.496,2.915-12.892,6.061-19.173,9.438
								c-6.387,3.432-12.655,7.104-18.793,11.013c-6.241,3.976-12.347,8.198-18.299,12.667l87.086,55.875
								c3.881-3.666,7.897-7.164,12.039-10.49c4.09-3.285,8.302-6.402,12.626-9.352c4.27-2.912,8.65-5.66,13.131-8.241
								c4.426-2.55,8.95-4.938,13.564-7.16L361.316,153.118"/>
							<path fill="#FFFFFF" d="M372.679,250.049l-87.086-55.875c5.952-4.469,12.058-8.691,18.299-12.667
								c6.138-3.909,12.406-7.581,18.793-11.013c6.281-3.377,12.677-6.522,19.173-9.438c6.392-2.869,12.882-5.515,19.459-7.938
								l62.723,61.688c-4.614,2.223-9.139,4.61-13.564,7.16c-4.48,2.581-8.861,5.329-13.131,8.241
								c-4.324,2.949-8.536,6.066-12.626,9.352C380.576,242.885,376.56,246.383,372.679,250.049 M361.423,152.1
								c-6.653,2.422-13.241,5.077-19.749,7.97c-6.616,2.941-13.151,6.13-19.59,9.571c-6.548,3.5-12.998,7.262-19.332,11.293
								c-6.444,4.102-12.771,8.482-18.959,13.147l89.221,57.22c4.02-3.844,8.168-7.485,12.433-10.93
								c4.21-3.399,8.532-6.605,12.957-9.622c4.368-2.979,8.836-5.772,13.391-8.384c4.498-2.579,9.082-4.982,13.741-7.21
								L361.423,152.1"/>
							<path fill="#FFFFFF" d="M600.012,320.428c-3.268-0.05-6.51,0.066-9.711,0.349c-3.221,0.283-6.4,0.732-9.518,1.347
								c-3.14,0.619-6.218,1.405-9.215,2.355c-3.018,0.959-5.955,2.084-8.789,3.376l64.712,83.947L600.012,320.428"/>
							<path fill="#FFFFFF" d="M627.491,411.802l-64.712-83.947c2.834-1.292,5.771-2.417,8.789-3.376
								c2.997-0.95,6.075-1.736,9.215-2.355c3.117-0.614,6.297-1.063,9.518-1.347c3.201-0.282,6.443-0.398,9.711-0.349
								L627.491,411.802 M600.613,319.637c-3.472-0.085-6.902,0.012-10.275,0.289c-3.398,0.279-6.74,0.74-10.012,1.383
								c-3.296,0.646-6.521,1.478-9.661,2.491c-3.163,1.021-6.24,2.229-9.214,3.62l68.16,88.449L600.613,319.637"/>
							<path fill="#FFFFFF" d="M545.473,139.069c-5.156-0.929-10.331-1.753-15.517-2.474c-5.235-0.729-10.483-1.35-15.737-1.862
								c-5.307-0.518-10.622-0.925-15.937-1.219c-5.37-0.297-10.743-0.479-16.109-0.542c-5.413-0.064-10.824-0.01-16.226,0.168
								c-5.463,0.179-10.918,0.481-16.357,0.91c-5.502,0.434-10.989,0.996-16.453,1.688c-5.53,0.7-11.037,1.535-16.514,2.505
								l47.685,61.864c8.003-2.073,16.171-3.719,24.443-4.946c8.124-1.205,16.356-2.009,24.642-2.418
								c8.145-0.402,16.351-0.424,24.566-0.07c8.088,0.347,16.195,1.057,24.277,2.125L545.473,139.069"/>
							<path fill="#FFFFFF" d="M464.308,200.108l-47.685-61.864c5.477-0.97,10.983-1.805,16.514-2.505
								c5.464-0.692,10.951-1.255,16.453-1.688c5.439-0.429,10.895-0.731,16.357-0.91c5.401-0.178,10.813-0.232,16.226-0.168
								c5.366,0.063,10.739,0.245,16.109,0.542c5.314,0.294,10.63,0.701,15.937,1.219c5.254,0.513,10.502,1.134,15.737,1.862
								c5.186,0.721,10.36,1.545,15.517,2.474l16.764,55.729c-8.082-1.068-16.189-1.778-24.277-2.125
								c-8.216-0.354-16.422-0.332-24.566,0.07c-8.285,0.409-16.518,1.213-24.642,2.418
								C480.479,196.39,472.311,198.035,464.308,200.108 M546.07,138.589c-10.574-1.93-21.183-3.425-31.787-4.475
								c-10.821-1.071-21.656-1.682-32.465-1.817c-11.047-0.139-22.082,0.218-33.059,1.086c-11.238,0.89-22.429,2.316-33.52,4.3
								l48.833,63.37c8.12-2.145,16.38-3.848,24.735-5.117c8.203-1.246,16.508-2.076,24.875-2.498
								c8.227-0.415,16.521-0.436,24.854-0.067c8.199,0.362,16.443,1.101,24.702,2.212L546.07,138.589"/>
							<path fill="#FFFFFF" d="M570.956,223.796c-6.938-0.738-13.882-1.156-20.791-1.252c-7.004-0.097-13.979,0.137-20.884,0.704
								c-7.006,0.577-13.945,1.498-20.771,2.77c-6.933,1.291-13.753,2.943-20.409,4.962l49.805,64.612
								c4.04-1.627,8.211-3.021,12.482-4.181c4.229-1.148,8.559-2.067,12.959-2.758c4.358-0.684,8.79-1.142,13.266-1.374
								c4.437-0.23,8.92-0.239,13.424-0.024L570.956,223.796"/>
							<path fill="#FFFFFF" d="M537.906,295.592l-49.805-64.612c6.656-2.019,13.477-3.671,20.409-4.962
								c6.825-1.271,13.765-2.192,20.771-2.77c6.904-0.567,13.88-0.801,20.884-0.704c6.909,0.096,13.853,0.514,20.791,1.252
								l19.081,63.459c-4.504-0.215-8.987-0.206-13.424,0.024c-4.476,0.232-8.907,0.69-13.266,1.374
								c-4.4,0.69-8.73,1.609-12.959,2.758C546.117,292.571,541.946,293.965,537.906,295.592 M571.553,223.177
								c-7.164-0.792-14.299-1.249-21.377-1.368c-7.178-0.121-14.304,0.105-21.351,0.682c-7.153,0.585-14.229,1.532-21.198,2.846
								c-7.08,1.334-14.053,3.047-20.885,5.144l51.009,66.187c4.13-1.709,8.384-3.168,12.739-4.378
								c4.312-1.198,8.725-2.152,13.218-2.862c4.45-0.703,8.981-1.168,13.573-1.394c4.551-0.223,9.164-0.211,13.822,0.038
								L571.553,223.177"/>
							<path fill="#FFFFFF" d="M796.584,280.717l-30.349,24.798c5.366,5.899,10.548,11.992,15.521,18.245
								c4.989,6.272,9.776,12.716,14.338,19.296c4.583,6.611,8.944,13.37,13.058,20.242c4.139,6.917,8.032,13.959,11.65,21.09
								l44.345-7.072c-2.348-4.396-4.771-8.762-7.265-13.089c-2.484-4.308-5.039-8.579-7.663-12.811
								c-2.613-4.215-5.296-8.391-8.043-12.522c-2.737-4.117-5.541-8.193-8.407-12.223c-2.865-4.028-5.795-8.015-8.786-11.954
								c-2.984-3.93-6.03-7.814-9.136-11.649c-3.098-3.828-6.256-7.608-9.47-11.337
								C803.169,288.008,799.903,284.335,796.584,280.717"/>
							<path fill="#FFFFFF" d="M820.803,384.388c-3.618-7.131-7.512-14.173-11.65-21.09c-4.113-6.872-8.475-13.631-13.058-20.242
								c-4.562-6.58-9.349-13.023-14.338-19.296c-4.974-6.253-10.155-12.346-15.521-18.245l30.349-24.798
								c3.319,3.618,6.585,7.291,9.794,11.014c3.214,3.729,6.372,7.509,9.47,11.337c3.105,3.835,6.151,7.72,9.136,11.649
								c2.991,3.939,5.921,7.926,8.786,11.954c2.866,4.029,5.67,8.105,8.407,12.223c2.747,4.132,5.43,8.308,8.043,12.522
								c2.624,4.231,5.179,8.503,7.663,12.811c2.494,4.327,4.917,8.692,7.265,13.089L820.803,384.388 M796.412,279.895
								l-31.09,25.342c5.5,6.021,10.784,12.212,15.838,18.549c5.07,6.357,9.918,12.873,14.525,19.524
								c4.631,6.684,9.027,13.517,13.173,20.475c4.173,7.005,8.098,14.147,11.755,21.407l45.375-7.287
								c-4.755-8.938-9.808-17.72-15.135-26.322c-5.284-8.531-10.849-16.903-16.673-25.091c-5.789-8.138-11.847-16.109-18.154-23.89
								C809.744,294.852,803.2,287.273,796.412,279.895"/>
							<path fill="#FFFFFF" d="M692.293,365.955l-59.214,48.399l82.128-13.113c-1.413-3.153-2.968-6.276-4.651-9.354
								c-1.679-3.067-3.487-6.092-5.413-9.054c-1.921-2.956-3.961-5.852-6.107-8.672
								C696.893,371.347,694.641,368.605,692.293,365.955"/>
							<path fill="#FFFFFF" d="M633.079,414.354l59.214-48.399c2.348,2.65,4.6,5.392,6.742,8.207
								c2.146,2.82,4.187,5.716,6.107,8.672c1.926,2.962,3.734,5.986,5.413,9.054c1.684,3.077,3.238,6.2,4.651,9.354
								L633.079,414.354 M692.177,364.857l-62.565,51.012l86.662-13.918c-1.467-3.333-3.082-6.624-4.835-9.858
								c-1.749-3.226-3.637-6.397-5.656-9.504c-2.015-3.1-4.161-6.136-6.433-9.097C697.082,370.536,694.688,367.653,692.177,364.857
								"/>
							<path fill="#FFFFFF" d="M749.872,318.889l-37.263,30.462c3.172,3.547,6.219,7.216,9.125,10.984
								c2.911,3.775,5.685,7.653,8.305,11.612c2.628,3.972,5.104,8.027,7.411,12.145c2.317,4.134,4.466,8.334,6.432,12.578
								l53.258-8.502c-3.084-6.249-6.418-12.424-9.978-18.492c-3.54-6.034-7.307-11.971-11.277-17.78
								c-3.954-5.784-8.115-11.45-12.461-16.965C759.09,329.432,754.565,324.073,749.872,318.889"/>
							<path fill="#FFFFFF" d="M743.882,396.67c-1.966-4.244-4.114-8.444-6.432-12.578c-2.308-4.117-4.783-8.173-7.411-12.145
								c-2.62-3.959-5.394-7.837-8.305-11.612c-2.906-3.769-5.953-7.438-9.125-10.984l37.263-30.462
								c4.693,5.185,9.218,10.543,13.552,16.042c4.346,5.515,8.507,11.181,12.461,16.965c3.971,5.81,7.737,11.746,11.277,17.78
								c3.56,6.068,6.894,12.243,9.978,18.492L743.882,396.67 M749.725,317.953l-38.176,31.117
								c3.297,3.653,6.445,7.418,9.436,11.276c2.996,3.866,5.838,7.831,8.514,11.878c2.685,4.06,5.205,8.206,7.552,12.423
								c2.355,4.234,4.537,8.544,6.534,12.913l54.498-8.746c-3.146-6.421-6.54-12.744-10.163-18.946
								c-3.602-6.167-7.437-12.224-11.486-18.149c-4.033-5.9-8.286-11.681-12.746-17.318
								C759.24,328.778,754.582,323.289,749.725,317.953"/>
							<path fill="#FFFFFF" d="M314.675,107.236c-8.207,2.421-16.341,5.106-24.387,8.057c-8.203,3.008-16.316,6.293-24.324,9.856
								c-8.167,3.635-16.227,7.56-24.158,11.778c-8.093,4.304-16.055,8.913-23.865,13.83l32.032,20.554
								c6.903-4.724,13.961-9.169,21.153-13.336c7.06-4.091,14.251-7.914,21.557-11.472c7.173-3.492,14.458-6.729,21.837-9.711
								c7.25-2.928,14.594-5.611,22.018-8.051L314.675,107.236"/>
							<path fill="#FFFFFF" d="M249.973,171.312l-32.032-20.554c7.811-4.917,15.772-9.526,23.865-13.83
								c7.932-4.219,15.991-8.144,24.158-11.778c8.008-3.563,16.121-6.849,24.324-9.856c8.046-2.95,16.18-5.636,24.387-8.057
								l21.862,21.506c-7.424,2.439-14.768,5.123-22.018,8.051c-7.379,2.982-14.664,6.219-21.837,9.711
								c-7.306,3.558-14.497,7.381-21.557,11.472C263.934,162.143,256.876,166.588,249.973,171.312 M314.817,106.262
								c-8.264,2.41-16.483,5.093-24.641,8.058c-8.318,3.022-16.575,6.338-24.752,9.956c-8.342,3.691-16.604,7.698-24.765,12.03
								c-8.33,4.422-16.558,9.185-24.659,14.296l34.218,21.943c7.104-4.904,14.344-9.493,21.697-13.772
								c7.215-4.198,14.541-8.101,21.96-11.714c7.282-3.548,14.655-6.817,22.101-9.816c7.313-2.945,14.699-5.631,22.143-8.063
								L314.817,106.262"/>
							<path fill="#FFFFFF" d="M344.474,287.726c-4.888,7.547-9.3,15.423-13.212,23.618c-3.986,8.352-7.451,17.024-10.37,26.006
								c-2.972,9.145-5.375,18.599-7.186,28.344c-1.842,9.912-3.068,20.114-3.657,30.585c-0.585,10.369-0.541,20.876,0.143,31.491
								c0.692,10.766,2.041,21.623,4.053,32.541c2.037,11.053,4.75,22.146,8.143,33.245c3.429,11.216,7.544,22.415,12.346,33.561
								c4.848,11.243,10.322,22.265,16.409,33.024c6.126,10.828,12.858,21.366,20.177,31.574
								c7.347,10.25,15.267,20.143,23.734,29.644c8.482,9.516,17.493,18.613,27.004,27.261c9.838,8.938,20.082,17.269,30.689,24.968
								c10.569,7.672,21.474,14.696,32.669,21.053c11.128,6.317,22.516,11.96,34.12,16.912c11.506,4.909,23.197,9.129,35.029,12.648
								c13.387,3.982,26.667,6.993,39.795,9.048c12.936,2.023,25.693,3.114,38.232,3.289c12.328,0.173,24.417-0.539,36.23-2.111
								c11.594-1.543,22.9-3.911,33.889-7.076c12.906-3.719,25.148-8.496,36.658-14.232c11.215-5.588,21.719-12.079,31.457-19.377
								c9.482-7.105,18.23-14.97,26.201-23.509c7.759-8.312,14.779-17.259,21.025-26.767c6.205-9.442,11.576-19.345,16.123-29.608
								c4.43-9.997,8.08-20.346,10.964-30.963c2.813-10.354,4.898-20.976,6.267-31.791c1.336-10.563,1.988-21.327,1.963-32.229
								l-27.665-12.562c-0.515,19.223-3.495,37.61-8.847,54.797c-5.588,17.941-13.775,34.621-24.455,49.552
								c-11.18,15.628-25.096,29.348-41.589,40.536c-17.267,11.715-37.318,20.63-59.874,26.001
								c-9.306,2.216-18.844,3.771-28.589,4.651c-9.899,0.894-19.996,1.087-30.261,0.564c-10.41-0.529-20.974-1.793-31.659-3.803
								c-10.816-2.034-21.736-4.829-32.724-8.393c-40.007-12.971-76.647-34.946-107.78-63.335
								c-31.224-28.473-55.892-62.467-72.565-98.921c-16.219-35.459-24.424-72.268-24.03-107.672
								c0.374-33.622,8.5-65.276,24.403-92.92L344.474,287.726"/>
							<path fill="#FFFFFF" d="M702.711,727.35c-10.988,3.165-22.295,5.533-33.889,7.076c-11.813,1.572-23.902,2.284-36.23,2.111
								c-12.539-0.175-25.297-1.266-38.232-3.289c-13.128-2.055-26.408-5.065-39.795-9.048c-11.832-3.52-23.523-7.739-35.029-12.648
								c-11.604-4.952-22.992-10.595-34.12-16.912c-11.195-6.356-22.1-13.381-32.669-21.053
								c-10.607-7.699-20.852-16.03-30.689-24.968c-9.511-8.647-18.521-17.745-27.004-27.261
								c-8.468-9.501-16.388-19.394-23.734-29.644c-7.318-10.208-14.051-20.746-20.177-31.574
								c-6.087-10.76-11.562-21.781-16.409-33.024c-4.802-11.146-8.917-22.345-12.346-33.561
								c-3.393-11.099-6.105-22.192-8.143-33.245c-2.012-10.918-3.36-21.775-4.053-32.541c-0.684-10.615-0.728-21.122-0.143-31.491
								c0.589-10.471,1.815-20.673,3.657-30.585c1.811-9.745,4.214-19.199,7.186-28.344c2.919-8.981,6.384-17.654,10.37-26.006
								c3.912-8.195,8.324-16.071,13.212-23.618l43.261,19.646c-15.903,27.644-24.029,59.298-24.403,92.92
								c-0.394,35.404,7.812,72.213,24.03,107.672c16.674,36.454,41.342,70.448,72.565,98.921
								c31.133,28.389,67.773,50.364,107.78,63.335c10.987,3.563,21.907,6.358,32.724,8.393c10.686,2.01,21.249,3.273,31.659,3.803
								c10.265,0.522,20.361,0.329,30.261-0.564c9.745-0.88,19.283-2.436,28.589-4.651c22.556-5.371,42.607-14.286,59.874-26.001
								c16.493-11.188,30.409-24.908,41.589-40.536c10.68-14.931,18.867-31.61,24.455-49.552
								c5.352-17.187,8.332-35.574,8.847-54.797l27.665,12.562c0.025,10.901-0.627,21.665-1.963,32.229
								c-1.368,10.815-3.454,21.437-6.267,31.791c-2.884,10.617-6.534,20.966-10.964,30.963
								c-4.547,10.264-9.918,20.166-16.123,29.608c-6.246,9.508-13.267,18.455-21.025,26.767
								c-7.971,8.539-16.719,16.403-26.201,23.509c-9.738,7.298-20.242,13.789-31.457,19.377
								C727.859,718.854,715.617,723.631,702.711,727.35 M343.838,286.397c-21.09,32.126-32.93,69.529-35.241,109.793
								c-2.462,42.87,5.931,87.867,24.698,131.468c19.416,45.109,49.258,87.162,87.725,122.12
								c38.33,34.834,83.693,61.229,133.184,75.914c13.752,4.081,27.357,7.108,40.739,9.138c13.181,1.998,26.113,3.023,38.73,3.135
								c12.402,0.109,24.477-0.664,36.163-2.258c11.471-1.565,22.552-3.919,33.195-7c25.664-7.429,48.66-19.04,68.471-33.951
								c18.775-14.131,34.631-31.181,47.252-50.44c11.963-18.254,21.023-38.497,26.968-60.209c5.65-20.64,8.501-42.665,8.362-65.719
								l-29.098-13.235c-0.471,19.731-3.572,38.424-9.1,55.776c-5.773,18.126-14.208,34.83-25.068,49.692
								c-11.37,15.557-25.396,29.093-41.762,40.063c-17.123,11.476-36.753,20.105-58.418,25.236
								c-8.936,2.116-18.201,3.633-27.756,4.505c-9.705,0.886-19.695,1.105-29.925,0.616c-10.374-0.497-20.979-1.723-31.759-3.719
								c-10.914-2.021-21.988-4.829-33.162-8.462c-39.982-12.987-76.56-34.929-107.601-63.247
								c-31.131-28.401-55.679-62.291-72.222-98.627c-16.091-35.342-24.161-72.024-23.638-107.308
								c0.498-33.505,8.738-65.05,24.737-92.607L343.838,286.397"/>
							<path fill="#FFFFFF" d="M196.725,220.615c-9.74,10.534-18.819,21.699-27.184,33.485
								c-8.612,12.134-16.457,24.912-23.476,38.32c-7.22,13.793-13.557,28.233-18.948,43.3
								c-5.541,15.481-10.074,31.598-13.536,48.317c-3.453,16.673-5.804,33.731-7.008,51.124
								c-1.232,17.795-1.261,35.893-0.05,54.227c1.235,18.713,3.76,37.618,7.602,56.64c3.909,19.361,9.171,38.781,15.8,58.176
								c6.735,19.682,14.769,39.016,24.082,57.905c9.414,19.096,20.099,37.662,32.017,55.604c12,18.064,25.202,35.421,39.553,51.979
								c14.389,16.603,29.873,32.332,46.383,47.106c17.064,15.274,34.969,29.289,53.611,41.986
								c18.531,12.621,37.711,23.885,57.435,33.754c19.521,9.767,39.49,18.127,59.804,25.063
								c20.022,6.836,40.299,12.261,60.728,16.275c11.563,2.27,23.098,4.063,34.573,5.383c11.344,1.306,22.618,2.148,33.795,2.537
								c11.037,0.383,21.97,0.321,32.77-0.178c10.657-0.491,21.177-1.407,31.535-2.739c9.932-1.276,19.725-2.937,29.355-4.966
								c9.494-2.001,18.826-4.359,27.976-7.061c9.015-2.662,17.847-5.655,26.481-8.966c8.502-3.261,16.808-6.827,24.901-10.688
								c19.42-9.261,37.511-20.124,54.196-32.36c16.028-11.756,30.736-24.76,44.076-38.816
								c12.812-13.498,24.352-27.957,34.596-43.21c9.842-14.654,18.486-30.041,25.918-46.024
								c7.309-15.711,13.363-31.851,18.215-48.27c4.671-15.811,8.234-31.905,10.732-48.162c2.412-15.692,3.837-31.566,4.309-47.521
								c0.457-15.442,0.023-30.993-1.277-46.571l-19.894-9.029c1.908,29.574,0.388,58.591-4.589,86.498
								c-5.309,29.773-14.581,58.452-27.887,85.199c-14.286,28.72-33.262,55.29-56.964,78.487
								c-25.536,24.993-56.52,46.034-92.775,61.429c-15.238,6.47-31.079,11.783-47.479,15.873
								c-16.852,4.202-34.25,7.103-52.138,8.64c-18.334,1.575-37.128,1.712-56.312,0.358c-19.605-1.384-39.553-4.32-59.756-8.851
								c-75.097-16.854-144.366-53.935-202.297-106.027c-58.242-52.372-101.529-116.771-127.03-185.923
								c-24.245-65.745-31.22-132.615-21.173-194.791c9.183-56.824,32.311-107.896,67.959-149.969L196.725,220.615"/>
							<path fill="#FFFFFF" d="M744.923,907.2c-8.094,3.86-16.399,7.427-24.901,10.688c-8.635,3.311-17.467,6.304-26.481,8.966
								c-9.149,2.701-18.481,5.06-27.976,7.061c-9.631,2.029-19.424,3.689-29.355,4.966c-10.358,1.332-20.878,2.248-31.535,2.739
								c-10.8,0.499-21.732,0.561-32.77,0.178c-11.177-0.389-22.451-1.231-33.795-2.537c-11.476-1.32-23.01-3.113-34.573-5.383
								c-20.429-4.015-40.705-9.439-60.728-16.275c-20.313-6.936-40.283-15.296-59.804-25.063
								c-19.724-9.869-38.903-21.133-57.435-33.754c-18.643-12.697-36.547-26.712-53.611-41.986
								c-16.51-14.774-31.994-30.504-46.383-47.106c-14.351-16.559-27.553-33.915-39.553-51.979
								c-11.918-17.941-22.603-36.508-32.017-55.604c-9.313-18.89-17.347-38.224-24.082-57.905
								c-6.629-19.395-11.891-38.814-15.8-58.176c-3.842-19.021-6.366-37.927-7.602-56.64c-1.211-18.334-1.183-36.432,0.05-54.227
								c1.204-17.393,3.555-34.451,7.008-51.124c3.462-16.72,7.995-32.836,13.536-48.317c5.392-15.066,11.729-29.507,18.948-43.3
								c7.019-13.408,14.863-26.187,23.476-38.32c8.364-11.786,17.443-22.951,27.184-33.485l38.629,17.545
								c-35.648,42.073-58.776,93.145-67.959,149.969c-10.047,62.176-3.072,129.046,21.173,194.791
								c25.501,69.152,68.788,133.551,127.03,185.923c57.931,52.093,127.2,89.174,202.297,106.027
								c20.203,4.53,40.15,7.467,59.756,8.851c19.184,1.354,37.978,1.217,56.312-0.358c17.888-1.537,35.286-4.438,52.138-8.64
								c16.4-4.09,32.241-9.403,47.479-15.873c36.256-15.395,67.239-36.436,92.775-61.429
								c23.702-23.197,42.678-49.768,56.964-78.487c13.306-26.747,22.578-55.426,27.887-85.199
								c4.977-27.907,6.497-56.924,4.589-86.498l19.894,9.029c1.301,15.578,1.734,31.129,1.277,46.571
								c-0.472,15.954-1.896,31.828-4.309,47.521c-2.498,16.257-6.062,32.352-10.732,48.162
								c-4.852,16.419-10.906,32.559-18.215,48.27c-7.432,15.983-16.076,31.37-25.918,46.024
								c-10.244,15.253-21.784,29.712-34.596,43.21c-13.34,14.057-28.048,27.061-44.076,38.816
								C782.434,887.076,764.343,897.939,744.923,907.2 M196.139,219.244c-42.404,45.443-71.233,101.492-84.41,164.684
								c-14.581,69.928-9.467,145.886,16.175,221.044c27.163,79.618,75.757,153.748,142.543,213.513
								c66.377,59.398,146.194,100.547,232.587,117.435c23.529,4.6,46.648,7.19,69.198,7.919
								c21.993,0.712,43.369-0.352,64.007-3.033c20.07-2.607,39.386-6.739,57.857-12.241c17.927-5.34,35.02-11.958,51.216-19.711
								c38.311-18.338,71.364-42.89,98.66-71.771c25.167-26.628,45.374-56.869,60.466-89.417
								c13.959-30.104,23.574-62.249,28.779-95.598c4.847-31.058,5.896-63.328,3.06-96.31l-21.204-9.643
								c2.001,30.341,0.328,59.847-4.898,88.05c-5.582,30.12-15.243,58.904-28.866,85.6c-14.633,28.672-33.86,54.981-57.462,77.795
								c-25.402,24.557-55.792,44.987-90.635,59.723c-14.654,6.197-30.056,11.369-46.147,15.398
								c-16.526,4.139-33.745,7.063-51.577,8.653c-18.278,1.63-37.152,1.853-56.518,0.546c-19.799-1.334-40.047-4.262-60.617-8.896
								c-75.056-16.908-144.229-53.937-202.026-105.903c-58.109-52.246-101.235-116.452-126.57-185.394
								c-24.085-65.544-30.905-132.202-20.722-194.191c9.306-56.651,32.533-107.572,68.246-149.543L196.139,219.244"/>
							<path fill="#FFFFFF" d="M484.186,351.182c-3.496,8.25-5.997,16.983-7.477,26.086c-1.506,9.265-1.949,18.888-1.313,28.741
								c0.646,10.002,2.404,20.21,5.284,30.482c2.915,10.394,6.968,20.815,12.155,31.11c5.277,10.467,11.55,20.447,18.699,29.805
								c7.174,9.392,15.199,18.112,23.941,26.036c8.734,7.916,18.146,15,28.093,21.136c9.892,6.102,20.271,11.238,30.989,15.311
								c6.156,2.34,12.298,4.284,18.406,5.835c6.067,1.541,12.096,2.69,18.069,3.453c5.926,0.757,11.791,1.13,17.582,1.124
								c5.739-0.006,11.397-0.384,16.964-1.13c6.607-0.886,12.977-2.286,19.065-4.169c6.011-1.859,11.744-4.188,17.163-6.956
								c5.347-2.73,10.384-5.887,15.08-9.44c4.632-3.505,8.93-7.394,12.863-11.641c3.938-4.25,7.467-8.814,10.578-13.65
								c3.069-4.768,5.734-9.801,7.988-15.058c2.224-5.185,4.049-10.591,5.471-16.18c1.402-5.517,2.411-11.214,3.021-17.06
								l-30.612-13.907c-1.26,8.86-3.746,17.098-7.348,24.555c-3.678,7.611-8.521,14.417-14.411,20.233
								c-6.015,5.94-13.12,10.85-21.177,14.524c-8.221,3.75-17.422,6.21-27.434,7.164c-4.09,0.39-8.234,0.518-12.424,0.383
								c-4.217-0.136-8.477-0.539-12.77-1.21c-4.316-0.675-8.664-1.621-13.031-2.838c-4.389-1.224-8.793-2.72-13.203-4.489
								c-15.756-6.314-30.129-15.617-42.496-26.985c-12.383-11.383-22.595-24.689-30.115-38.938
								c-7.438-14.092-12.16-28.946-13.77-43.613c-1.576-14.356-0.154-28.397,4.549-41.276L484.186,351.182"/>
							<path fill="#FFFFFF" d="M665.58,569.171c-5.566,0.746-11.225,1.124-16.964,1.13c-5.791,0.006-11.656-0.367-17.582-1.124
								c-5.974-0.763-12.002-1.912-18.069-3.453c-6.108-1.551-12.25-3.495-18.406-5.835c-10.719-4.072-21.098-9.209-30.989-15.311
								c-9.947-6.136-19.358-13.22-28.093-21.136c-8.742-7.924-16.768-16.645-23.941-26.036
								c-7.149-9.357-13.422-19.338-18.699-29.805c-5.188-10.295-9.24-20.717-12.155-31.11c-2.88-10.272-4.638-20.48-5.284-30.482
								c-0.637-9.854-0.193-19.477,1.313-28.741c1.479-9.103,3.98-17.836,7.477-26.086l38.383,17.438
								c-4.703,12.879-6.125,26.92-4.549,41.276c1.609,14.667,6.331,29.521,13.77,43.613c7.521,14.249,17.732,27.556,30.115,38.938
								c12.367,11.368,26.74,20.671,42.496,26.985c4.41,1.77,8.814,3.266,13.203,4.489c4.367,1.217,8.715,2.163,13.031,2.838
								c4.293,0.671,8.553,1.074,12.77,1.21c4.189,0.135,8.334,0.007,12.424-0.383c10.012-0.954,19.213-3.414,27.434-7.164
								c8.057-3.675,15.162-8.584,21.177-14.524c5.891-5.816,10.733-12.622,14.411-20.233c3.602-7.457,6.088-15.694,7.348-24.555
								l30.612,13.907c-0.609,5.846-1.618,11.543-3.021,17.06c-1.422,5.589-3.247,10.995-5.471,16.18
								c-2.254,5.257-4.919,10.29-7.988,15.058c-3.111,4.836-6.641,9.4-10.578,13.65c-3.934,4.247-8.231,8.136-12.863,11.641
								c-4.696,3.554-9.733,6.71-15.08,9.44c-5.419,2.769-11.152,5.097-17.163,6.956
								C678.557,566.885,672.188,568.285,665.58,569.171 M483.513,349.897c-7.576,17.419-10.542,36.69-9.181,56.618
								c1.402,20.54,7.384,41.502,17.445,61.483c10.222,20.3,24.487,39.255,42.042,55.385c17.525,16.103,38.005,29.093,60.47,37.616
								c6.344,2.406,12.654,4.381,18.9,5.94c6.201,1.548,12.333,2.686,18.366,3.429c5.983,0.736,11.864,1.085,17.614,1.063
								c5.699-0.021,11.265-0.407,16.674-1.138c13.261-1.792,25.545-5.65,36.532-11.29c10.688-5.487,20.126-12.648,28.053-21.225
								c7.703-8.334,13.977-18,18.604-28.777c4.499-10.48,7.446-22.021,8.648-34.448l-32.188-14.633
								c-1.223,9.112-3.751,17.497-7.419,25.031c-3.744,7.692-8.679,14.503-14.623,20.287c-6.07,5.906-13.189,10.739-21.152,14.335
								c-8.124,3.669-17.11,6.043-26.722,6.949c-3.908,0.368-7.917,0.494-12.007,0.366c-4.117-0.128-8.316-0.515-12.576-1.168
								c-4.286-0.658-8.633-1.587-13.02-2.796c-4.41-1.217-8.857-2.716-13.322-4.508c-15.736-6.315-30.064-15.598-42.367-26.932
								c-12.317-11.346-22.444-24.6-29.867-38.786c-7.341-14.03-11.953-28.812-13.447-43.403
								c-1.462-14.28,0.077-28.243,4.896-41.046L483.513,349.897"/>
							<path fill="#FFFFFF" d="M533.877,100.504c-5.949-1.262-11.93-2.414-17.934-3.453c-6.068-1.05-12.163-1.986-18.275-2.804
								c-6.184-0.827-12.387-1.534-18.603-2.118c-6.29-0.59-12.595-1.055-18.905-1.388c-6.373-0.339-12.759-0.546-19.148-0.618
								c-6.473-0.074-12.952-0.01-19.429,0.195c-6.563,0.207-13.127,0.559-19.679,1.057c-6.643,0.505-13.276,1.162-19.889,1.973
								l16.124,20.922c12.067-1.777,24.259-2.974,36.484-3.613c11.923-0.623,23.895-0.719,35.841-0.308
								c11.671,0.401,23.335,1.287,34.928,2.639c11.346,1.322,22.643,3.095,33.832,5.301L533.877,100.504"/>
							<path fill="#FFFFFF" d="M398.14,114.27l-16.124-20.922c6.612-0.811,13.246-1.468,19.889-1.973
								c6.552-0.498,13.115-0.85,19.679-1.057c6.477-0.205,12.956-0.27,19.429-0.195c6.39,0.072,12.775,0.279,19.148,0.618
								c6.311,0.333,12.615,0.798,18.905,1.388c6.216,0.584,12.419,1.291,18.603,2.118c6.112,0.817,12.207,1.754,18.275,2.804
								c6.004,1.039,11.984,2.191,17.934,3.453l5.348,17.784c-11.189-2.206-22.486-3.979-33.832-5.301
								c-11.593-1.352-23.257-2.237-34.928-2.639c-11.946-0.411-23.918-0.315-35.841,0.308
								C422.398,111.296,410.207,112.492,398.14,114.27 M534.462,100.08c-12.179-2.608-24.437-4.749-36.734-6.41
								c-12.585-1.698-25.233-2.897-37.903-3.578c-12.992-0.697-26.029-0.851-39.058-0.437c-13.388,0.425-26.79,1.45-40.147,3.103
								l17.219,22.344c12.213-1.839,24.502-3.085,36.81-3.76c11.999-0.659,24.033-0.777,36.054-0.373
								c11.74,0.394,23.485,1.285,35.193,2.659c11.456,1.345,22.896,3.153,34.28,5.414L534.462,100.08"/>
							<path fill="#FFFFFF" d="M617.619,126.077l0.688,15.385c6.066,2.376,12.092,4.88,18.067,7.505
								c5.931,2.604,11.817,5.331,17.654,8.175c5.797,2.824,11.549,5.767,17.251,8.821c5.666,3.037,11.285,6.188,16.854,9.447
								c5.537,3.243,11.006,6.586,16.401,10.022c5.372,3.422,10.675,6.94,15.905,10.55c5.21,3.597,10.352,7.287,15.418,11.067
								c5.053,3.769,10.035,7.629,14.941,11.578l6.376-10.281c-5.16-4.17-10.398-8.251-15.71-12.237
								c-5.328-3.998-10.734-7.906-16.213-11.718c-5.5-3.827-11.078-7.561-16.728-11.196c-5.677-3.652-11.432-7.209-17.258-10.664
								c-5.862-3.476-11.781-6.838-17.749-10.084c-6.008-3.268-12.07-6.42-18.182-9.451c-6.157-3.055-12.369-5.988-18.629-8.799
								C630.396,131.364,624.031,128.656,617.619,126.077"/>
							<path fill="#FFFFFF" d="M750.799,218.628c-4.906-3.949-9.889-7.81-14.941-11.578c-5.066-3.78-10.208-7.471-15.418-11.067
								c-5.23-3.609-10.533-7.128-15.905-10.55c-5.396-3.437-10.864-6.779-16.401-10.022c-5.568-3.26-11.188-6.41-16.854-9.447
								c-5.702-3.055-11.454-5.997-17.251-8.821c-5.837-2.844-11.724-5.57-17.654-8.175c-5.976-2.625-12.001-5.129-18.067-7.505
								l-0.688-15.385c6.412,2.579,12.777,5.287,19.088,8.12c6.26,2.811,12.472,5.744,18.629,8.799
								c6.111,3.031,12.174,6.184,18.182,9.451c5.968,3.246,11.887,6.608,17.749,10.084c5.826,3.455,11.581,7.012,17.258,10.664
								c5.649,3.636,11.228,7.369,16.728,11.196c5.479,3.812,10.885,7.72,16.213,11.718c5.312,3.986,10.55,8.067,15.71,12.237
								L750.799,218.628 M616.899,125.293l0.721,16.412c6.013,2.343,12.008,4.817,17.979,7.426
								c5.926,2.588,11.832,5.309,17.717,8.163c5.842,2.834,11.667,5.802,17.469,8.903c5.766,3.082,11.514,6.299,17.24,9.652
								c5.693,3.333,11.282,6.752,16.768,10.25c5.459,3.483,10.819,7.048,16.08,10.689c5.241,3.628,10.389,7.334,15.439,11.114
								c5.037,3.769,9.982,7.613,14.836,11.528l6.79-10.968c-5.118-4.148-10.333-8.225-15.642-12.224
								c-5.326-4.012-10.752-7.948-16.277-11.805c-5.548-3.872-11.201-7.668-16.959-11.38c-5.786-3.73-11.684-7.381-17.692-10.945
								c-6.045-3.585-12.114-7.03-18.203-10.338c-6.131-3.33-12.287-6.521-18.464-9.577c-6.225-3.078-12.476-6.021-18.748-8.825
								C629.628,130.541,623.275,127.849,616.899,125.293"/>
							<path fill="#FFFFFF" d="M816.783,264.21l-9.24,7.547c7.078,7.695,13.942,15.634,20.563,23.771
								c6.648,8.171,13.065,16.563,19.219,25.132c6.192,8.623,12.131,17.445,17.78,26.422c5.697,9.055,11.112,18.286,16.206,27.651
								l13.676-2.183c-2.73-4.947-5.541-9.855-8.428-14.719c-2.871-4.84-5.818-9.638-8.837-14.389
								c-3.005-4.729-6.083-9.414-9.228-14.048c-3.133-4.616-6.336-9.186-9.604-13.701c-3.264-4.513-6.598-8.979-9.996-13.393
								c-3.389-4.401-6.844-8.753-10.359-13.05c-3.508-4.287-7.079-8.521-10.708-12.699
								C824.204,272.382,820.521,268.266,816.783,264.21"/>
							<path fill="#FFFFFF" d="M881.311,374.733c-5.094-9.365-10.509-18.597-16.206-27.651c-5.649-8.977-11.588-17.799-17.78-26.422
								c-6.153-8.569-12.57-16.961-19.219-25.132c-6.62-8.138-13.484-16.076-20.563-23.771l9.24-7.547
								c3.738,4.056,7.421,8.172,11.044,12.343c3.629,4.178,7.2,8.412,10.708,12.699c3.516,4.297,6.971,8.648,10.359,13.05
								c3.398,4.413,6.732,8.88,9.996,13.393c3.268,4.516,6.471,9.085,9.604,13.701c3.145,4.634,6.223,9.319,9.228,14.048
								c3.019,4.751,5.966,9.549,8.837,14.389c2.887,4.863,5.697,9.771,8.428,14.719L881.311,374.733 M816.6,263.442l-9.865,8.034
								c7.22,7.828,14.188,15.863,20.885,24.08c6.725,8.251,13.193,16.704,19.385,25.332c6.232,8.684,12.199,17.565,17.877,26.618
								c5.728,9.133,11.175,18.46,16.317,27.957l14.587-2.347c-5.522-10.031-11.355-19.878-17.473-29.516
								c-6.062-9.549-12.417-18.914-19.043-28.071c-6.582-9.095-13.445-18.004-20.572-26.702
								C831.603,280.169,824.23,271.698,816.6,263.442"/>
							<path fill="#FFFFFF" d="M904.532,423.617c2.478,6.064,4.831,12.177,7.054,18.328c2.243,6.209,4.355,12.463,6.334,18.755
								c1.998,6.355,3.859,12.755,5.58,19.189c1.738,6.506,3.335,13.052,4.783,19.632l17.867,5.058
								c-1.643-7.01-3.439-13.979-5.383-20.899c-1.92-6.841-3.986-13.639-6.193-20.388c-2.183-6.676-4.504-13.308-6.959-19.888
								c-2.432-6.516-4.996-12.985-7.689-19.402L904.532,423.617"/>
							<path fill="#FFFFFF" d="M946.15,504.579l-17.867-5.058c-1.448-6.58-3.045-13.126-4.783-19.632
								c-1.721-6.435-3.582-12.834-5.58-19.189c-1.979-6.292-4.091-12.546-6.334-18.755c-2.223-6.151-4.576-12.264-7.054-18.328
								l15.394,0.385c2.693,6.417,5.258,12.887,7.689,19.402c2.455,6.58,4.776,13.212,6.959,19.888
								c2.207,6.749,4.273,13.547,6.193,20.388C942.711,490.6,944.508,497.569,946.15,504.579 M903.721,422.902
								c2.496,6.082,4.872,12.229,7.123,18.438c2.271,6.267,4.417,12.602,6.43,18.997c2.033,6.462,3.932,12.991,5.688,19.584
								c1.775,6.666,3.406,13.4,4.885,20.2l19.072,5.388c-1.695-7.267-3.545-14.458-5.543-21.569
								c-1.974-7.027-4.093-13.982-6.35-20.86c-2.231-6.803-4.6-13.536-7.096-20.193c-2.472-6.592-5.071-13.114-7.792-19.563
								L903.721,422.902"/>
						</g>
					</g>
				</g>
			</g>
		</g>
	</g>
</g>
</svg>
