<?xml version="1.0" encoding="utf-8"?>
<!-- Generator: Adobe Illustrator 16.0.0, SVG Export Plug-In . SVG Version: 6.00 Build 0)  -->
<!DOCTYPE svg PUBLIC "-//W3C//DTD SVG 1.1//EN" "http://www.w3.org/Graphics/SVG/1.1/DTD/svg11.dtd">
<svg version="1.1" id="Layer_1" xmlns="http://www.w3.org/2000/svg" xmlns:xlink="http://www.w3.org/1999/xlink" x="0px" y="0px"
	 width="1000px" height="1000px" viewBox="0 0 1000 1000" enable-background="new 0 0 1000 1000" xml:space="preserve">
<g>
	<g>
		<g enable-background="new    ">
			<defs>
				<polygon id="SVGID_1_" enable-background="new    " points="354.334,1147.74 -55.676,188.99 699.66,16.665 1033.246,596.354 
									"/>
			</defs>
			<clipPath id="SVGID_2_">
				<use xlink:href="#SVGID_1_"  overflow="visible"/>
			</clipPath>
			<g clip-path="url(#SVGID_2_)">
				<g>
					<g>
						<g>
							<path d="M610.352,253.883c-1.348,6.302-2.705,12.647-4.07,19.035c-1.376,6.432-2.761,12.908-4.155,19.428
								c-1.403,6.565-2.816,13.177-4.239,19.833c-1.433,6.703-2.875,13.454-4.327,20.251c4.911,1.639,9.711,3.547,14.385,5.709
								c4.662,2.157,9.202,4.569,13.603,7.225c4.393,2.65,8.651,5.545,12.759,8.672c4.103,3.123,8.058,6.48,11.85,10.061
								c4.502-4.869,8.966-9.698,13.394-14.487c4.391-4.75,8.745-9.46,13.064-14.132c4.284-4.634,8.533-9.23,12.748-13.79
								c4.181-4.522,8.327-9.008,12.441-13.458c-6.256-6.034-12.799-11.71-19.597-17.011c-6.812-5.312-13.886-10.252-21.188-14.798
								c-7.325-4.561-14.889-8.731-22.656-12.487C626.562,260.16,618.546,256.802,610.352,253.883"/>
							<path d="M593.56,332.431c1.452-6.797,2.895-13.548,4.327-20.251c1.423-6.657,2.836-13.268,4.239-19.833
								c1.395-6.521,2.779-12.997,4.155-19.428c1.365-6.388,2.723-12.733,4.07-19.035c8.194,2.919,16.21,6.277,24.011,10.05
								c7.768,3.756,15.331,7.926,22.656,12.487c7.302,4.546,14.376,9.486,21.188,14.798c6.798,5.301,13.341,10.978,19.597,17.011
								c-4.114,4.45-8.261,8.936-12.441,13.458c-4.215,4.559-8.464,9.155-12.748,13.79c-4.319,4.672-8.674,9.382-13.064,14.132
								c-4.428,4.789-8.892,9.618-13.394,14.487c-3.792-3.581-7.747-6.938-11.85-10.061c-4.107-3.127-8.366-6.021-12.759-8.672
								c-4.4-2.655-8.94-5.067-13.603-7.225C603.271,335.978,598.471,334.07,593.56,332.431 M608.914,251.573
								c-0.057,0.021-0.11,0.047-0.159,0.078c-0.05,0.032-0.095,0.068-0.134,0.111c-0.04,0.042-0.074,0.091-0.102,0.145
								c-0.028,0.054-0.05,0.114-0.063,0.18c-1.389,6.458-2.787,12.962-4.196,19.512c-1.418,6.596-2.847,13.238-4.285,19.928
								c-1.449,6.737-2.908,13.522-4.377,20.356c-1.479,6.883-2.969,13.815-4.47,20.797c-0.028,0.137-0.034,0.286-0.017,0.434
								s0.058,0.296,0.121,0.433c0.064,0.137,0.152,0.264,0.264,0.369c0.112,0.105,0.249,0.189,0.41,0.242
								c5.021,1.627,9.93,3.535,14.707,5.712c4.764,2.172,9.401,4.613,13.893,7.312c4.481,2.693,8.821,5.646,13,8.846
								c4.173,3.197,8.189,6.643,12.028,10.33c0.02,0.019,0.04,0.038,0.06,0.055c0.021,0.018,0.041,0.034,0.062,0.05
								s0.041,0.031,0.062,0.045c0.021,0.015,0.042,0.028,0.063,0.041c0.074,0.064,0.153,0.119,0.236,0.164
								c0.082,0.044,0.168,0.079,0.256,0.1c0.087,0.021,0.176,0.03,0.264,0.023c0.088-0.006,0.176-0.028,0.261-0.066
								c0.025-0.012,0.052-0.025,0.077-0.04c0.025-0.015,0.051-0.032,0.075-0.05s0.049-0.038,0.073-0.06
								c0.024-0.022,0.048-0.045,0.071-0.07c4.616-5.008,9.192-9.973,13.729-14.896c4.499-4.881,8.961-9.721,13.384-14.521
								c4.387-4.759,8.737-9.479,13.052-14.16c4.278-4.642,8.521-9.246,12.73-13.812c0.08-0.088,0.146-0.196,0.193-0.314
								c0.047-0.119,0.074-0.248,0.078-0.38c0.003-0.132-0.019-0.268-0.069-0.398s-0.132-0.256-0.247-0.369
								c-6.428-6.25-13.156-12.131-20.151-17.619c-7.01-5.499-14.295-10.61-21.82-15.308c-7.55-4.713-15.351-9.015-23.368-12.879
								c-8.053-3.881-16.332-7.325-24.805-10.301c-0.072-0.026-0.147-0.046-0.224-0.06s-0.153-0.023-0.229-0.025
								c-0.075-0.002-0.15,0.002-0.224,0.012C609.05,251.532,608.98,251.549,608.914,251.573"/>
							<path d="M567.36,452.896c-0.015,0.011-0.029,0.021-0.044,0.031s-0.03,0.019-0.045,0.028c-0.016,0.009-0.03,0.018-0.046,0.026
								s-0.031,0.017-0.047,0.024c-0.012,0.005-0.022,0.01-0.034,0.015c-0.012,0.005-0.022,0.01-0.034,0.015
								c-0.012,0.004-0.023,0.009-0.035,0.013c-0.012,0.004-0.023,0.008-0.035,0.012c0.028-0.003,0.056-0.007,0.082-0.013
								c0.027-0.005,0.054-0.011,0.08-0.019s0.052-0.016,0.077-0.025c0.025-0.01,0.05-0.02,0.074-0.032
								c0.008-0.004,0.016-0.008,0.023-0.012s0.015-0.008,0.022-0.013s0.015-0.009,0.022-0.013s0.015-0.009,0.022-0.014
								c-0.007-0.002-0.015-0.004-0.021-0.006s-0.014-0.004-0.021-0.006c-0.007-0.002-0.014-0.004-0.021-0.006
								C567.374,452.9,567.367,452.898,567.36,452.896 M565.834,452.559c0.004,0.005,0.009,0.011,0.013,0.017
								c0.005,0.005,0.009,0.011,0.014,0.016c0.004,0.005,0.009,0.011,0.014,0.016s0.009,0.011,0.014,0.016
								c0.005,0.005,0.01,0.011,0.015,0.016s0.01,0.01,0.015,0.016s0.01,0.01,0.015,0.016c0.005,0.005,0.01,0.01,0.016,0.015
								c-0.001-0.001-0.001-0.001-0.001-0.002c-0.001,0-0.001-0.001-0.002-0.001c0,0,0-0.001-0.001-0.002
								c0,0-0.001-0.001-0.001-0.001c-0.007-0.008-0.015-0.016-0.022-0.024c-0.007-0.008-0.015-0.016-0.021-0.024
								c-0.008-0.008-0.015-0.017-0.021-0.025c-0.007-0.008-0.015-0.017-0.021-0.026c-0.001-0.002-0.003-0.003-0.005-0.005
								c-0.002-0.001-0.004-0.003-0.006-0.005c-0.001-0.001-0.003-0.003-0.005-0.005
								C565.838,452.562,565.836,452.561,565.834,452.559"/>
							<path d="M628.48,169.07c-0.89,4.166-1.784,8.351-2.683,12.556c-0.903,4.225-1.811,8.469-2.722,12.733
								c-0.916,4.285-1.837,8.589-2.762,12.914c-0.929,4.346-1.862,8.712-2.801,13.1c9.579,3.525,18.941,7.561,28.047,12.074
								c9.06,4.489,17.877,9.456,26.413,14.869c8.504,5.393,16.74,11.236,24.669,17.5c7.91,6.249,15.524,12.925,22.805,20.002
								c2.844-3.076,5.672-6.135,8.483-9.176c2.796-3.024,5.576-6.031,8.341-9.021c2.75-2.974,5.483-5.931,8.203-8.872
								c2.703-2.925,5.393-5.833,8.067-8.726c-8.844-8.663-18.098-16.853-27.709-24.537c-9.64-7.708-19.655-14.92-29.997-21.604
								c-10.389-6.714-21.124-12.905-32.154-18.535C651.581,178.681,640.164,173.575,628.48,169.07"/>
							<path d="M617.514,220.373c0.938-4.388,1.872-8.754,2.801-13.1c0.925-4.325,1.846-8.629,2.762-12.914
								c0.911-4.264,1.818-8.508,2.722-12.733c0.898-4.205,1.793-8.39,2.683-12.556c11.684,4.504,23.101,9.61,34.201,15.276
								c11.03,5.63,21.766,11.821,32.154,18.535c10.342,6.684,20.357,13.896,29.997,21.604c9.611,7.685,18.865,15.874,27.709,24.537
								c-2.675,2.893-5.364,5.801-8.067,8.726c-2.72,2.941-5.453,5.898-8.203,8.872c-2.765,2.99-5.545,5.997-8.341,9.021
								c-2.812,3.041-5.64,6.1-8.483,9.176c-7.28-7.077-14.895-13.753-22.805-20.002c-7.929-6.264-16.165-12.106-24.669-17.5
								c-8.536-5.413-17.354-10.38-26.413-14.869C636.455,227.934,627.093,223.898,617.514,220.373 M627.106,166.896
								c-0.054,0.017-0.104,0.039-0.15,0.066c-0.046,0.026-0.089,0.059-0.126,0.096s-0.068,0.08-0.095,0.128
								c-0.025,0.048-0.045,0.102-0.057,0.161c-0.927,4.309-1.858,8.639-2.795,12.99c-0.94,4.373-1.885,8.767-2.835,13.183
								c-0.954,4.438-1.912,8.897-2.876,13.379c-0.968,4.504-1.94,9.031-2.918,13.582c-0.026,0.12-0.031,0.251-0.014,0.384
								c0.017,0.133,0.055,0.267,0.116,0.394c0.061,0.126,0.144,0.244,0.248,0.344c0.105,0.1,0.233,0.182,0.384,0.237
								c9.688,3.521,19.158,7.564,28.367,12.097c9.16,4.509,18.075,9.508,26.7,14.966c8.593,5.437,16.91,11.337,24.909,17.673
								c7.98,6.32,15.655,13.083,22.98,20.262c0.021,0.019,0.04,0.038,0.06,0.055c0.02,0.018,0.04,0.034,0.06,0.05
								c0.021,0.016,0.04,0.031,0.061,0.045c0.02,0.014,0.04,0.028,0.061,0.041c0.068,0.058,0.14,0.109,0.215,0.151
								c0.075,0.042,0.152,0.074,0.229,0.096c0.078,0.021,0.157,0.031,0.235,0.028c0.078-0.003,0.154-0.019,0.229-0.05
								c0.022-0.01,0.045-0.021,0.067-0.033s0.044-0.026,0.066-0.042c0.021-0.016,0.043-0.033,0.063-0.051
								c0.021-0.019,0.042-0.039,0.062-0.061c2.944-3.194,5.871-6.368,8.78-9.524c2.893-3.137,5.768-6.257,8.627-9.358
								c2.842-3.083,5.668-6.149,8.479-9.197c2.794-3.031,5.572-6.045,8.335-9.042c0.071-0.079,0.129-0.176,0.169-0.284
								c0.04-0.108,0.063-0.226,0.062-0.348c0-0.122-0.022-0.247-0.072-0.369s-0.126-0.24-0.233-0.348
								c-9.003-8.867-18.427-17.249-28.22-25.11c-9.822-7.885-20.033-15.26-30.581-22.088c-10.597-6.86-21.553-13.18-32.815-18.917
								c-11.335-5.773-23-10.966-34.945-15.533c-0.068-0.026-0.14-0.047-0.211-0.063c-0.072-0.016-0.145-0.026-0.216-0.031
								c-0.071-0.004-0.143-0.004-0.21,0.003C627.233,166.864,627.168,166.877,627.106,166.896"/>
							<path d="M640.819,111.347c-0.468,2.186-0.937,4.376-1.406,6.573c-0.471,2.203-0.943,4.411-1.416,6.625
								c-0.475,2.22-0.951,4.445-1.428,6.675c-0.479,2.237-0.958,4.479-1.439,6.727c12.96,5.125,25.615,10.907,37.912,17.296
								c12.213,6.345,24.093,13.3,35.589,20.821c11.438,7.482,22.514,15.539,33.177,24.127
								c10.628,8.562,20.864,17.668,30.653,27.284c1.459-1.579,2.913-3.152,4.362-4.721c1.445-1.563,2.887-3.123,4.323-4.676
								c1.432-1.55,2.859-3.094,4.283-4.634c1.419-1.536,2.834-3.067,4.245-4.594c-10.614-10.389-21.712-20.242-33.231-29.52
								c-11.561-9.311-23.569-18.062-35.964-26.207c-12.464-8.191-25.343-15.788-38.573-22.739
								C668.573,123.379,654.857,117.016,640.819,111.347"/>
							<path d="M635.13,137.946c0.481-2.248,0.961-4.49,1.439-6.727c0.477-2.23,0.953-4.456,1.428-6.675
								c0.473-2.214,0.945-4.422,1.416-6.625c0.47-2.197,0.938-4.388,1.406-6.573c14.038,5.669,27.754,12.033,41.087,19.038
								c13.23,6.952,26.109,14.548,38.573,22.739c12.395,8.146,24.403,16.896,35.964,26.207c11.52,9.278,22.617,19.131,33.231,29.52
								c-1.411,1.527-2.826,3.058-4.245,4.594c-1.424,1.54-2.852,3.084-4.283,4.634c-1.437,1.554-2.878,3.113-4.323,4.676
								c-1.449,1.569-2.903,3.143-4.362,4.721c-9.789-9.616-20.025-18.723-30.653-27.284c-10.663-8.589-21.739-16.645-33.177-24.127
								c-11.496-7.521-23.376-14.477-35.589-20.821C660.745,148.854,648.09,143.071,635.13,137.946 M639.483,109.258
								c-0.051,0.014-0.099,0.033-0.143,0.057c-0.044,0.024-0.085,0.053-0.12,0.086s-0.066,0.073-0.091,0.117
								s-0.044,0.094-0.056,0.149c-0.499,2.323-1,4.652-1.502,6.987c-0.503,2.341-1.008,4.689-1.514,7.043
								c-0.508,2.36-1.017,4.727-1.527,7.101c-0.511,2.38-1.024,4.767-1.538,7.16c-0.024,0.11-0.028,0.23-0.011,0.354
								c0.017,0.123,0.055,0.248,0.113,0.366c0.058,0.118,0.138,0.23,0.237,0.326c0.101,0.096,0.223,0.177,0.365,0.233
								c13.07,5.125,25.834,10.918,38.233,17.331c12.313,6.368,24.29,13.357,35.874,20.924
								c11.523,7.528,22.681,15.642,33.412,24.301c10.697,8.631,20.992,17.821,30.827,27.535c0.078,0.076,0.167,0.146,0.26,0.206
								c0.094,0.06,0.192,0.11,0.291,0.146c0.1,0.036,0.199,0.059,0.295,0.063c0.096,0.005,0.188-0.007,0.271-0.04
								c0.017-0.007,0.034-0.015,0.051-0.023c0.017-0.009,0.032-0.019,0.048-0.029c0.016-0.011,0.031-0.022,0.046-0.035
								s0.028-0.026,0.042-0.041c1.55-1.682,3.094-3.357,4.632-5.028c1.534-1.664,3.063-3.323,4.587-4.977
								c1.519-1.648,3.032-3.291,4.54-4.929c1.504-1.632,3.003-3.259,4.496-4.882c0.012-0.012,0.022-0.024,0.032-0.037
								c0.011-0.012,0.02-0.025,0.029-0.038c0.009-0.013,0.018-0.026,0.025-0.04s0.016-0.027,0.022-0.041
								c0.055-0.066,0.097-0.144,0.121-0.229c0.025-0.085,0.033-0.177,0.021-0.274s-0.044-0.199-0.1-0.303
								c-0.055-0.104-0.134-0.209-0.239-0.314c-10.764-10.58-22.023-20.614-33.716-30.06c-11.734-9.48-23.928-18.388-36.518-26.674
								c-12.662-8.334-25.75-16.058-39.202-23.118c-13.557-7.114-27.51-13.569-41.797-19.305c-0.065-0.026-0.134-0.048-0.203-0.064
								c-0.068-0.017-0.138-0.029-0.207-0.035c-0.068-0.006-0.137-0.007-0.202-0.003
								C639.605,109.231,639.543,109.241,639.483,109.258"/>
							<path d="M586.266,366.539c-1.392,6.512-2.793,13.067-4.203,19.667c-1.421,6.643-2.851,13.331-4.29,20.063
								c-1.449,6.778-2.908,13.603-4.377,20.473c-1.479,6.917-2.968,13.882-4.467,20.896c4.752-5.14,9.464-10.238,14.139-15.294
								c4.637-5.015,9.235-9.99,13.798-14.925c4.525-4.895,9.015-9.751,13.469-14.569c4.419-4.779,8.804-9.521,13.153-14.226
								c-2.698-2.518-5.507-4.871-8.417-7.055c-2.912-2.186-5.928-4.204-9.036-6.048c-3.113-1.847-6.321-3.521-9.615-5.019
								C593.119,369.002,589.731,367.679,586.266,366.539"/>
							<path d="M568.929,447.637c1.499-7.013,2.987-13.978,4.467-20.896c1.469-6.871,2.928-13.695,4.377-20.473
								c1.439-6.733,2.869-13.42,4.29-20.063c1.41-6.599,2.812-13.154,4.203-19.667c3.466,1.141,6.854,2.463,10.153,3.963
								c3.294,1.498,6.502,3.172,9.615,5.019c3.108,1.845,6.124,3.862,9.036,6.048c2.91,2.184,5.719,4.537,8.417,7.055
								c-4.35,4.705-8.734,9.446-13.153,14.226c-4.454,4.817-8.943,9.674-13.469,14.569c-4.563,4.935-9.161,9.91-13.798,14.925
								C578.393,437.399,573.681,442.498,568.929,447.637 M584.757,364.04c-0.061,0.027-0.119,0.059-0.173,0.097
								c-0.053,0.038-0.103,0.082-0.146,0.131c-0.044,0.049-0.081,0.105-0.112,0.166c-0.03,0.062-0.055,0.129-0.07,0.203
								c-1.368,6.365-2.745,12.771-4.131,19.218c-1.395,6.489-2.799,13.02-4.212,19.593c-1.423,6.617-2.854,13.277-4.296,19.981
								c-1.451,6.749-2.912,13.542-4.383,20.381c0.018,0.458,0.036,0.915,0.055,1.372c0.019,0.458,0.037,0.916,0.057,1.374
								c0.019,0.458,0.037,0.917,0.056,1.375s0.037,0.917,0.056,1.376c0.6-0.553,1.245-1.069,1.921-1.557
								c0.675-0.488,1.38-0.949,2.1-1.392c0.72-0.442,1.454-0.866,2.188-1.282c0.732-0.415,1.464-0.821,2.18-1.228
								c4.343-4.713,8.652-9.391,12.931-14.033c4.245-4.608,8.46-9.181,12.644-13.72c4.152-4.505,8.274-8.978,12.366-13.417
								c4.063-4.407,8.096-8.782,12.1-13.125c0.091-0.099,0.168-0.219,0.225-0.351c0.057-0.132,0.093-0.276,0.102-0.423
								c0.01-0.147-0.009-0.296-0.061-0.439c-0.051-0.143-0.136-0.279-0.261-0.399c-2.893-2.758-5.908-5.334-9.038-7.719
								c-3.133-2.388-6.381-4.586-9.736-6.588c-3.36-2.005-6.829-3.813-10.397-5.418c-3.575-1.607-7.252-3.011-11.022-4.202
								c-0.076-0.025-0.156-0.043-0.236-0.055c-0.08-0.011-0.162-0.016-0.242-0.014c-0.081,0.002-0.16,0.011-0.237,0.027
								C584.902,363.986,584.827,364.009,584.757,364.04"/>
							<path d="M531.227,366.215c1.47,3.436,2.941,6.877,4.416,10.323c1.476,3.451,2.955,6.908,4.436,10.369
								c1.482,3.466,2.968,6.938,4.455,10.415c1.489,3.481,2.98,6.968,4.475,10.46c1.037,2.423,2.074,4.85,3.113,7.279
								c1.039,2.431,2.08,4.866,3.122,7.302c1.042,2.439,2.086,4.881,3.131,7.324c1.046,2.446,2.094,4.895,3.142,7.344
								c0.278,0.648,0.551,1.341,0.822,2.062c0.271,0.721,0.542,1.471,0.816,2.232c0.275,0.761,0.554,1.535,0.842,2.303
								c0.287,0.769,0.584,1.532,0.894,2.275c-0.286-7.187-0.57-14.335-0.853-21.445c-0.281-7.072-0.562-14.106-0.84-21.103
								c-0.277-6.96-0.553-13.883-0.827-20.77c-0.273-6.85-0.546-13.665-0.816-20.443c-2.586-0.084-5.157-0.064-7.711,0.062
								c-2.56,0.126-5.104,0.357-7.629,0.695c-2.532,0.338-5.046,0.783-7.541,1.334
								C536.171,364.786,533.688,365.446,531.227,366.215"/>
							<path d="M564.89,445.904c-0.31-0.743-0.606-1.506-0.894-2.275c-0.288-0.769-0.566-1.542-0.842-2.303
								c-0.274-0.761-0.545-1.511-0.816-2.232c-0.271-0.721-0.544-1.414-0.822-2.062c-1.048-2.45-2.096-4.898-3.142-7.344
								c-1.045-2.443-2.089-4.885-3.131-7.324c-1.042-2.437-2.083-4.871-3.122-7.302c-1.039-2.429-2.076-4.855-3.113-7.279
								c-1.494-3.492-2.985-6.979-4.475-10.46c-1.487-3.477-2.973-6.949-4.455-10.415c-1.48-3.461-2.96-6.918-4.436-10.369
								c-1.475-3.446-2.946-6.888-4.416-10.323c2.462-0.769,4.944-1.429,7.446-1.982c2.495-0.551,5.009-0.996,7.541-1.334
								c2.525-0.337,5.069-0.569,7.629-0.695c2.554-0.125,5.125-0.146,7.711-0.062c0.271,6.779,0.543,13.593,0.816,20.443
								c0.274,6.887,0.55,13.81,0.827,20.77c0.278,6.997,0.559,14.031,0.84,21.103C564.319,431.569,564.604,438.717,564.89,445.904
								 M528.983,364.393c-0.144,0.06-0.258,0.15-0.345,0.261s-0.146,0.241-0.182,0.381c-0.034,0.14-0.043,0.29-0.028,0.439
								c0.015,0.149,0.052,0.298,0.111,0.436c1.513,3.541,3.027,7.086,4.544,10.638c1.52,3.557,3.042,7.12,4.566,10.688
								c1.526,3.573,3.056,7.152,4.587,10.736c1.533,3.589,3.069,7.184,4.607,10.784c1.063,2.484,2.125,4.971,3.188,7.46
								c1.064,2.491,2.131,4.985,3.197,7.482c1.067,2.499,2.136,5.001,3.205,7.505c1.07,2.507,2.142,5.018,3.213,7.532
								c0.066,0.155,0.133,0.312,0.198,0.47s0.13,0.318,0.195,0.479c0.064,0.161,0.128,0.323,0.192,0.487
								c0.063,0.164,0.127,0.329,0.19,0.494c0.024,0.034,0.048,0.068,0.072,0.102c0.023,0.034,0.047,0.068,0.071,0.102
								c0.023,0.034,0.047,0.068,0.071,0.102c0.023,0.034,0.047,0.068,0.071,0.102c0.448,0.641,0.897,1.283,1.348,1.925
								c0.449,0.642,0.898,1.284,1.349,1.926c0.45,0.643,0.899,1.285,1.35,1.927c0.45,0.643,0.899,1.285,1.349,1.926
								c0.052,0.075,0.104,0.149,0.155,0.224c0.053,0.075,0.104,0.149,0.157,0.224c0.052,0.075,0.104,0.149,0.156,0.224
								c0.053,0.075,0.105,0.15,0.157,0.225c0.027-0.003,0.054-0.006,0.081-0.007c0.027-0.001,0.055-0.001,0.083,0
								c0.027,0,0.055,0.002,0.083,0.005c0.027,0.003,0.055,0.006,0.083,0.011c0.032-0.032,0.064-0.063,0.098-0.095
								c0.032-0.032,0.065-0.063,0.099-0.095c0.032-0.032,0.065-0.063,0.099-0.094s0.067-0.062,0.101-0.093
								c-0.019-0.458-0.037-0.917-0.056-1.376s-0.037-0.917-0.056-1.375c-0.02-0.458-0.038-0.916-0.057-1.374
								c-0.019-0.458-0.037-0.915-0.055-1.372c-0.288-7.086-0.575-14.134-0.86-21.146c-0.283-6.974-0.566-13.912-0.847-20.813
								c-0.28-6.865-0.559-13.694-0.836-20.488c-0.275-6.758-0.551-13.482-0.824-20.17c-0.005-0.146-0.035-0.3-0.09-0.447
								c-0.054-0.147-0.131-0.29-0.229-0.415c-0.098-0.125-0.217-0.232-0.354-0.311s-0.292-0.127-0.463-0.135
								c-2.875-0.128-5.731-0.134-8.567-0.015c-2.843,0.119-5.666,0.363-8.469,0.733c-2.811,0.371-5.601,0.869-8.368,1.494
								c-2.776,0.627-5.531,1.382-8.263,2.267c-0.007,0.002-0.014,0.004-0.021,0.006c-0.007,0.002-0.014,0.005-0.021,0.007
								s-0.014,0.005-0.02,0.008C528.996,364.387,528.989,364.39,528.983,364.393"/>
							<path d="M480.33,247.225c2.94,6.873,5.888,13.766,8.845,20.68c2.966,6.934,5.94,13.888,8.923,20.863
								c2.992,6.995,5.992,14.011,9.002,21.047c3.019,7.057,6.045,14.134,9.081,21.232c3.583-1.053,7.197-1.946,10.836-2.68
								c3.625-0.731,7.276-1.305,10.949-1.722c3.659-0.416,7.34-0.676,11.039-0.781c3.687-0.105,7.391-0.057,11.109,0.145
								c-0.288-7.233-0.575-14.426-0.86-21.579c-0.283-7.112-0.565-14.185-0.846-21.218c-0.278-6.994-0.556-13.949-0.832-20.866
								c-0.274-6.878-0.547-13.718-0.817-20.52c-6.36-0.63-12.726-0.997-19.082-1.098c-6.394-0.102-12.781,0.066-19.146,0.504
								c-6.405,0.441-12.791,1.156-19.141,2.149C492.997,244.381,486.638,245.661,480.33,247.225"/>
							<path d="M516.182,331.047c-3.036-7.098-6.063-14.175-9.081-21.232c-3.01-7.036-6.01-14.052-9.002-21.047
								c-2.983-6.975-5.958-13.929-8.923-20.863c-2.957-6.914-5.905-13.807-8.845-20.68c6.308-1.564,12.667-2.844,19.06-3.843
								c6.35-0.993,12.736-1.708,19.141-2.149c6.365-0.438,12.753-0.605,19.146-0.504c6.356,0.101,12.722,0.467,19.082,1.098
								c0.271,6.802,0.543,13.642,0.817,20.52c0.276,6.917,0.554,13.872,0.832,20.866c0.28,7.033,0.563,14.105,0.846,21.218
								c0.285,7.152,0.572,14.345,0.86,21.579c-3.719-0.202-7.423-0.25-11.109-0.145c-3.699,0.105-7.38,0.366-11.039,0.781
								c-3.673,0.417-7.324,0.991-10.949,1.722C523.379,329.102,519.765,329.995,516.182,331.047 M478.139,245.42
								c-0.147,0.049-0.265,0.128-0.355,0.226s-0.153,0.216-0.191,0.345s-0.049,0.267-0.038,0.406
								c0.012,0.139,0.047,0.279,0.104,0.411c3.014,7.058,6.038,14.136,9.071,21.236c3.042,7.122,6.094,14.265,9.155,21.429
								c3.07,7.187,6.15,14.394,9.24,21.623c3.099,7.251,6.207,14.523,9.325,21.817c0.066,0.158,0.166,0.289,0.286,0.393
								c0.121,0.104,0.263,0.183,0.413,0.235c0.151,0.053,0.313,0.081,0.472,0.084c0.159,0.003,0.316-0.017,0.462-0.06
								c3.677-1.125,7.389-2.076,11.131-2.854c3.727-0.775,7.483-1.38,11.264-1.814c3.766-0.433,7.556-0.696,11.364-0.792
								c3.795-0.095,7.609-0.024,11.438,0.214c0.029,0.002,0.057,0.003,0.085,0.003c0.027,0,0.055,0,0.081-0.002
								s0.053-0.004,0.078-0.007c0.025-0.003,0.051-0.007,0.075-0.012c0.035,0,0.069-0.002,0.103-0.006
								c0.034-0.003,0.067-0.008,0.1-0.014c0.033-0.006,0.064-0.014,0.097-0.023c0.031-0.009,0.062-0.02,0.092-0.032
								c0.076-0.031,0.146-0.071,0.21-0.122c0.063-0.051,0.118-0.111,0.163-0.182s0.079-0.152,0.102-0.244s0.032-0.194,0.027-0.308
								c-0.302-7.418-0.603-14.795-0.901-22.129c-0.297-7.292-0.593-14.542-0.887-21.75c-0.292-7.167-0.583-14.294-0.872-21.38
								c-0.287-7.046-0.572-14.052-0.856-21.018c-0.004-0.133-0.033-0.273-0.085-0.409c-0.052-0.136-0.126-0.268-0.22-0.386
								c-0.094-0.118-0.207-0.221-0.338-0.299c-0.131-0.079-0.278-0.132-0.441-0.15c-6.628-0.694-13.262-1.105-19.884-1.233
								c-6.664-0.128-13.321,0.031-19.955,0.48c-6.678,0.452-13.335,1.198-19.956,2.242c-6.668,1.051-13.301,2.403-19.883,4.06
								c-0.006,0.002-0.012,0.003-0.019,0.005c-0.006,0.002-0.012,0.003-0.018,0.005c-0.006,0.002-0.012,0.003-0.018,0.005
								C478.151,245.416,478.145,245.418,478.139,245.42"/>
							<path d="M410.864,84.815c1.095,2.56,2.19,5.122,3.287,7.688c1.098,2.569,2.197,5.14,3.297,7.714
								c1.102,2.577,2.205,5.157,3.309,7.74c1.105,2.586,2.212,5.174,3.321,7.766c10.793-1.846,21.625-3.225,32.464-4.145
								c10.718-0.91,21.45-1.374,32.165-1.398c10.603-0.024,21.198,0.381,31.754,1.208c10.454,0.819,20.88,2.053,31.249,3.695
								c-0.1-2.515-0.2-5.024-0.3-7.528c-0.101-2.498-0.2-4.991-0.3-7.479c-0.099-2.482-0.197-4.958-0.296-7.429
								c-0.099-2.466-0.196-4.926-0.293-7.381c-11.286-1.858-22.647-3.278-34.053-4.252c-11.526-0.984-23.107-1.515-34.707-1.584
								c-11.733-0.07-23.495,0.332-35.247,1.215C434.618,81.538,422.721,82.925,410.864,84.815"/>
							<path d="M424.079,115.723c-1.109-2.592-2.216-5.18-3.321-7.766c-1.104-2.583-2.208-5.163-3.309-7.74
								c-1.1-2.574-2.199-5.145-3.297-7.714c-1.097-2.565-2.192-5.128-3.287-7.688c11.857-1.891,23.754-3.278,35.652-4.171
								c11.752-0.883,23.514-1.285,35.247-1.215c11.6,0.069,23.18,0.6,34.707,1.584c11.405,0.975,22.767,2.394,34.053,4.252
								c0.097,2.455,0.194,4.916,0.293,7.381c0.099,2.471,0.197,4.947,0.296,7.429c0.1,2.488,0.199,4.98,0.3,7.479
								c0.1,2.504,0.2,5.013,0.3,7.528c-10.369-1.642-20.795-2.875-31.249-3.695c-10.557-0.827-21.151-1.232-31.754-1.208
								c-10.715,0.024-21.446,0.488-32.165,1.398C445.704,112.499,434.873,113.877,424.079,115.723 M408.744,83.036
								c-0.149,0.034-0.271,0.096-0.365,0.178c-0.094,0.082-0.161,0.184-0.203,0.297c-0.042,0.113-0.059,0.237-0.051,0.364
								c0.007,0.126,0.038,0.256,0.091,0.379c1.166,2.728,2.332,5.458,3.5,8.191c1.169,2.737,2.34,5.477,3.513,8.221
								c1.174,2.747,2.349,5.497,3.525,8.25c1.178,2.757,2.357,5.517,3.538,8.28c0.062,0.146,0.157,0.271,0.273,0.374
								s0.255,0.185,0.403,0.245c0.149,0.06,0.308,0.099,0.466,0.116c0.158,0.017,0.315,0.013,0.459-0.014
								c10.89-1.911,21.826-3.341,32.771-4.3c10.823-0.947,21.663-1.435,32.486-1.47c10.71-0.035,21.411,0.372,32.073,1.213
								c10.559,0.833,21.085,2.093,31.552,3.773c0.048,0.008,0.097,0.013,0.146,0.016s0.097,0.003,0.145,0.001
								s0.096-0.006,0.142-0.013c0.047-0.007,0.092-0.016,0.136-0.028c0.081-0.022,0.156-0.052,0.225-0.091
								c0.067-0.038,0.128-0.085,0.178-0.141c0.049-0.055,0.089-0.119,0.114-0.19c0.026-0.072,0.039-0.152,0.035-0.241
								c-0.108-2.673-0.218-5.339-0.326-7.999c-0.108-2.654-0.216-5.302-0.324-7.943c-0.107-2.636-0.215-5.265-0.321-7.889
								c-0.107-2.618-0.214-5.23-0.319-7.838c-0.001-0.023-0.003-0.046-0.006-0.069c-0.002-0.023-0.006-0.045-0.01-0.068
								c-0.004-0.022-0.009-0.044-0.015-0.066c-0.005-0.021-0.012-0.043-0.019-0.064c-0.014-0.1-0.044-0.2-0.091-0.295
								s-0.11-0.186-0.19-0.267s-0.178-0.152-0.292-0.21c-0.113-0.058-0.245-0.101-0.394-0.126
								c-11.53-1.934-23.138-3.414-34.789-4.434c-11.779-1.031-23.613-1.592-35.469-1.676c-11.995-0.084-24.021,0.32-36.041,1.225
								c-12.171,0.915-24.346,2.343-36.484,4.294c-0.005,0.001-0.01,0.001-0.016,0.002s-0.01,0.002-0.016,0.003
								s-0.01,0.002-0.016,0.003S408.749,83.034,408.744,83.036"/>
							<path d="M439.559,151.91c2.049,4.789,4.102,9.587,6.159,14.396c2.062,4.818,4.127,9.647,6.197,14.486
								c2.074,4.849,4.153,9.708,6.235,14.578c2.087,4.88,4.178,9.771,6.273,14.672c7.557-1.7,15.163-3.063,22.799-4.094
								c7.575-1.022,15.183-1.718,22.803-2.091c7.563-0.37,15.144-0.421,22.723-0.157c7.525,0.262,15.054,0.835,22.566,1.716
								c-0.191-4.771-0.382-9.524-0.571-14.259c-0.188-4.716-0.376-9.414-0.563-14.094c-0.186-4.662-0.371-9.306-0.556-13.932
								c-0.184-4.608-0.367-9.2-0.55-13.773c-9.279-1.33-18.601-2.287-27.938-2.866c-9.419-0.584-18.861-0.785-28.301-0.596
								c-9.527,0.191-19.058,0.778-28.563,1.769C458.67,148.665,449.09,150.078,439.559,151.91"/>
							<path d="M464.424,210.042c-2.095-4.901-4.187-9.792-6.273-14.672c-2.083-4.87-4.161-9.729-6.235-14.578
								c-2.07-4.839-4.136-9.667-6.197-14.486c-2.057-4.809-4.11-9.607-6.159-14.396c9.531-1.832,19.112-3.245,28.713-4.245
								c9.505-0.991,19.036-1.578,28.563-1.769c9.439-0.188,18.882,0.012,28.301,0.596c9.338,0.58,18.659,1.536,27.938,2.866
								c0.183,4.574,0.366,9.165,0.55,13.773c0.185,4.626,0.37,9.271,0.556,13.932c0.188,4.68,0.375,9.377,0.563,14.094
								c0.189,4.734,0.38,9.487,0.571,14.259c-7.513-0.881-15.041-1.455-22.566-1.716c-7.579-0.264-15.159-0.213-22.723,0.157
								c-7.62,0.373-15.228,1.068-22.803,2.091C479.587,206.978,471.98,208.341,464.424,210.042 M437.405,150.125
								c-0.146,0.04-0.264,0.108-0.354,0.196s-0.155,0.197-0.195,0.316c-0.04,0.119-0.055,0.25-0.046,0.381s0.04,0.266,0.092,0.393
								c2.121,4.963,4.247,9.937,6.376,14.921c2.135,4.995,4.273,10.001,6.417,15.018c2.148,5.028,4.301,10.067,6.458,15.118
								c2.162,5.062,4.328,10.134,6.499,15.218c0.067,0.151,0.165,0.278,0.285,0.381c0.119,0.103,0.259,0.183,0.409,0.239
								c0.15,0.057,0.31,0.09,0.469,0.101s0.316,0,0.461-0.032c7.65-1.769,15.357-3.187,23.098-4.258
								c7.678-1.063,15.392-1.786,23.12-2.171c7.67-0.383,15.358-0.435,23.044-0.158c7.631,0.275,15.264,0.874,22.878,1.794
								c0.028,0.003,0.057,0.006,0.084,0.007s0.054,0.002,0.08,0.002s0.053,0,0.078-0.002c0.025-0.002,0.05-0.004,0.074-0.007
								c0.032,0.001,0.063,0.001,0.095,0s0.063-0.004,0.093-0.008s0.06-0.009,0.089-0.015c0.029-0.007,0.058-0.014,0.085-0.023
								c0.073-0.024,0.141-0.057,0.201-0.099c0.06-0.042,0.112-0.094,0.155-0.156c0.043-0.062,0.076-0.133,0.098-0.215
								s0.031-0.174,0.027-0.277c-0.201-4.941-0.401-9.863-0.601-14.765c-0.199-4.881-0.396-9.744-0.594-14.586
								c-0.196-4.823-0.392-9.627-0.587-14.412c-0.193-4.766-0.387-9.512-0.579-14.24c-0.005-0.125-0.033-0.257-0.083-0.386
								c-0.051-0.129-0.122-0.255-0.212-0.368s-0.199-0.213-0.325-0.291c-0.125-0.077-0.268-0.132-0.423-0.153
								c-9.535-1.404-19.111-2.417-28.705-3.037c-9.68-0.625-19.383-0.847-29.083-0.663c-9.794,0.187-19.592,0.788-29.366,1.813
								c-9.875,1.034-19.731,2.5-29.539,4.405c-0.006,0.001-0.012,0.003-0.019,0.004c-0.006,0.001-0.012,0.003-0.018,0.004
								c-0.006,0.001-0.012,0.002-0.018,0.004C437.417,150.121,437.411,150.123,437.405,150.125"/>
							<path d="M326.464,110.286c-7.176,2.784-14.286,5.763-21.323,8.935c-7.099,3.2-14.125,6.598-21.068,10.191
								c-7.006,3.626-13.93,7.452-20.764,11.478c-6.896,4.063-13.7,8.328-20.403,12.795c2.336,2.14,4.672,4.278,7.008,6.417
								c2.335,2.138,4.669,4.274,7.003,6.411c2.333,2.136,4.665,4.271,6.996,6.405c2.33,2.134,4.659,4.267,6.986,6.399
								c5.978-4.201,12.055-8.219,18.224-12.052c6.119-3.801,12.328-7.421,18.621-10.858c6.241-3.409,12.565-6.639,18.964-9.688
								c6.348-3.024,12.77-5.871,19.259-8.539c-1.629-2.331-3.257-4.661-4.885-6.989c-1.627-2.327-3.253-4.653-4.879-6.978
								c-1.625-2.324-3.25-4.646-4.873-6.968C329.707,114.925,328.085,112.604,326.464,110.286"/>
							<path d="M242.906,153.685c6.704-4.468,13.508-8.733,20.403-12.795c6.833-4.025,13.757-7.852,20.764-11.478
								c6.943-3.594,13.969-6.991,21.068-10.191c7.037-3.172,14.147-6.15,21.323-8.935c1.621,2.319,3.243,4.639,4.866,6.96
								c1.624,2.322,3.248,4.645,4.873,6.968c1.626,2.325,3.252,4.651,4.879,6.978c1.628,2.328,3.256,4.658,4.885,6.989
								c-6.489,2.668-12.911,5.515-19.259,8.539c-6.399,3.049-12.723,6.278-18.964,9.688c-6.293,3.437-12.502,7.057-18.621,10.858
								c-6.169,3.833-12.247,7.851-18.224,12.052c-2.328-2.132-4.656-4.265-6.986-6.399c-2.331-2.134-4.663-4.27-6.996-6.405
								c-2.333-2.137-4.668-4.273-7.003-6.411C247.579,157.963,245.242,155.824,242.906,153.685 M326.307,107.891
								c-0.021,0.005-0.042,0.01-0.062,0.015c-0.021,0.006-0.041,0.011-0.06,0.018c-0.02,0.006-0.039,0.012-0.058,0.019
								c-0.019,0.007-0.038,0.014-0.056,0.021c-7.397,2.833-14.724,5.87-21.973,9.112c-7.316,3.271-14.553,6.752-21.703,10.44
								c-7.217,3.722-14.346,7.657-21.378,11.802c-7.099,4.185-14.101,8.585-20.995,13.2c-0.13,0.087-0.249,0.196-0.344,0.319
								s-0.169,0.26-0.208,0.402c-0.039,0.143-0.043,0.29-0.002,0.435s0.127,0.287,0.271,0.418c2.507,2.293,5.012,4.585,7.516,6.877
								c2.502,2.291,5.004,4.58,7.504,6.869c2.499,2.288,4.998,4.575,7.495,6.861c2.497,2.285,4.993,4.569,7.488,6.852
								c0.1,0.092,0.216,0.179,0.345,0.255c0.128,0.076,0.268,0.141,0.412,0.19c0.145,0.049,0.294,0.082,0.443,0.093
								s0.297,0.001,0.438-0.036c0.03-0.008,0.059-0.017,0.088-0.027c0.029-0.01,0.058-0.021,0.085-0.035
								c0.028-0.013,0.056-0.027,0.083-0.042s0.054-0.032,0.081-0.05c6.112-4.337,12.329-8.48,18.643-12.428
								c6.261-3.915,12.617-7.638,19.061-11.168c6.39-3.501,12.866-6.813,19.421-9.936c6.5-3.097,13.079-6.007,19.728-8.73
								c0.165-0.068,0.289-0.153,0.376-0.25c0.087-0.096,0.138-0.204,0.157-0.317c0.02-0.113,0.008-0.231-0.029-0.35
								s-0.101-0.236-0.185-0.348c-0.008-0.019-0.017-0.037-0.026-0.056c-0.009-0.019-0.02-0.038-0.03-0.056
								c-0.01-0.019-0.021-0.038-0.034-0.057c-0.012-0.019-0.024-0.038-0.038-0.057c-1.741-2.491-3.481-4.98-5.222-7.468
								c-1.74-2.487-3.479-4.972-5.217-7.456c-1.738-2.483-3.475-4.964-5.211-7.445c-1.736-2.479-3.471-4.958-5.205-7.434
								c-0.086-0.125-0.195-0.224-0.319-0.3c-0.124-0.075-0.263-0.128-0.407-0.161s-0.295-0.046-0.444-0.043
								S326.442,107.86,326.307,107.891"/>
							<path d="M434.405,264.62c-3.584,1.876-7.113,3.846-10.585,5.911c-3.488,2.075-6.92,4.245-10.292,6.51
								c-3.389,2.276-6.719,4.649-9.989,7.118c-3.285,2.481-6.51,5.059-9.671,7.734c6.175,5.653,12.343,11.3,18.504,16.941
								c6.155,5.635,12.303,11.265,18.446,16.888c6.136,5.618,12.266,11.23,18.39,16.836c6.118,5.601,12.229,11.196,18.336,16.785
								c0.833-0.783,1.673-1.555,2.522-2.316c0.848-0.76,1.704-1.508,2.568-2.245c0.863-0.736,1.734-1.461,2.615-2.175
								c0.879-0.713,1.768-1.416,2.666-2.108c0.914-0.68,1.833-1.347,2.76-2.002c0.925-0.654,1.857-1.295,2.797-1.925
								c0.938-0.629,1.883-1.246,2.836-1.852c0.952-0.605,1.911-1.198,2.878-1.781c-4.594-6.566-9.182-13.125-13.765-19.678
								c-4.578-6.545-9.15-13.083-13.717-19.613c-4.563-6.523-9.12-13.039-13.672-19.547
								C443.484,277.6,438.942,271.106,434.405,264.62"/>
							<path d="M393.867,291.894c3.162-2.675,6.386-5.253,9.671-7.734c3.27-2.469,6.6-4.842,9.989-7.118
								c3.373-2.265,6.804-4.435,10.292-6.51c3.472-2.065,7.001-4.035,10.585-5.911c4.537,6.486,9.08,12.979,13.626,19.481
								c4.552,6.508,9.109,13.024,13.672,19.547c4.567,6.53,9.14,13.068,13.717,19.613c4.583,6.552,9.171,13.111,13.765,19.678
								c-0.967,0.583-1.927,1.176-2.878,1.781c-0.953,0.605-1.898,1.223-2.836,1.852c-0.939,0.63-1.872,1.271-2.797,1.925
								c-0.927,0.655-1.846,1.322-2.76,2.002c-0.898,0.692-1.787,1.395-2.666,2.108c-0.881,0.714-1.752,1.439-2.615,2.175
								c-0.864,0.737-1.72,1.485-2.568,2.245c-0.849,0.761-1.689,1.533-2.522,2.316c-6.106-5.589-12.218-11.184-18.336-16.785
								c-6.124-5.606-12.254-11.218-18.39-16.836c-6.143-5.624-12.291-11.253-18.446-16.888
								C406.21,303.193,400.042,297.546,393.867,291.894 M434.143,262.049c-0.02,0.007-0.04,0.014-0.059,0.021
								c-0.02,0.007-0.039,0.015-0.058,0.022c-0.019,0.008-0.037,0.016-0.055,0.024s-0.036,0.017-0.053,0.026
								c-3.794,1.951-7.526,4.006-11.196,6.167c-3.688,2.171-7.312,4.448-10.872,6.832c-3.578,2.395-7.09,4.898-10.536,7.508
								c-3.463,2.623-6.859,5.354-10.187,8.195c-0.114,0.1-0.217,0.222-0.297,0.357c-0.081,0.134-0.141,0.282-0.168,0.433
								c-0.028,0.151-0.023,0.305,0.022,0.453c0.046,0.148,0.134,0.292,0.274,0.419c6.345,5.807,12.683,11.607,19.013,17.402
								c6.324,5.788,12.641,11.57,18.951,17.346c6.304,5.77,12.601,11.534,18.892,17.291c6.285,5.752,12.563,11.497,18.835,17.237
								c0.099,0.09,0.211,0.172,0.333,0.243c0.122,0.07,0.253,0.128,0.387,0.169c0.134,0.041,0.271,0.064,0.406,0.064
								c0.134,0.001,0.266-0.021,0.39-0.071c0.027-0.011,0.053-0.022,0.079-0.036c0.026-0.013,0.051-0.028,0.076-0.044
								c0.025-0.017,0.05-0.034,0.074-0.053s0.047-0.04,0.07-0.062c0.89-0.853,1.789-1.693,2.698-2.52
								c0.907-0.825,1.825-1.638,2.752-2.438c0.926-0.798,1.863-1.584,2.811-2.358c0.946-0.772,1.904-1.533,2.873-2.281
								c0.979-0.732,1.968-1.451,2.964-2.155c0.996-0.703,1.999-1.392,3.012-2.067c1.011-0.674,2.031-1.335,3.059-1.982
								c1.027-0.647,2.063-1.28,3.106-1.9c0.15-0.09,0.253-0.208,0.317-0.342c0.064-0.134,0.09-0.283,0.086-0.437
								s-0.037-0.312-0.092-0.462c-0.054-0.151-0.129-0.294-0.217-0.418c-4.707-6.726-9.408-13.445-14.103-20.155
								c-4.69-6.703-9.375-13.398-14.054-20.086c-4.674-6.681-9.343-13.354-14.006-20.019c-4.659-6.658-9.313-13.309-13.962-19.953
								c-0.09-0.128-0.201-0.227-0.324-0.299c-0.124-0.072-0.26-0.118-0.402-0.143s-0.288-0.028-0.431-0.015
								S434.271,262.006,434.143,262.049"/>
							<path d="M511.807,375.283c-1.287,0.833-2.55,1.694-3.789,2.584c-1.242,0.892-2.46,1.813-3.654,2.763
								c-1.197,0.952-2.372,1.934-3.524,2.947c-1.154,1.015-2.286,2.061-3.396,3.139c5.207,4.768,10.41,9.532,15.609,14.292
								c5.194,4.756,10.385,9.508,15.57,14.256c5.182,4.744,10.359,9.484,15.532,14.22c5.168,4.731,10.331,9.459,15.49,14.183
								c-1.622-2.321-3.295-4.712-4.989-7.135c-1.694-2.421-3.41-4.873-5.121-7.316c-1.71-2.442-3.413-4.876-5.083-7.262
								c-1.67-2.384-3.305-4.721-4.879-6.97c-2.32-3.32-4.64-6.638-6.958-9.954c-2.316-3.313-4.632-6.625-6.946-9.934
								c-2.313-3.307-4.626-6.612-6.937-9.915C516.423,381.88,514.114,378.581,511.807,375.283"/>
							<path d="M565.942,452.679c0,0,0.001,0.001,0.001,0.001c0.001,0,0.001,0.001,0.001,0.002c0.001,0,0.001,0.001,0.002,0.001
								c0,0,0,0.001,0.001,0.002c0.08,0.102,0.167,0.184,0.256,0.247c0.09,0.063,0.183,0.108,0.276,0.137s0.188,0.042,0.283,0.039
								c0.094-0.002,0.188-0.019,0.277-0.048c0.012-0.004,0.023-0.008,0.035-0.012c0.012-0.004,0.023-0.008,0.035-0.013
								c0.012-0.005,0.022-0.009,0.034-0.015c0.012-0.005,0.022-0.01,0.034-0.015c0.016-0.008,0.031-0.016,0.047-0.024
								s0.03-0.017,0.046-0.026c0.015-0.009,0.03-0.019,0.045-0.028s0.029-0.02,0.044-0.031v0c-0.002,0.001-0.004,0.002-0.005,0.003
								c-0.002,0.001-0.004,0.002-0.006,0.002c-0.002,0.001-0.003,0.002-0.005,0.003c-0.002,0-0.003,0.001-0.005,0.002
								c-0.11,0.053-0.228,0.091-0.349,0.112c-0.12,0.021-0.244,0.024-0.367,0.008c-0.122-0.016-0.243-0.052-0.358-0.109
								S566.041,452.781,565.942,452.679 M497.444,386.717c1.11-1.078,2.242-2.124,3.396-3.139c1.152-1.013,2.327-1.995,3.524-2.947
								c1.194-0.951,2.412-1.872,3.654-2.763c1.239-0.89,2.502-1.751,3.789-2.584c2.308,3.298,4.616,6.597,6.926,9.898
								c2.311,3.303,4.623,6.608,6.937,9.915c2.314,3.309,4.63,6.621,6.946,9.934c2.318,3.315,4.638,6.633,6.958,9.954
								c1.574,2.249,3.209,4.585,4.879,6.97c1.67,2.386,3.373,4.819,5.083,7.262c1.711,2.443,3.427,4.896,5.121,7.316
								c1.694,2.422,3.367,4.814,4.989,7.135c-5.159-4.724-10.322-9.451-15.49-14.183c-5.173-4.736-10.351-9.476-15.532-14.22
								c-5.186-4.748-10.376-9.5-15.57-14.256C507.854,396.249,502.65,391.485,497.444,386.717 M511.46,372.578
								c-0.019,0.008-0.037,0.016-0.056,0.024c-0.018,0.009-0.036,0.018-0.054,0.026s-0.034,0.018-0.052,0.028
								c-0.017,0.009-0.033,0.019-0.049,0.029c-1.489,0.932-2.946,1.9-4.371,2.906c-1.429,1.007-2.826,2.053-4.193,3.137
								c-1.371,1.087-2.711,2.213-4.024,3.38c-1.315,1.169-2.602,2.38-3.861,3.633c-0.107,0.106-0.201,0.235-0.273,0.377
								c-0.072,0.141-0.122,0.295-0.141,0.452c-0.019,0.156-0.008,0.315,0.042,0.466c0.051,0.151,0.14,0.294,0.278,0.42
								c5.958,5.454,11.912,10.903,17.86,16.347c5.941,5.438,11.878,10.872,17.809,16.299c5.925,5.423,11.844,10.84,17.756,16.252
								c5.907,5.407,11.809,10.808,17.703,16.204c0.002,0.002,0.004,0.003,0.006,0.005c0.002,0.001,0.004,0.003,0.005,0.005
								c0.002,0.001,0.004,0.003,0.006,0.005c0.002,0.002,0.004,0.003,0.005,0.005c-0.012-0.016-0.023-0.031-0.034-0.047
								c-0.012-0.016-0.022-0.033-0.034-0.049c-0.011-0.017-0.021-0.034-0.032-0.052s-0.021-0.036-0.031-0.054
								c-0.077-0.048-0.147-0.104-0.21-0.168c-0.063-0.063-0.118-0.133-0.165-0.208c-0.047-0.075-0.087-0.155-0.118-0.238
								c-0.032-0.083-0.056-0.169-0.072-0.257c-0.007-0.026-0.014-0.052-0.021-0.079c-0.006-0.026-0.011-0.053-0.016-0.079
								c-0.004-0.027-0.008-0.053-0.011-0.08s-0.005-0.053-0.006-0.079l-0.013-0.156c-0.003-0.113,0.012-0.22,0.043-0.32
								c0.031-0.1,0.078-0.193,0.138-0.277c0.059-0.085,0.131-0.161,0.212-0.228s0.171-0.124,0.267-0.17
								c0.034-0.017,0.069-0.032,0.105-0.045s0.072-0.026,0.109-0.036c0.037-0.011,0.074-0.02,0.111-0.027
								c0.038-0.007,0.076-0.013,0.114-0.017c0.016-0.01,0.032-0.021,0.049-0.031s0.034-0.021,0.051-0.03
								c0.017-0.01,0.033-0.021,0.05-0.03c0.018-0.01,0.034-0.02,0.051-0.03c0.006-0.003,0.012-0.007,0.018-0.01
								s0.012-0.007,0.018-0.01c0.006-0.003,0.013-0.006,0.019-0.009c0.006-0.003,0.012-0.006,0.018-0.009
								c0.021-0.01,0.043-0.019,0.064-0.027s0.044-0.016,0.066-0.022s0.045-0.012,0.067-0.017c0.023-0.004,0.046-0.008,0.069-0.011
								c-0.052-0.075-0.104-0.149-0.157-0.225c-0.052-0.075-0.104-0.149-0.156-0.224c-0.053-0.075-0.104-0.149-0.157-0.224
								c-0.052-0.075-0.104-0.149-0.155-0.224c-0.449-0.642-0.898-1.284-1.349-1.926c-0.45-0.642-0.899-1.285-1.35-1.927
								c-0.45-0.642-0.899-1.285-1.349-1.926c-0.45-0.642-0.899-1.284-1.348-1.925c-0.024-0.034-0.048-0.068-0.071-0.102
								c-0.024-0.034-0.048-0.068-0.071-0.102c-0.024-0.034-0.048-0.068-0.071-0.102c-0.024-0.034-0.048-0.068-0.072-0.102
								c-1.543-2.206-3.085-4.41-4.626-6.613s-3.082-4.404-4.621-6.605c-1.54-2.2-3.078-4.399-4.616-6.598s-3.075-4.396-4.611-6.592
								c-2.421-3.459-4.839-6.916-7.256-10.37c-2.415-3.453-4.829-6.903-7.242-10.351c-2.411-3.446-4.82-6.89-7.229-10.333
								c-2.407-3.441-4.813-6.879-7.218-10.317c-0.091-0.129-0.202-0.226-0.325-0.295c-0.123-0.07-0.258-0.111-0.397-0.131
								c-0.139-0.019-0.282-0.016-0.422,0.006S511.584,372.526,511.46,372.578"/>
							<path d="M565.158,451.506c0.017,0.087,0.04,0.174,0.072,0.257c0.031,0.083,0.071,0.163,0.118,0.238
								c0.047,0.075,0.103,0.145,0.165,0.208c0.063,0.063,0.133,0.12,0.21,0.168c-0.001-0.003-0.003-0.006-0.005-0.01
								c-0.002-0.003-0.004-0.006-0.005-0.01c-0.002-0.003-0.004-0.006-0.006-0.01c-0.002-0.003-0.003-0.006-0.005-0.01
								c-0.001-0.001-0.001-0.002-0.002-0.003c-0.001-0.001-0.001-0.002-0.002-0.004c0-0.001-0.001-0.002-0.002-0.004
								c0-0.001-0.001-0.002-0.001-0.004c-0.063-0.051-0.122-0.108-0.178-0.17s-0.106-0.128-0.152-0.198
								c-0.046-0.069-0.086-0.143-0.121-0.218S565.181,451.584,565.158,451.506"/>
							<path d="M565.696,452.323c0,0.001,0.001,0.002,0.001,0.004c0.001,0.001,0.002,0.002,0.002,0.004
								c0.001,0.001,0.001,0.002,0.002,0.004c0.001,0.001,0.001,0.002,0.002,0.003c0.002,0.003,0.003,0.007,0.005,0.01
								c0.002,0.003,0.004,0.007,0.006,0.01c0.001,0.003,0.003,0.007,0.005,0.01c0.002,0.003,0.004,0.006,0.005,0.01
								c0.011,0.019,0.021,0.037,0.031,0.054s0.021,0.035,0.032,0.052c0.012,0.017,0.022,0.033,0.034,0.049
								c0.011,0.016,0.022,0.031,0.034,0.047c0.007,0.009,0.015,0.018,0.021,0.026c0.007,0.009,0.014,0.017,0.021,0.025
								c0.007,0.008,0.015,0.017,0.021,0.024c0.008,0.008,0.016,0.016,0.022,0.024c0.099,0.103,0.208,0.182,0.323,0.239
								s0.236,0.093,0.358,0.109c0.123,0.016,0.247,0.013,0.367-0.008c0.121-0.021,0.238-0.059,0.349-0.112
								c0.002-0.001,0.003-0.002,0.005-0.002c0.002-0.001,0.003-0.002,0.005-0.003c0.002,0,0.004-0.001,0.006-0.002
								c0.001-0.001,0.003-0.002,0.005-0.003c-0.02-0.006-0.039-0.012-0.059-0.018c-0.021-0.006-0.04-0.012-0.059-0.018
								c-0.02-0.006-0.039-0.012-0.059-0.018c-0.02-0.006-0.039-0.012-0.059-0.018c-0.045-0.001-0.09-0.006-0.134-0.014
								c-0.045-0.008-0.089-0.019-0.132-0.032c-0.044-0.014-0.086-0.03-0.128-0.049c-0.043-0.019-0.084-0.041-0.124-0.065
								c-0.001,0-0.002,0-0.002,0c-0.001,0-0.002,0-0.002-0.001c-0.001,0-0.002,0-0.003,0c0,0-0.001,0-0.002-0.001
								c-0.009-0.002-0.018-0.004-0.027-0.006c-0.009-0.002-0.018-0.004-0.026-0.007s-0.018-0.005-0.026-0.007
								s-0.018-0.005-0.026-0.008c-0.012-0.003-0.023-0.007-0.036-0.01c-0.012-0.004-0.024-0.007-0.036-0.011
								c-0.013-0.004-0.024-0.007-0.037-0.011c-0.013-0.004-0.024-0.007-0.037-0.011c-0.059-0.003-0.116-0.011-0.174-0.025
								c-0.057-0.014-0.113-0.032-0.168-0.055c-0.055-0.023-0.107-0.051-0.159-0.083S565.744,452.362,565.696,452.323"/>
							<path d="M565.752,450.039c-0.096,0.046-0.186,0.103-0.267,0.17s-0.153,0.143-0.212,0.228
								c-0.06,0.084-0.106,0.178-0.138,0.277c-0.031,0.1-0.046,0.207-0.043,0.32l0.013,0.156c0.001,0.026,0.003,0.053,0.006,0.079
								s0.007,0.053,0.011,0.08c0.005,0.026,0.01,0.053,0.016,0.079c0.007,0.027,0.014,0.053,0.021,0.079
								c0.022,0.078,0.052,0.156,0.087,0.231s0.075,0.148,0.121,0.218c0.046,0.07,0.097,0.136,0.152,0.198s0.114,0.119,0.178,0.17
								c0.048,0.039,0.098,0.075,0.149,0.106s0.104,0.059,0.159,0.083c0.055,0.023,0.111,0.042,0.168,0.055
								c0.058,0.014,0.115,0.022,0.174,0.025c-0.068-0.02-0.138-0.041-0.205-0.065c-0.067-0.024-0.135-0.051-0.198-0.083
								c-0.064-0.032-0.126-0.068-0.184-0.111c-0.058-0.043-0.111-0.093-0.16-0.151c-0.006-0.006-0.012-0.012-0.017-0.019
								c-0.006-0.006-0.011-0.013-0.017-0.019c-0.005-0.007-0.011-0.013-0.016-0.02s-0.01-0.013-0.016-0.02l-0.021-0.041
								c-0.128-0.179-0.217-0.361-0.267-0.541c-0.051-0.18-0.063-0.357-0.036-0.525c0.026-0.168,0.091-0.328,0.194-0.473
								c0.103-0.145,0.243-0.274,0.422-0.383c0.03-0.019,0.06-0.038,0.09-0.058c0.029-0.02,0.06-0.039,0.09-0.058
								c0.031-0.02,0.062-0.039,0.092-0.058s0.062-0.039,0.093-0.058c-0.038,0.004-0.076,0.01-0.114,0.017
								c-0.037,0.008-0.074,0.017-0.111,0.027c-0.037,0.01-0.073,0.022-0.109,0.036S565.786,450.022,565.752,450.039"/>
							<path d="M370.606,173.409c-5.65,2.493-11.232,5.139-16.742,7.938c-5.549,2.819-11.025,5.794-16.425,8.923
								c-5.438,3.152-10.798,6.462-16.076,9.929c-5.316,3.492-10.549,7.143-15.693,10.953c4.549,4.162,9.095,8.322,13.637,12.479
								c4.539,4.153,9.073,8.304,13.604,12.451c4.528,4.145,9.052,8.286,13.573,12.424c4.517,4.136,9.031,8.268,13.542,12.397
								c1.944-1.568,3.907-3.108,5.887-4.619c1.975-1.507,3.967-2.985,5.978-4.434c2.005-1.445,4.028-2.862,6.069-4.25
								c2.036-1.384,4.089-2.74,6.162-4.068c2.083-1.31,4.18-2.59,6.291-3.84c2.105-1.246,4.225-2.463,6.359-3.651
								c2.128-1.184,4.27-2.339,6.427-3.464c2.151-1.123,4.316-2.217,6.497-3.282c-3.27-4.676-6.538-9.35-9.804-14.02
								c-3.263-4.666-6.524-9.329-9.784-13.988c-3.256-4.655-6.51-9.307-9.762-13.956
								C377.098,182.688,373.851,178.047,370.606,173.409"/>
							<path d="M305.67,211.152c5.144-3.81,10.377-7.461,15.693-10.953c5.277-3.466,10.638-6.776,16.076-9.929
								c5.399-3.129,10.876-6.104,16.425-8.923c5.51-2.799,11.092-5.445,16.742-7.938c3.245,4.638,6.492,9.279,9.741,13.923
								c3.252,4.648,6.506,9.3,9.762,13.956c3.259,4.659,6.521,9.322,9.784,13.988c3.266,4.67,6.534,9.343,9.804,14.02
								c-2.18,1.065-4.346,2.159-6.497,3.282c-2.157,1.125-4.299,2.28-6.427,3.464c-2.134,1.188-4.254,2.405-6.359,3.651
								c-2.111,1.25-4.208,2.53-6.291,3.84c-2.073,1.328-4.126,2.684-6.162,4.068c-2.042,1.388-4.064,2.805-6.069,4.25
								c-2.011,1.449-4.003,2.927-5.978,4.434c-1.98,1.511-3.943,3.05-5.887,4.619c-4.511-4.129-9.025-8.262-13.542-12.397
								c-4.521-4.138-9.045-8.28-13.573-12.424c-4.531-4.147-9.066-8.298-13.604-12.451
								C314.766,219.474,310.22,215.314,305.67,211.152 M370.409,170.941c-0.021,0.005-0.041,0.011-0.061,0.018
								s-0.04,0.013-0.059,0.02c-0.02,0.007-0.039,0.014-0.058,0.021c-0.019,0.007-0.038,0.015-0.056,0.023
								c-5.866,2.551-11.659,5.267-17.375,8.146c-5.758,2.901-11.437,5.969-17.033,9.203c-5.639,3.258-11.193,6.686-16.659,10.282
								c-5.507,3.624-10.925,7.418-16.248,11.384c-0.126,0.092-0.239,0.207-0.33,0.334s-0.157,0.268-0.191,0.414
								s-0.034,0.296,0.01,0.442s0.132,0.289,0.274,0.418c4.717,4.319,9.431,8.633,14.14,12.945
								c4.706,4.308,9.409,8.612,14.107,12.913c4.695,4.297,9.386,8.591,14.074,12.881c4.684,4.287,9.365,8.571,14.042,12.852
								c0.099,0.092,0.213,0.177,0.339,0.251s0.261,0.136,0.401,0.182c0.14,0.045,0.284,0.074,0.427,0.08s0.283-0.009,0.417-0.052
								c0.029-0.009,0.057-0.02,0.085-0.032c0.028-0.012,0.056-0.025,0.083-0.04c0.027-0.015,0.054-0.031,0.08-0.048
								c0.026-0.017,0.052-0.036,0.077-0.057c2.008-1.638,4.035-3.244,6.082-4.82c2.04-1.571,4.1-3.111,6.178-4.621
								c2.073-1.505,4.165-2.979,6.277-4.423c2.106-1.44,4.231-2.849,6.376-4.228c2.153-1.361,4.322-2.689,6.506-3.984
								c2.178-1.292,4.372-2.551,6.581-3.778c2.203-1.224,4.421-2.416,6.655-3.577c2.228-1.158,4.471-2.285,6.729-3.382
								c0.158-0.076,0.268-0.181,0.338-0.303c0.07-0.122,0.102-0.262,0.103-0.407c0.001-0.146-0.029-0.297-0.081-0.443
								c-0.052-0.146-0.125-0.287-0.212-0.411c-3.382-4.836-6.763-9.668-10.141-14.497c-3.375-4.825-6.749-9.646-10.119-14.463
								c-3.368-4.813-6.734-9.623-10.097-14.429c-3.36-4.802-6.718-9.6-10.074-14.394c-0.088-0.126-0.199-0.225-0.323-0.299
								s-0.262-0.124-0.405-0.154c-0.143-0.029-0.292-0.039-0.438-0.032C370.686,170.881,370.542,170.905,370.409,170.941"/>
							<path d="M566.464,449.752c-0.006,0.003-0.012,0.006-0.018,0.009c-0.006,0.003-0.013,0.006-0.019,0.009
								c-0.006,0.003-0.012,0.007-0.018,0.01s-0.012,0.007-0.018,0.01c-0.017,0.01-0.033,0.02-0.051,0.03
								c-0.017,0.01-0.033,0.02-0.05,0.03c-0.017,0.01-0.034,0.02-0.051,0.03s-0.033,0.021-0.049,0.031
								c-0.031,0.019-0.063,0.039-0.093,0.058s-0.061,0.039-0.092,0.058c-0.03,0.019-0.061,0.038-0.09,0.058
								c-0.03,0.02-0.06,0.039-0.09,0.058c-0.179,0.109-0.319,0.239-0.422,0.383c-0.104,0.145-0.168,0.304-0.194,0.473
								c-0.026,0.168-0.015,0.345,0.036,0.525c0.05,0.18,0.139,0.362,0.267,0.541l0.021,0.041c0.006,0.006,0.011,0.013,0.016,0.02
								s0.011,0.013,0.016,0.02c0.006,0.006,0.011,0.012,0.017,0.019c0.005,0.006,0.011,0.012,0.017,0.019
								c-0.004-0.005-0.008-0.011-0.013-0.016c-0.004-0.005-0.008-0.01-0.012-0.016s-0.008-0.011-0.012-0.016
								s-0.008-0.011-0.012-0.016c-0.122-0.175-0.205-0.363-0.25-0.551s-0.053-0.377-0.024-0.554
								c0.027-0.177,0.091-0.341,0.188-0.481c0.097-0.14,0.228-0.255,0.391-0.333c0.044-0.021,0.09-0.04,0.138-0.055
								c0.048-0.016,0.099-0.028,0.151-0.038s0.107-0.016,0.164-0.019s0.116-0.002,0.177,0.001c0.015,0.001,0.028,0.001,0.042,0.002
								c0.015,0,0.028,0.001,0.043,0.001c0.014,0,0.028,0.001,0.043,0.002c0.014,0,0.028,0.001,0.043,0.002
								c0.033-0.035,0.066-0.07,0.1-0.104s0.066-0.069,0.101-0.104c0.033-0.035,0.067-0.069,0.102-0.103s0.068-0.068,0.103-0.102
								c-0.028-0.005-0.056-0.008-0.083-0.011c-0.028-0.003-0.056-0.005-0.083-0.005c-0.028-0.001-0.056,0-0.083,0
								c-0.027,0.001-0.054,0.004-0.081,0.007c-0.023,0.003-0.046,0.007-0.069,0.011c-0.022,0.005-0.045,0.011-0.067,0.017
								s-0.045,0.014-0.066,0.022S566.485,449.742,566.464,449.752"/>
							<path d="M846.914,277.804c-1.758,1.096-3.521,2.195-5.288,3.297c-1.773,1.106-3.552,2.216-5.336,3.329
								c-1.789,1.116-3.583,2.235-5.383,3.358c-1.806,1.126-3.616,2.256-5.433,3.388c5.615,8.32,10.924,16.831,15.916,25.511
								c5.007,8.706,9.701,17.59,14.069,26.632c4.386,9.078,8.449,18.322,12.177,27.713c3.745,9.437,7.156,19.03,10.218,28.759
								c2.182-0.352,4.357-0.702,6.527-1.052c2.165-0.349,4.323-0.697,6.477-1.044c2.148-0.346,4.29-0.691,6.427-1.036
								c2.131-0.343,4.257-0.686,6.377-1.027c-3.355-10.549-7.084-20.955-11.166-31.192c-4.061-10.183-8.477-20.211-13.231-30.06
								c-4.734-9.806-9.811-19.444-15.214-28.892C858.665,296.072,852.948,286.836,846.914,277.804"/>
							<path d="M825.475,291.176c1.816-1.132,3.627-2.261,5.433-3.388c1.8-1.123,3.594-2.242,5.383-3.358
								c1.784-1.113,3.563-2.223,5.336-3.329c1.768-1.103,3.53-2.202,5.288-3.297c6.034,9.032,11.751,18.268,17.137,27.684
								c5.403,9.447,10.479,19.085,15.214,28.892c4.755,9.849,9.171,19.876,13.231,30.06c4.082,10.238,7.811,20.643,11.166,31.192
								c-2.12,0.341-4.246,0.684-6.377,1.027c-2.137,0.345-4.278,0.69-6.427,1.036c-2.153,0.347-4.312,0.695-6.477,1.044
								c-2.17,0.35-4.346,0.7-6.527,1.052c-3.062-9.729-6.473-19.322-10.218-28.759c-3.728-9.391-7.791-18.636-12.177-27.713
								c-4.368-9.042-9.063-17.926-14.069-26.632C836.398,308.007,831.09,299.496,825.475,291.176 M846.55,275.633
								c-0.005,0.002-0.01,0.004-0.015,0.007s-0.01,0.005-0.015,0.007c-0.004,0.002-0.009,0.005-0.014,0.008
								c-0.005,0.002-0.009,0.005-0.014,0.008c-1.867,1.16-3.74,2.324-5.619,3.493c-1.885,1.171-3.775,2.347-5.673,3.527
								c-1.902,1.183-3.812,2.37-5.727,3.561c-1.921,1.194-3.849,2.393-5.783,3.594c-0.085,0.053-0.164,0.126-0.229,0.212
								c-0.064,0.087-0.114,0.188-0.143,0.298c-0.029,0.11-0.036,0.23-0.016,0.354c0.021,0.124,0.071,0.251,0.157,0.378
								c5.707,8.416,11.098,17.027,16.163,25.812c5.08,8.811,9.837,17.805,14.259,26.962c4.439,9.193,8.547,18.559,12.307,28.076
								c3.779,9.564,7.212,19.292,10.285,29.16c0.027,0.09,0.062,0.173,0.101,0.248c0.038,0.075,0.082,0.143,0.13,0.204
								c0.047,0.061,0.099,0.114,0.152,0.161c0.055,0.046,0.111,0.085,0.17,0.118c0.045,0.03,0.091,0.056,0.14,0.078
								c0.048,0.022,0.098,0.04,0.149,0.053s0.105,0.021,0.16,0.022c0.055,0.002,0.11,0,0.168-0.01
								c2.324-0.377,4.643-0.754,6.954-1.13c2.306-0.375,4.604-0.748,6.897-1.121c2.286-0.372,4.566-0.743,6.841-1.114
								c2.268-0.37,4.529-0.739,6.785-1.107c0.019-0.003,0.037-0.007,0.055-0.011c0.019-0.005,0.036-0.01,0.054-0.016
								c0.017-0.006,0.033-0.013,0.05-0.02c0.016-0.007,0.032-0.016,0.047-0.024c0.077-0.043,0.143-0.104,0.195-0.176
								c0.052-0.073,0.092-0.158,0.117-0.252c0.026-0.094,0.037-0.197,0.033-0.305c-0.004-0.107-0.023-0.22-0.061-0.333
								c-3.401-10.763-7.188-21.381-11.344-31.827c-4.132-10.389-8.632-20.619-13.484-30.662c-4.83-10-10.015-19.826-15.537-29.452
								c-5.505-9.594-11.353-19-17.529-28.191c-0.067-0.101-0.15-0.199-0.242-0.287c-0.093-0.088-0.194-0.165-0.3-0.225
								c-0.104-0.059-0.214-0.101-0.32-0.116C846.75,275.58,846.646,275.59,846.55,275.633"/>
							<path d="M639.092,407.416c-2.84,1.772-5.691,3.552-8.555,5.339c-2.875,1.793-5.762,3.594-8.661,5.402
								c-2.911,1.815-5.834,3.638-8.77,5.469c-2.947,1.838-5.907,3.683-8.88,5.536c-2.021,1.261-4.048,2.525-6.081,3.793
								c-2.038,1.271-4.083,2.547-6.134,3.826c-2.056,1.283-4.118,2.569-6.188,3.859c-2.074,1.294-4.155,2.592-6.243,3.894
								c-0.608,0.38-1.244,0.752-1.895,1.125c-0.651,0.372-1.318,0.744-1.987,1.122c-0.671,0.378-1.344,0.762-2.008,1.159
								s-1.318,0.807-1.952,1.236c6.922-1.117,13.796-2.227,20.621-3.328c6.778-1.094,13.511-2.181,20.196-3.259
								c6.64-1.071,13.234-2.135,19.784-3.191c6.506-1.049,12.968-2.091,19.386-3.125c-0.685-2.564-1.462-5.089-2.332-7.574
								c-0.869-2.481-1.83-4.924-2.884-7.329c-1.053-2.402-2.198-4.766-3.435-7.092C641.84,411.953,640.512,409.666,639.092,407.416
								"/>
							<path d="M571.739,449.175c0.634-0.429,1.288-0.839,1.952-1.236s1.337-0.781,2.008-1.159c0.669-0.378,1.336-0.75,1.987-1.122
								c0.65-0.372,1.286-0.745,1.895-1.125c2.088-1.302,4.169-2.6,6.243-3.894c2.069-1.291,4.132-2.577,6.188-3.859
								c2.051-1.279,4.096-2.554,6.134-3.826c2.033-1.268,4.06-2.532,6.081-3.793c2.973-1.853,5.933-3.698,8.88-5.536
								c2.936-1.831,5.858-3.653,8.77-5.469c2.899-1.808,5.786-3.609,8.661-5.402c2.863-1.787,5.715-3.566,8.555-5.339
								c1.42,2.25,2.748,4.537,3.984,6.861c1.236,2.326,2.382,4.69,3.435,7.092c1.054,2.404,2.015,4.847,2.884,7.329
								c0.87,2.485,1.647,5.009,2.332,7.574c-6.418,1.034-12.88,2.076-19.386,3.125c-6.55,1.056-13.145,2.12-19.784,3.191
								c-6.686,1.079-13.418,2.165-20.196,3.259C585.535,446.949,578.661,448.058,571.739,449.175 M638.874,404.732
								c-0.007,0.003-0.014,0.006-0.02,0.009c-0.007,0.003-0.014,0.007-0.02,0.011c-0.007,0.003-0.013,0.007-0.02,0.011
								s-0.013,0.008-0.02,0.012c-2.906,1.809-5.825,3.625-8.757,5.447c-2.944,1.831-5.9,3.669-8.869,5.515
								c-2.981,1.854-5.977,3.714-8.983,5.583c-3.02,1.877-6.053,3.762-9.099,5.654c-2.067,1.286-4.141,2.576-6.221,3.87
								c-2.086,1.297-4.178,2.599-6.276,3.903c-2.104,1.309-4.216,2.621-6.333,3.937c-2.123,1.319-4.253,2.643-6.389,3.969
								c-0.162,0.101-0.326,0.202-0.492,0.302s-0.334,0.2-0.503,0.299c-0.169,0.1-0.339,0.199-0.511,0.298
								c-0.172,0.099-0.345,0.198-0.519,0.296c-0.716,0.407-1.447,0.813-2.18,1.228c-0.733,0.416-1.468,0.84-2.188,1.282
								c-0.72,0.443-1.425,0.903-2.1,1.392c-0.676,0.488-1.321,1.004-1.921,1.557c-0.033,0.031-0.067,0.062-0.101,0.093
								s-0.066,0.063-0.099,0.094c-0.033,0.031-0.066,0.063-0.099,0.095c-0.033,0.032-0.065,0.063-0.098,0.095
								c-0.034,0.034-0.068,0.068-0.103,0.102s-0.068,0.068-0.102,0.103c-0.034,0.034-0.067,0.069-0.101,0.104
								s-0.066,0.07-0.1,0.104c0.021,0.001,0.044,0.002,0.065,0.003c0.022,0.001,0.045,0.002,0.067,0.004
								c0.021,0.001,0.044,0.002,0.066,0.004c0.022,0.001,0.045,0.002,0.067,0.003c0.019,0.001,0.037,0.003,0.055,0.005
								s0.036,0.004,0.054,0.007s0.035,0.005,0.052,0.008c0.018,0.003,0.034,0.007,0.052,0.01c0.237-0.04,0.495-0.051,0.759-0.046
								c0.264,0.005,0.534,0.027,0.798,0.056s0.521,0.064,0.761,0.095c0.238,0.031,0.457,0.058,0.645,0.071
								c0.61,0.038,1.221,0.077,1.83,0.115c0.609,0.039,1.219,0.078,1.827,0.117c0.609,0.039,1.217,0.078,1.825,0.117
								c0.607,0.039,1.215,0.078,1.822,0.116c6.564-1.067,13.086-2.128,19.564-3.182c6.436-1.047,12.83-2.087,19.183-3.121
								c6.311-1.026,12.581-2.046,18.811-3.06c6.188-1.007,12.338-2.008,18.448-3.001c0.024-0.004,0.049-0.009,0.072-0.014
								c0.024-0.006,0.048-0.012,0.071-0.02c0.022-0.007,0.046-0.016,0.067-0.024c0.022-0.009,0.044-0.019,0.065-0.03
								c0.105-0.053,0.2-0.125,0.279-0.213c0.079-0.087,0.145-0.189,0.191-0.3c0.048-0.112,0.078-0.233,0.088-0.36
								c0.011-0.126,0.001-0.258-0.032-0.391c-0.721-2.824-1.551-5.604-2.489-8.339c-0.938-2.731-1.985-5.418-3.143-8.061
								c-1.155-2.64-2.421-5.235-3.795-7.785c-1.374-2.548-2.856-5.051-4.45-7.509c-0.078-0.12-0.176-0.236-0.286-0.337
								c-0.111-0.102-0.234-0.19-0.365-0.256c-0.13-0.066-0.267-0.108-0.404-0.12C639.142,404.649,639.005,404.67,638.874,404.732"
								/>
							<path d="M732.056,349.439c-5.149,3.211-10.34,6.448-15.571,9.711c-5.274,3.289-10.591,6.605-15.951,9.948
								c-5.403,3.37-10.851,6.768-16.342,10.193c-5.538,3.453-11.121,6.935-16.75,10.446c2.048,3.18,3.965,6.424,5.748,9.726
								c1.786,3.306,3.438,6.672,4.957,10.094c1.521,3.427,2.908,6.911,4.16,10.449c1.254,3.544,2.372,7.142,3.353,10.791
								c6.755-1.09,13.46-2.172,20.117-3.247c6.609-1.066,13.173-2.125,19.688-3.177c6.47-1.044,12.894-2.08,19.273-3.108
								c6.334-1.021,12.625-2.035,18.871-3.042c-1.745-6.134-3.722-12.183-5.925-18.138c-2.196-5.937-4.617-11.783-7.257-17.528
								c-2.634-5.731-5.486-11.365-8.553-16.891C738.814,360.149,735.539,354.737,732.056,349.439"/>
							<path d="M667.441,389.738c5.629-3.511,11.212-6.993,16.75-10.446c5.491-3.425,10.938-6.823,16.342-10.193
								c5.36-3.343,10.677-6.659,15.951-9.948c5.231-3.263,10.422-6.5,15.571-9.711c3.483,5.298,6.759,10.71,9.819,16.227
								c3.066,5.526,5.919,11.16,8.553,16.891c2.64,5.745,5.061,11.591,7.257,17.528c2.203,5.955,4.18,12.004,5.925,18.138
								c-6.246,1.006-12.537,2.02-18.871,3.042c-6.38,1.028-12.804,2.064-19.273,3.108c-6.516,1.051-13.079,2.11-19.688,3.177
								c-6.657,1.075-13.362,2.157-20.117,3.247c-0.98-3.648-2.099-7.247-3.353-10.791c-1.252-3.538-2.639-7.021-4.16-10.449
								c-1.519-3.422-3.171-6.788-4.957-10.094C671.406,396.162,669.489,392.918,667.441,389.738 M731.76,346.992
								c-0.005,0.002-0.011,0.005-0.017,0.008s-0.011,0.006-0.017,0.009c-0.006,0.003-0.012,0.006-0.018,0.009
								c-0.005,0.003-0.011,0.007-0.017,0.01c-5.278,3.282-10.601,6.59-15.967,9.925c-5.409,3.363-10.864,6.754-16.364,10.173
								c-5.546,3.447-11.139,6.924-16.778,10.43c-5.687,3.535-11.422,7.101-17.206,10.696c-0.112,0.069-0.216,0.161-0.304,0.268
								c-0.087,0.107-0.157,0.23-0.202,0.362s-0.063,0.274-0.047,0.419c0.017,0.145,0.068,0.292,0.165,0.437
								c2.147,3.287,4.152,6.64,6.014,10.056c1.863,3.419,3.582,6.904,5.155,10.449c1.576,3.55,3.006,7.163,4.288,10.834
								c1.284,3.678,2.42,7.417,3.405,11.212c0.023,0.091,0.054,0.176,0.09,0.253c0.035,0.077,0.077,0.147,0.123,0.211
								s0.097,0.121,0.151,0.171c0.054,0.051,0.112,0.095,0.172,0.132c0.055,0.041,0.113,0.077,0.175,0.107s0.127,0.055,0.194,0.073
								c0.068,0.018,0.14,0.029,0.213,0.032c0.074,0.003,0.15,0,0.229-0.013c6.939-1.129,13.826-2.25,20.662-3.361
								c6.786-1.104,13.522-2.2,20.21-3.288c6.639-1.079,13.229-2.151,19.772-3.214c6.496-1.056,12.945-2.104,19.35-3.144
								c0.021-0.003,0.042-0.008,0.063-0.013c0.021-0.005,0.041-0.011,0.061-0.018s0.039-0.014,0.058-0.022
								c0.019-0.008,0.037-0.017,0.055-0.026c0.094-0.049,0.176-0.117,0.243-0.198c0.068-0.081,0.122-0.176,0.16-0.28
								s0.061-0.217,0.064-0.335c0.004-0.118-0.01-0.241-0.045-0.364c-1.785-6.373-3.818-12.66-6.093-18.847
								c-2.267-6.167-4.773-12.24-7.515-18.205c-2.734-5.949-5.703-11.795-8.9-17.525c-3.19-5.718-6.611-11.324-10.257-16.805
								c-0.073-0.111-0.165-0.219-0.268-0.314c-0.102-0.096-0.216-0.179-0.334-0.242c-0.119-0.063-0.243-0.105-0.366-0.119
								C731.997,346.923,731.875,346.938,731.76,346.992"/>
							<path d="M800.516,306.746c-3.353,2.09-6.723,4.192-10.11,6.305c-3.407,2.125-6.833,4.261-10.277,6.41
								c-3.464,2.16-6.947,4.332-10.449,6.517c-3.522,2.196-7.064,4.405-10.627,6.627c4.087,6.176,7.933,12.49,11.532,18.928
								c3.606,6.452,6.968,13.032,10.076,19.726c3.118,6.713,5.983,13.546,8.59,20.484c2.615,6.963,4.971,14.037,7.058,21.207
								c4.347-0.702,8.673-1.4,12.978-2.095c4.283-0.691,8.545-1.379,12.787-2.063c4.22-0.681,8.42-1.359,12.599-2.033
								c4.159-0.671,8.298-1.339,12.416-2.003c-2.681-8.768-5.681-17.414-8.99-25.921c-3.294-8.47-6.896-16.808-10.796-24.998
								c-3.886-8.161-8.069-16.181-12.542-24.042C810.299,321.954,805.548,314.265,800.516,306.746"/>
							<path d="M759.052,332.604c3.563-2.222,7.104-4.431,10.627-6.627c3.502-2.185,6.985-4.356,10.449-6.517
								c3.444-2.148,6.87-4.285,10.277-6.41c3.388-2.113,6.758-4.214,10.11-6.305c5.032,7.519,9.783,15.208,14.243,23.048
								c4.473,7.861,8.656,15.881,12.542,24.042c3.899,8.19,7.502,16.528,10.796,24.998c3.31,8.507,6.31,17.153,8.99,25.921
								c-4.118,0.664-8.257,1.332-12.416,2.003c-4.179,0.674-8.379,1.352-12.599,2.033c-4.242,0.684-8.504,1.372-12.787,2.063
								c-4.305,0.695-8.631,1.393-12.978,2.095c-2.087-7.17-4.442-14.244-7.058-21.207c-2.606-6.938-5.472-13.771-8.59-20.484
								c-3.108-6.694-6.47-13.274-10.076-19.726C766.984,345.094,763.139,338.78,759.052,332.604 M800.176,304.464
								c-0.006,0.002-0.011,0.005-0.016,0.007c-0.005,0.003-0.01,0.005-0.016,0.008c-0.005,0.002-0.01,0.005-0.015,0.008
								s-0.01,0.006-0.015,0.009c-3.47,2.157-6.959,4.325-10.467,6.506c-3.529,2.193-7.077,4.399-10.646,6.618
								c-3.589,2.231-7.199,4.475-10.83,6.732c-3.652,2.27-7.326,4.553-11.021,6.85c-0.096,0.06-0.184,0.14-0.257,0.234
								c-0.073,0.095-0.132,0.205-0.167,0.324c-0.035,0.12-0.047,0.248-0.027,0.381c0.019,0.132,0.069,0.269,0.158,0.403
								c4.182,6.276,8.113,12.695,11.788,19.241c3.683,6.561,7.109,13.255,10.272,20.068c3.172,6.833,6.081,13.79,8.719,20.857
								c2.647,7.093,5.023,14.303,7.118,21.613c0.027,0.095,0.062,0.182,0.101,0.261s0.085,0.15,0.135,0.214
								c0.05,0.064,0.104,0.12,0.161,0.168c0.058,0.049,0.118,0.09,0.181,0.124c0.048,0.031,0.098,0.059,0.149,0.082
								c0.052,0.022,0.105,0.041,0.161,0.054c0.057,0.013,0.114,0.021,0.174,0.023s0.121-0.001,0.184-0.012
								c4.506-0.733,8.989-1.461,13.45-2.187c4.438-0.722,8.854-1.44,13.248-2.154c4.371-0.711,8.721-1.418,13.048-2.123
								c4.307-0.701,8.591-1.397,12.854-2.091c0.021-0.003,0.04-0.007,0.059-0.012c0.02-0.005,0.038-0.01,0.056-0.017
								c0.019-0.006,0.036-0.013,0.054-0.021s0.034-0.016,0.051-0.025c0.083-0.045,0.154-0.109,0.213-0.185
								c0.058-0.076,0.103-0.166,0.133-0.263c0.03-0.098,0.045-0.205,0.044-0.316c-0.001-0.112-0.019-0.228-0.055-0.344
								c-2.724-8.993-5.782-17.863-9.163-26.587c-3.366-8.686-7.055-17.236-11.053-25.63c-3.983-8.364-8.279-16.582-12.876-24.631
								c-4.584-8.028-9.472-15.897-14.653-23.586c-0.071-0.105-0.158-0.207-0.255-0.298s-0.204-0.17-0.314-0.231
								c-0.11-0.061-0.226-0.103-0.338-0.118C800.388,304.406,800.277,304.418,800.176,304.464"/>
							<path d="M806.452,467.553c0.383,4.573,0.656,9.148,0.82,13.723c0.165,4.592,0.22,9.185,0.165,13.776
								c-0.056,4.609-0.223,9.218-0.5,13.823c-0.279,4.623-0.671,9.244-1.175,13.859c4.718,1.434,9.42,2.862,14.106,4.286
								c4.672,1.419,9.328,2.833,13.97,4.241c4.626,1.404,9.237,2.804,13.834,4.198c4.581,1.39,9.147,2.775,13.699,4.156
								c0.484-5.775,0.828-11.553,1.033-17.328c0.204-5.745,0.27-11.49,0.199-17.23c-0.069-5.712-0.274-11.42-0.612-17.123
								c-0.336-5.675-0.805-11.345-1.404-17.006c-4.408-0.275-8.834-0.551-13.278-0.828c-4.464-0.278-8.946-0.558-13.446-0.838
								c-4.521-0.282-9.06-0.565-13.618-0.85C815.667,468.127,811.069,467.841,806.452,467.553"/>
							<path d="M805.763,522.734c0.504-4.615,0.896-9.236,1.175-13.859c0.277-4.604,0.444-9.213,0.5-13.823
								c0.055-4.591,0-9.184-0.165-13.776c-0.164-4.575-0.438-9.15-0.82-13.723c4.617,0.288,9.215,0.575,13.793,0.86
								c4.559,0.284,9.098,0.567,13.618,0.85c4.5,0.28,8.982,0.56,13.446,0.838c4.444,0.277,8.87,0.553,13.278,0.828
								c0.6,5.661,1.068,11.331,1.404,17.006c0.338,5.702,0.543,11.411,0.612,17.123c0.07,5.74,0.005,11.485-0.199,17.23
								c-0.205,5.775-0.549,11.553-1.033,17.328c-4.552-1.381-9.118-2.767-13.699-4.156c-4.597-1.395-9.208-2.794-13.834-4.198
								c-4.642-1.408-9.298-2.822-13.97-4.241C815.183,525.597,810.48,524.168,805.763,522.734 M804.807,465.364
								c-0.071,0.041-0.136,0.092-0.193,0.152c-0.057,0.061-0.105,0.129-0.145,0.207s-0.067,0.162-0.085,0.253
								c-0.017,0.091-0.021,0.189-0.013,0.293c0.408,4.717,0.701,9.436,0.877,14.154c0.178,4.737,0.237,9.475,0.18,14.21
								c-0.06,4.755-0.237,9.509-0.537,14.258c-0.3,4.77-0.723,9.536-1.269,14.296c-0.004,0.031-0.007,0.063-0.008,0.094
								c-0.002,0.031-0.003,0.063-0.003,0.093c0.001,0.03,0.002,0.061,0.004,0.09c0.003,0.029,0.006,0.059,0.01,0.088
								c0.003,0.12,0.021,0.24,0.055,0.356c0.033,0.115,0.083,0.227,0.149,0.327s0.149,0.191,0.25,0.268s0.219,0.137,0.356,0.177
								c4.894,1.482,9.771,2.96,14.633,4.432c4.846,1.467,9.674,2.929,14.486,4.386c4.797,1.452,9.577,2.899,14.342,4.343
								c4.748,1.438,9.48,2.872,14.196,4.302c0.066,0.021,0.134,0.033,0.201,0.039c0.067,0.007,0.134,0.005,0.199-0.003
								c0.064-0.008,0.128-0.022,0.189-0.045c0.061-0.021,0.118-0.051,0.172-0.086c0.049-0.032,0.094-0.07,0.135-0.113
								s0.078-0.092,0.109-0.146s0.058-0.114,0.078-0.18c0.021-0.064,0.034-0.135,0.041-0.211
								c0.516-6.007,0.881-12.016,1.099-18.022c0.217-5.974,0.287-11.947,0.211-17.915c-0.075-5.937-0.295-11.87-0.658-17.795
								c-0.361-5.896-0.864-11.787-1.51-17.666c-0.016-0.146-0.057-0.291-0.115-0.427c-0.06-0.136-0.139-0.264-0.231-0.375
								s-0.199-0.203-0.315-0.271c-0.117-0.067-0.242-0.108-0.372-0.115c-4.559-0.291-9.137-0.583-13.734-0.875
								c-4.618-0.294-9.256-0.589-13.913-0.884c-4.679-0.297-9.377-0.595-14.097-0.895c-4.74-0.301-9.501-0.603-14.283-0.906
								c-0.044-0.003-0.088-0.002-0.131,0.001c-0.044,0.004-0.086,0.01-0.127,0.02c-0.042,0.01-0.082,0.022-0.121,0.038
								C804.88,465.325,804.843,465.344,804.807,465.364"/>
							<path d="M690.07,460.286c0.078,2.251,0.104,4.496,0.074,6.735c-0.029,2.243-0.111,4.481-0.247,6.714
								c-0.136,2.237-0.325,4.47-0.568,6.697c-0.243,2.232-0.54,4.46-0.891,6.685c7.032,2.136,14.032,4.261,20.999,6.376
								c6.934,2.105,13.836,4.2,20.706,6.285c6.838,2.075,13.644,4.142,20.418,6.198c6.743,2.047,13.456,4.085,20.138,6.114
								c0.482-3.894,0.868-7.794,1.158-11.698c0.288-3.89,0.481-7.785,0.581-11.684c0.099-3.885,0.103-7.774,0.015-11.666
								c-0.088-3.879-0.269-7.761-0.541-11.645c-6.596-0.412-13.23-0.826-19.905-1.243c-6.715-0.419-13.471-0.841-20.268-1.266
								c-6.839-0.427-13.72-0.857-20.643-1.29C704.132,461.165,697.123,460.727,690.07,460.286"/>
							<path d="M688.438,487.117c0.351-2.225,0.647-4.453,0.891-6.685c0.243-2.228,0.433-4.46,0.568-6.697
								c0.136-2.233,0.218-4.471,0.247-6.714c0.029-2.239,0.004-4.484-0.074-6.735c7.053,0.44,14.062,0.878,21.026,1.313
								c6.923,0.433,13.804,0.862,20.643,1.29c6.797,0.425,13.553,0.847,20.268,1.266c6.675,0.417,13.31,0.832,19.905,1.243
								c0.272,3.883,0.453,7.766,0.541,11.645c0.088,3.892,0.084,7.781-0.015,11.666c-0.1,3.899-0.293,7.794-0.581,11.684
								c-0.29,3.904-0.676,7.804-1.158,11.698c-6.682-2.029-13.395-4.067-20.138-6.114c-6.774-2.057-13.58-4.123-20.418-6.198
								c-6.87-2.085-13.772-4.18-20.706-6.285C702.471,491.378,695.471,489.253,688.438,487.117 M688.363,457.978
								c-0.082,0.043-0.156,0.096-0.223,0.159c-0.067,0.063-0.125,0.136-0.173,0.216c-0.047,0.081-0.084,0.17-0.107,0.266
								c-0.024,0.096-0.035,0.199-0.03,0.308c0.098,2.403,0.136,4.799,0.113,7.188c-0.021,2.394-0.104,4.781-0.249,7.162
								c-0.146,2.386-0.352,4.767-0.62,7.142c-0.27,2.38-0.603,4.756-0.998,7.128c-0.005,0.03-0.009,0.061-0.013,0.09
								c-0.003,0.03-0.005,0.06-0.006,0.089s-0.002,0.058-0.001,0.087s0.002,0.057,0.005,0.085c-0.005,0.125,0.008,0.25,0.038,0.37
								c0.029,0.12,0.078,0.236,0.145,0.342c0.067,0.106,0.154,0.202,0.262,0.283c0.106,0.081,0.234,0.146,0.384,0.191
								c7.228,2.189,14.42,4.368,21.578,6.536c7.124,2.158,14.214,4.305,21.27,6.442c7.022,2.127,14.012,4.243,20.968,6.35
								c6.923,2.097,13.814,4.184,20.673,6.26c0.069,0.021,0.142,0.034,0.213,0.041c0.072,0.007,0.144,0.007,0.215-0.001
								c0.07-0.008,0.14-0.022,0.206-0.044s0.131-0.05,0.19-0.086c0.053-0.032,0.104-0.069,0.148-0.113
								c0.046-0.043,0.087-0.092,0.123-0.146c0.036-0.054,0.066-0.114,0.09-0.18c0.024-0.065,0.042-0.137,0.052-0.213
								c0.527-4.13,0.948-8.267,1.263-12.407c0.314-4.125,0.522-8.256,0.626-12.39c0.103-4.119,0.101-8.243-0.006-12.368
								c-0.105-4.111-0.315-8.225-0.629-12.339c-0.012-0.151-0.05-0.302-0.107-0.444c-0.059-0.142-0.139-0.275-0.234-0.391
								c-0.096-0.115-0.207-0.212-0.33-0.283c-0.123-0.07-0.258-0.114-0.399-0.122c-6.754-0.429-13.55-0.86-20.387-1.294
								c-6.88-0.437-13.803-0.876-20.769-1.319c-7.01-0.445-14.063-0.893-21.161-1.344c-7.143-0.454-14.331-0.91-21.564-1.37
								c-0.05-0.003-0.099-0.002-0.146,0.001c-0.049,0.003-0.097,0.011-0.143,0.021c-0.047,0.01-0.093,0.023-0.137,0.04
								S688.404,457.956,688.363,457.978"/>
							<path d="M893.604,472.998c0.758,6.324,1.369,12.664,1.835,19.014c0.468,6.383,0.788,12.779,0.96,19.182
								c0.172,6.438,0.194,12.887,0.063,19.34c-0.131,6.49-0.415,12.986-0.855,19.484c2.296,0.696,4.588,1.392,6.876,2.085
								c2.284,0.693,4.564,1.386,6.841,2.076c2.272,0.69,4.541,1.379,6.807,2.065c2.262,0.687,4.52,1.372,6.774,2.056
								c0.371-7.081,0.576-14.157,0.618-21.222c0.042-7.021-0.078-14.032-0.356-21.029c-0.277-6.955-0.711-13.897-1.301-20.823
								c-0.587-6.886-1.327-13.757-2.22-20.606c-2.146-0.134-4.296-0.268-6.45-0.402c-2.158-0.134-4.321-0.269-6.489-0.404
								c-2.172-0.135-4.349-0.271-6.53-0.406C897.99,473.271,895.8,473.135,893.604,472.998"/>
							<path d="M895.606,550.018c0.44-6.498,0.725-12.994,0.855-19.484c0.131-6.453,0.108-12.901-0.063-19.34
								c-0.172-6.403-0.492-12.799-0.96-19.182c-0.466-6.35-1.077-12.689-1.835-19.014c2.196,0.137,4.387,0.274,6.572,0.41
								c2.182,0.136,4.358,0.271,6.53,0.406c2.168,0.135,4.331,0.27,6.489,0.404c2.154,0.134,4.305,0.268,6.45,0.402
								c0.893,6.85,1.633,13.72,2.22,20.606c0.59,6.925,1.023,13.868,1.301,20.823c0.278,6.997,0.398,14.009,0.356,21.029
								c-0.042,7.064-0.247,14.141-0.618,21.222c-2.255-0.684-4.513-1.369-6.774-2.056c-2.266-0.687-4.534-1.375-6.807-2.065
								c-2.276-0.69-4.557-1.383-6.841-2.076C900.194,551.409,897.902,550.714,895.606,550.018 M892.013,470.895
								c-0.063,0.04-0.121,0.089-0.172,0.147c-0.05,0.058-0.093,0.125-0.126,0.199s-0.057,0.156-0.069,0.245
								c-0.013,0.088-0.014,0.183-0.002,0.282c0.785,6.461,1.419,12.939,1.899,19.429c0.483,6.523,0.813,13.061,0.984,19.604
								c0.174,6.582,0.188,13.174,0.043,19.77c-0.146,6.635-0.455,13.276-0.93,19.918c-0.002,0.031-0.003,0.062-0.004,0.092
								c0,0.03,0,0.061,0.002,0.09c0.001,0.029,0.003,0.059,0.006,0.088c0.004,0.028,0.007,0.058,0.012,0.085
								c0.008,0.117,0.028,0.234,0.064,0.347c0.035,0.112,0.085,0.22,0.15,0.317c0.064,0.097,0.145,0.185,0.24,0.258
								c0.096,0.072,0.207,0.131,0.335,0.169c2.457,0.745,4.91,1.487,7.359,2.229c2.444,0.74,4.885,1.479,7.321,2.216
								c2.432,0.736,4.859,1.472,7.282,2.205c2.419,0.732,4.834,1.463,7.244,2.193c0.063,0.02,0.128,0.031,0.192,0.037
								c0.063,0.005,0.128,0.004,0.189-0.005c0.063-0.008,0.122-0.023,0.18-0.046c0.058-0.021,0.111-0.051,0.162-0.086
								c0.045-0.032,0.087-0.07,0.124-0.113c0.038-0.043,0.071-0.091,0.1-0.145s0.051-0.113,0.068-0.178
								c0.017-0.064,0.028-0.135,0.032-0.21c0.393-7.309,0.612-14.611,0.659-21.902c0.046-7.244-0.077-14.479-0.368-21.698
								c-0.29-7.175-0.746-14.336-1.366-21.479c-0.617-7.101-1.397-14.187-2.339-21.25c-0.018-0.14-0.059-0.28-0.118-0.412
								c-0.059-0.132-0.136-0.255-0.227-0.362c-0.09-0.107-0.193-0.198-0.306-0.264c-0.111-0.066-0.232-0.107-0.355-0.116
								c-2.29-0.144-4.585-0.289-6.885-0.435c-2.305-0.146-4.615-0.292-6.932-0.438c-2.321-0.147-4.647-0.295-6.979-0.443
								c-2.337-0.148-4.68-0.297-7.027-0.447c-0.04-0.002-0.08-0.002-0.119,0.001s-0.078,0.01-0.115,0.019
								c-0.038,0.01-0.074,0.022-0.109,0.037C892.079,470.857,892.045,470.875,892.013,470.895"/>
							<path d="M576.743,453.202c6.535,1.984,13.042,3.961,19.522,5.929c6.452,1.959,12.878,3.911,19.277,5.854
								c6.373,1.935,12.719,3.862,19.039,5.78c6.295,1.911,12.563,3.813,18.807,5.708c0.258-1.524,0.479-3.05,0.664-4.578
								c0.186-1.526,0.335-3.056,0.448-4.588c0.114-1.531,0.193-3.066,0.237-4.605c0.044-1.538,0.053-3.08,0.027-4.627
								c-3.477-0.217-6.964-0.435-10.462-0.652c-3.508-0.219-7.026-0.438-10.557-0.659c-3.54-0.221-7.091-0.442-10.652-0.664
								c-3.573-0.223-7.156-0.446-10.751-0.67c-2.572-0.161-5.15-0.322-7.734-0.484c-2.59-0.162-5.185-0.324-7.785-0.487
								c-2.606-0.163-5.219-0.327-7.837-0.49c-2.624-0.164-5.254-0.329-7.889-0.494c-0.362-0.023-0.725-0.046-1.087-0.068
								c-0.363-0.023-0.726-0.046-1.089-0.068c-0.362-0.022-0.726-0.045-1.089-0.067S577.106,453.225,576.743,453.202"/>
							<path d="M653.389,476.473c-6.243-1.895-12.512-3.797-18.807-5.708c-6.32-1.918-12.666-3.845-19.039-5.78
								c-6.399-1.943-12.825-3.895-19.277-5.854c-6.48-1.968-12.987-3.944-19.522-5.929c0.363,0.022,0.728,0.045,1.091,0.067
								s0.727,0.045,1.089,0.067c0.363,0.022,0.726,0.045,1.089,0.068c0.362,0.022,0.725,0.045,1.087,0.068
								c2.635,0.165,5.265,0.33,7.889,0.494c2.618,0.164,5.23,0.327,7.837,0.49c2.601,0.163,5.195,0.325,7.785,0.487
								c2.584,0.162,5.162,0.323,7.734,0.484c3.595,0.224,7.178,0.447,10.751,0.67c3.562,0.222,7.112,0.443,10.652,0.664
								c3.53,0.22,7.049,0.439,10.557,0.659c3.498,0.218,6.985,0.436,10.462,0.652c0.025,1.548,0.017,3.09-0.027,4.627
								c-0.044,1.54-0.123,3.074-0.237,4.605c-0.113,1.533-0.263,3.062-0.448,4.588
								C653.867,473.423,653.646,474.949,653.389,476.473 M567.136,450.141c0.115,0.026,0.219,0.066,0.313,0.117
								c0.094,0.052,0.176,0.115,0.248,0.187c0.071,0.072,0.132,0.152,0.183,0.239c0.05,0.087,0.09,0.18,0.118,0.276
								c0.023,0.063,0.041,0.129,0.055,0.196c0.014,0.066,0.022,0.134,0.026,0.203c0.004,0.068,0.004,0.138-0.002,0.207
								c-0.005,0.069-0.016,0.139-0.03,0.208l-0.032,0.126c-0.017,0.08-0.043,0.154-0.076,0.222s-0.073,0.13-0.12,0.186
								c-0.047,0.056-0.1,0.106-0.157,0.15s-0.119,0.082-0.186,0.114c-0.065,0.032-0.135,0.058-0.206,0.077s-0.145,0.033-0.22,0.041
								c-0.074,0.007-0.15,0.009-0.226,0.004s-0.15-0.015-0.224-0.032c0.001,0,0.002,0,0.002,0.001c0.001,0,0.002,0,0.003,0
								c0,0,0.001,0,0.002,0.001c0,0,0.001,0,0.002,0c0.04,0.024,0.081,0.046,0.124,0.065c0.042,0.019,0.084,0.035,0.128,0.049
								c0.043,0.014,0.087,0.024,0.132,0.032c0.044,0.007,0.089,0.012,0.134,0.014c0.02,0.006,0.039,0.012,0.059,0.018
								c0.02,0.006,0.039,0.012,0.059,0.018c0.019,0.006,0.038,0.012,0.059,0.018c0.02,0.006,0.039,0.012,0.059,0.018v0
								c0.007,0.002,0.014,0.004,0.021,0.006c0.008,0.002,0.015,0.004,0.021,0.006c0.007,0.002,0.014,0.004,0.021,0.006
								s0.015,0.004,0.021,0.006c7.402,2.242,14.771,4.473,22.103,6.693c7.299,2.21,14.562,4.41,21.791,6.599
								c7.195,2.179,14.357,4.347,21.485,6.505c7.095,2.148,14.157,4.287,21.186,6.416c0.076,0.023,0.154,0.04,0.233,0.048
								s0.158,0.01,0.237,0.004c0.078-0.006,0.155-0.02,0.23-0.041c0.074-0.021,0.146-0.049,0.214-0.085
								c0.062-0.032,0.118-0.07,0.171-0.114s0.101-0.094,0.143-0.149s0.079-0.118,0.108-0.185s0.052-0.141,0.065-0.22
								c0.317-1.764,0.589-3.53,0.813-5.3c0.225-1.767,0.404-3.539,0.537-5.315c0.133-1.773,0.219-3.553,0.26-5.338
								c0.041-1.783,0.036-3.573-0.015-5.37c-0.005-0.159-0.039-0.317-0.098-0.467c-0.058-0.149-0.14-0.289-0.241-0.41
								s-0.222-0.223-0.355-0.297s-0.282-0.12-0.438-0.129c-3.715-0.237-7.44-0.475-11.179-0.712
								c-3.749-0.239-7.511-0.478-11.284-0.718c-3.785-0.24-7.583-0.481-11.392-0.724c-3.822-0.243-7.655-0.486-11.501-0.731
								c-2.532-0.16-5.07-0.32-7.612-0.481c-2.549-0.162-5.103-0.324-7.661-0.486c-2.564-0.163-5.135-0.326-7.711-0.489
								c-2.581-0.164-5.168-0.327-7.761-0.49c-0.197-0.013-0.395-0.025-0.593-0.038c-0.197-0.013-0.395-0.025-0.592-0.038
								c-0.198-0.013-0.396-0.025-0.593-0.038c-0.198-0.013-0.396-0.025-0.594-0.038c-0.607-0.039-1.215-0.078-1.822-0.116
								c-0.608-0.039-1.216-0.078-1.825-0.117c-0.608-0.039-1.218-0.078-1.827-0.117c-0.609-0.039-1.22-0.077-1.83-0.115
								c-0.188-0.013-0.406-0.04-0.645-0.071c-0.239-0.031-0.497-0.066-0.761-0.095s-0.534-0.051-0.798-0.056
								C567.631,450.09,567.373,450.102,567.136,450.141"/>
							<path d="M565.856,450.198c-0.163,0.078-0.294,0.194-0.391,0.333c-0.098,0.14-0.161,0.305-0.188,0.481
								c-0.028,0.177-0.021,0.365,0.024,0.554s0.128,0.376,0.25,0.551c0.004,0.005,0.008,0.011,0.012,0.016s0.008,0.011,0.012,0.016
								s0.008,0.01,0.012,0.016c0.005,0.005,0.009,0.01,0.013,0.016c0.049,0.058,0.103,0.107,0.16,0.151
								c0.058,0.043,0.119,0.08,0.184,0.111c0.063,0.032,0.131,0.059,0.198,0.083c0.067,0.024,0.137,0.045,0.205,0.065
								c0.013,0.003,0.024,0.007,0.037,0.011c0.013,0.003,0.024,0.007,0.037,0.011c0.012,0.003,0.024,0.007,0.036,0.011
								c0.013,0.003,0.024,0.007,0.036,0.01c0.009,0.003,0.018,0.005,0.026,0.008s0.018,0.005,0.026,0.007s0.018,0.004,0.026,0.007
								c0.01,0.002,0.019,0.004,0.027,0.006c0.073,0.017,0.148,0.027,0.224,0.032s0.151,0.003,0.226-0.004
								c0.075-0.008,0.148-0.021,0.22-0.041s0.141-0.045,0.206-0.077c0.066-0.032,0.128-0.07,0.186-0.114s0.11-0.094,0.157-0.15
								c0.047-0.056,0.087-0.118,0.12-0.186s0.06-0.142,0.076-0.222l0.032-0.126c0.015-0.069,0.025-0.138,0.03-0.208
								c0.006-0.069,0.006-0.138,0.002-0.207c-0.004-0.069-0.013-0.137-0.026-0.203c-0.014-0.067-0.031-0.132-0.055-0.196
								c-0.028-0.097-0.068-0.189-0.118-0.276c-0.051-0.086-0.111-0.167-0.183-0.239c-0.072-0.072-0.154-0.135-0.248-0.187
								c-0.094-0.051-0.197-0.091-0.313-0.117c-0.018-0.003-0.034-0.007-0.052-0.01c-0.017-0.003-0.034-0.006-0.052-0.008
								s-0.036-0.005-0.054-0.007s-0.036-0.003-0.055-0.005c-0.022-0.001-0.045-0.002-0.067-0.003
								c-0.022-0.001-0.045-0.003-0.066-0.004c-0.022-0.001-0.045-0.002-0.067-0.004c-0.021-0.001-0.044-0.002-0.065-0.003
								c-0.015,0-0.029-0.001-0.043-0.002c-0.015,0-0.029-0.001-0.043-0.002c-0.015,0-0.028-0.001-0.043-0.001
								c-0.014-0.001-0.027-0.001-0.042-0.002c-0.061-0.004-0.12-0.004-0.177-0.001s-0.111,0.009-0.164,0.019
								s-0.104,0.022-0.151,0.038C565.946,450.159,565.9,450.177,565.856,450.198"/>
							<path d="M203.62,244.728c-2.04,2.428-4.053,4.883-6.04,7.365c-1.993,2.49-3.957,5.008-5.891,7.554
								c-1.94,2.555-3.849,5.137-5.724,7.748c-1.881,2.62-3.728,5.268-5.538,7.945c-15.396,22.764-28.34,47.342-38.599,73.294
								c-10.528,26.634-18.193,54.632-22.756,83.47c-4.667,29.497-6.066,59.748-3.975,90.135
								c2.129,30.941,7.865,61.858,17.384,92.053c9.45,29.956,22.376,58.789,38.425,85.938
								c16.139,27.301,35.33,52.721,57.149,75.718c21.798,22.975,46.076,43.38,72.359,60.725
								c26.086,17.215,53.98,31.304,83.182,41.846c26.456,9.549,53.605,16.172,80.942,19.916
								c26.871,3.681,53.815,4.564,80.379,2.732c26.018-1.794,51.586-6.188,76.306-13.082c24.148-6.734,47.427-15.838,69.493-27.204
								c5.713-2.941,11.327-6.024,16.841-9.241c5.477-3.196,10.853-6.524,16.126-9.979c5.238-3.431,10.374-6.986,15.405-10.66
								c4.997-3.649,9.891-7.415,14.679-11.291c15.639-12.661,30.137-26.495,43.4-41.297c12.971-14.473,24.762-29.873,35.298-46.016
								c10.308-15.794,19.418-32.309,27.263-49.382c7.683-16.722,14.158-33.995,19.362-51.68c-2.501-1.426-5.006-2.854-7.514-4.283
								c-2.511-1.431-5.024-2.864-7.54-4.299c-2.52-1.438-5.042-2.876-7.567-4.317c-2.528-1.442-5.059-2.887-7.593-4.334
								c-4.92,15.659-10.981,30.967-18.123,45.777c-7.276,15.091-15.682,29.678-25.15,43.597
								c-9.655,14.194-20.421,27.701-32.224,40.336c-12.042,12.891-25.164,24.873-39.279,35.744
								c-1.931,1.487-3.879,2.953-5.847,4.397c-1.973,1.448-3.963,2.875-5.973,4.279c-2.014,1.409-4.047,2.796-6.098,4.159
								c-2.056,1.367-4.13,2.712-6.222,4.033c-19.856,12.537-41.117,22.939-63.417,31.041c-22.834,8.296-46.706,14.161-71.19,17.423
								c-25.009,3.331-50.575,3.936-76.209,1.652c-26.092-2.324-52.143-7.631-77.6-16.05c-27.858-9.217-54.578-21.949-79.583-37.797
								c-25.202-15.972-48.496-35.003-69.322-56.618c-20.85-21.64-39.085-45.722-54.19-71.714
								c-15.02-25.846-26.842-53.404-35.025-82.113c-8.219-28.825-12.725-58.157-13.692-87.312
								c-0.949-28.627,1.52-56.938,7.189-84.331c5.542-26.78,14.124-52.578,25.511-76.88c11.098-23.685,24.832-45.882,40.978-66.16
								c-3.292-1.89-6.587-3.782-9.888-5.677c-3.305-1.897-6.614-3.796-9.928-5.698c-3.318-1.904-6.641-3.811-9.968-5.72
								C210.296,248.562,206.96,246.646,203.62,244.728"/>
							<path d="M753.77,819.71c-4.788,3.876-9.682,7.642-14.679,11.291c-5.031,3.674-10.167,7.229-15.405,10.66
								c-5.273,3.455-10.649,6.783-16.126,9.979c-5.514,3.217-11.128,6.3-16.841,9.241c-22.066,11.366-45.345,20.47-69.493,27.204
								c-24.72,6.894-50.288,11.288-76.306,13.082c-26.563,1.832-53.508,0.948-80.379-2.732
								c-27.337-3.744-54.486-10.367-80.942-19.916c-29.202-10.542-57.096-24.631-83.182-41.846
								c-26.284-17.345-50.562-37.75-72.359-60.725c-21.819-22.997-41.01-48.417-57.149-75.718
								c-16.049-27.149-28.976-55.982-38.425-85.938c-9.519-30.194-15.255-61.111-17.384-92.053
								c-2.091-30.388-0.691-60.638,3.975-90.135c4.563-28.838,12.228-56.836,22.756-83.47
								c10.258-25.953,23.203-50.531,38.599-73.294c1.81-2.677,3.657-5.326,5.538-7.945c1.875-2.611,3.784-5.193,5.724-7.748
								c1.934-2.546,3.898-5.064,5.891-7.554c1.986-2.482,4-4.937,6.04-7.365c3.34,1.918,6.676,3.833,10.007,5.746
								c3.327,1.909,6.65,3.816,9.968,5.72c3.314,1.902,6.624,3.801,9.928,5.698c3.301,1.895,6.597,3.787,9.888,5.677
								c-16.146,20.278-29.879,42.475-40.978,66.16c-11.387,24.302-19.968,50.1-25.511,76.88
								c-5.669,27.393-8.138,55.703-7.189,84.331c0.967,29.154,5.473,58.486,13.692,87.312
								c8.183,28.709,20.006,56.268,35.025,82.113c15.105,25.992,33.34,50.074,54.19,71.714
								c20.826,21.615,44.12,40.646,69.322,56.618c25.005,15.848,51.725,28.58,79.583,37.797c25.458,8.419,51.508,13.726,77.6,16.05
								c25.634,2.283,51.2,1.679,76.209-1.652c24.484-3.262,48.356-9.127,71.19-17.423c22.3-8.102,43.561-18.504,63.417-31.041
								c2.092-1.321,4.166-2.666,6.222-4.033c2.051-1.363,4.084-2.75,6.098-4.159c2.01-1.404,4-2.831,5.973-4.279
								c1.968-1.444,3.916-2.91,5.847-4.397c14.115-10.871,27.237-22.854,39.279-35.744c11.803-12.635,22.568-26.142,32.224-40.336
								c9.469-13.919,17.874-28.506,25.15-43.597c7.142-14.811,13.203-30.118,18.123-45.777c2.534,1.447,5.064,2.892,7.593,4.334
								c2.525,1.441,5.048,2.88,7.567,4.317c2.516,1.435,5.029,2.868,7.54,4.299c2.508,1.43,5.013,2.857,7.514,4.283
								c-5.204,17.685-11.68,34.958-19.362,51.68c-7.845,17.073-16.955,33.588-27.263,49.382
								c-10.536,16.143-22.327,31.543-35.298,46.016C783.906,793.215,769.408,807.049,753.77,819.71 M202.597,241.825
								c-0.057,0.016-0.112,0.036-0.166,0.059c-0.053,0.023-0.105,0.049-0.154,0.079c-0.049,0.03-0.097,0.064-0.141,0.102
								c-0.044,0.037-0.086,0.079-0.125,0.124c-17.016,20.074-31.928,41.993-44.518,65.418
								c-12.927,24.054-23.373,49.639-31.101,76.346c-7.916,27.356-12.953,55.798-14.877,84.84
								c-1.963,29.642-0.674,59.779,4.078,89.849c4.807,30.447,13.206,60.296,24.909,89.001
								c11.817,28.983,26.929,56.619,44.976,82.363c18.107,25.829,39.052,49.589,62.413,70.763
								c23.288,21.108,48.826,39.512,76.152,54.751c24.69,13.769,50.573,24.701,77.144,32.802
								c26.212,7.99,52.974,13.188,79.82,15.642c26.373,2.41,52.728,2.162,78.643-0.666c25.376-2.769,50.253-8.004,74.266-15.61
								c11.449-3.629,22.655-7.808,33.587-12.498c10.804-4.636,21.334-9.77,31.563-15.363c10.106-5.527,19.916-11.501,29.401-17.888
								c9.37-6.308,18.423-13.017,27.134-20.091c10.322-8.384,20.165-17.28,29.49-26.636c9.188-9.217,17.874-18.879,26.025-28.934
								c8.032-9.909,15.546-20.201,22.511-30.831c6.865-10.478,13.199-21.285,18.974-32.381c3.024-5.812,5.895-11.685,8.611-17.616
								c2.697-5.889,5.242-11.835,7.636-17.834c2.377-5.957,4.604-11.967,6.683-18.024c2.063-6.016,3.979-12.08,5.748-18.188
								c0.042-0.141,0.064-0.297,0.065-0.457c0.002-0.16-0.017-0.325-0.058-0.481c-0.041-0.157-0.104-0.307-0.191-0.436
								c-0.088-0.13-0.199-0.24-0.336-0.319c-2.655-1.516-5.313-3.033-7.976-4.552c-2.665-1.521-5.333-3.043-8.004-4.567
								c-2.675-1.526-5.353-3.055-8.034-4.585c-2.685-1.532-5.373-3.066-8.065-4.604c-0.021-0.012-0.04-0.022-0.061-0.032
								s-0.04-0.02-0.06-0.027c-0.021-0.009-0.04-0.017-0.06-0.023c-0.02-0.008-0.039-0.014-0.059-0.02
								c-0.066-0.034-0.135-0.061-0.202-0.078c-0.068-0.018-0.136-0.026-0.203-0.026c-0.066-0.001-0.132,0.009-0.194,0.027
								c-0.063,0.02-0.124,0.049-0.181,0.089c-0.034,0.024-0.068,0.054-0.1,0.087c-0.032,0.032-0.063,0.07-0.09,0.112
								c-0.028,0.042-0.055,0.088-0.078,0.14c-0.024,0.051-0.046,0.107-0.064,0.168c-4.943,15.846-11.04,31.253-18.222,46.104
								c-7.317,15.133-15.769,29.7-25.28,43.57c-9.698,14.144-20.504,27.566-32.335,40.121
								c-12.07,12.807-25.208,24.709-39.321,35.54c-6.359,4.88-12.916,9.542-19.66,13.97c-6.804,4.468-13.798,8.696-20.974,12.671
								c-7.238,4.009-14.659,7.758-22.253,11.23c-7.66,3.503-15.494,6.724-23.49,9.646c-23.569,8.614-48.174,14.448-73.35,17.453
								c-25.725,3.069-51.954,3.174-78.161,0.287c-26.676-2.938-53.208-8.962-79.015-18.055c-26.143-9.21-51.4-21.521-75.15-36.851
								c-26.532-17.127-50.569-37.704-71.667-61.034c-21.104-23.336-39.104-49.247-53.636-76.984
								c-14.428-27.539-25.333-56.68-32.443-86.671c-7.01-29.571-10.282-59.775-9.633-89.896
								c0.423-19.514,2.521-38.802,6.173-57.653c3.597-18.563,8.694-36.668,15.173-54.126c6.37-17.164,14.064-33.678,22.968-49.377
								c8.744-15.417,18.644-30.031,29.591-43.698c0.104-0.13,0.184-0.279,0.234-0.436s0.071-0.32,0.057-0.48
								s-0.064-0.317-0.156-0.459s-0.224-0.269-0.403-0.371c-3.491-2.007-6.987-4.016-10.487-6.028
								c-3.505-2.015-7.016-4.032-10.531-6.053c-3.52-2.023-7.045-4.049-10.576-6.079c-3.536-2.032-7.076-4.067-10.622-6.106
								c-0.11-0.064-0.231-0.12-0.359-0.164s-0.262-0.079-0.399-0.1c-0.136-0.021-0.275-0.03-0.411-0.025
								C202.857,241.77,202.724,241.789,202.597,241.825"/>
							<path d="M449.566,385.925c-4.841,8.17-8.731,16.936-11.611,26.097c-2.907,9.247-4.782,18.884-5.568,28.697
								c-0.793,9.892-0.478,19.945,0.997,29.935c1.484,10.051,4.14,20.015,8.013,29.657c4.979,12.397,11.706,23.954,19.844,34.358
								c8.145,10.414,17.671,19.631,28.225,27.354c10.522,7.699,22.025,13.884,34.15,18.276c12.043,4.362,24.656,6.942,37.483,7.487
								c6.112,0.26,12.147,0.076,18.07-0.526c5.892-0.6,11.668-1.614,17.297-3.018c5.596-1.396,11.043-3.175,16.311-5.314
								c5.234-2.127,10.289-4.608,15.133-7.42c5.46-3.17,10.65-6.759,15.528-10.732c4.843-3.944,9.377-8.268,13.561-12.938
								c4.154-4.635,7.963-9.61,11.388-14.896c3.399-5.246,6.421-10.798,9.025-16.625c-2.394-1.364-4.79-2.731-7.189-4.1
								c-2.401-1.369-4.806-2.741-7.212-4.114c-2.409-1.374-4.821-2.75-7.235-4.128c-2.417-1.378-4.836-2.758-7.259-4.139
								c-1.105,2.335-2.301,4.609-3.583,6.821c-1.285,2.218-2.66,4.375-4.122,6.47c-1.466,2.101-3.021,4.139-4.662,6.114
								c-1.646,1.982-3.381,3.901-5.202,5.758c-1.408,1.385-2.857,2.715-4.347,3.991c-1.492,1.278-3.024,2.502-4.593,3.67
								c-1.572,1.171-3.182,2.286-4.824,3.345c-1.646,1.062-3.326,2.065-5.038,3.013c-7.463,4.131-15.505,7.167-23.864,9.05
								c-8.432,1.898-17.175,2.622-25.951,2.114c-8.84-0.513-17.696-2.272-26.279-5.331c-8.626-3.074-16.955-7.452-24.687-13.172
								c-10.234-7.571-18.745-16.78-25.368-27.021c-6.61-10.218-11.311-21.416-13.974-32.984c-2.646-11.495-3.27-23.31-1.771-34.856
								c1.484-11.432,5.043-22.564,10.755-32.837c-2.604-1.496-5.21-2.993-7.82-4.492c-2.613-1.5-5.229-3.002-7.847-4.506
								c-2.622-1.505-5.247-3.012-7.874-4.521C454.835,388.951,452.202,387.439,449.566,385.925"/>
							<path d="M627.91,571.507c-4.844,2.812-9.898,5.293-15.133,7.42c-5.268,2.14-10.715,3.919-16.311,5.314
								c-5.629,1.403-11.405,2.418-17.297,3.018c-5.923,0.603-11.958,0.786-18.07,0.526c-12.827-0.545-25.44-3.125-37.483-7.487
								c-12.125-4.393-23.628-10.577-34.15-18.276c-10.554-7.723-20.08-16.939-28.225-27.354
								c-8.138-10.404-14.865-21.961-19.844-34.358c-3.873-9.642-6.529-19.606-8.013-29.657c-1.475-9.989-1.79-20.043-0.997-29.935
								c0.786-9.813,2.661-19.451,5.568-28.697c2.88-9.161,6.77-17.927,11.611-26.097c2.636,1.514,5.269,3.026,7.898,4.537
								c2.627,1.509,5.252,3.016,7.874,4.521c2.619,1.504,5.234,3.006,7.847,4.506c2.61,1.499,5.217,2.996,7.82,4.492
								c-5.712,10.273-9.271,21.405-10.755,32.837c-1.498,11.546-0.875,23.362,1.771,34.856
								c2.663,11.568,7.364,22.766,13.974,32.984c6.624,10.24,15.134,19.449,25.368,27.021c7.731,5.72,16.061,10.098,24.687,13.172
								c8.583,3.059,17.439,4.818,26.279,5.331c8.776,0.508,17.52-0.216,25.951-2.114c8.359-1.883,16.401-4.919,23.864-9.05
								c1.712-0.947,3.392-1.951,5.038-3.013c1.643-1.059,3.252-2.174,4.824-3.345c1.568-1.168,3.101-2.392,4.593-3.67
								c1.489-1.276,2.938-2.606,4.347-3.991c1.821-1.856,3.556-3.775,5.202-5.758c1.642-1.976,3.196-4.014,4.662-6.114
								c1.462-2.095,2.837-4.252,4.122-6.47c1.282-2.212,2.478-4.486,3.583-6.821c2.423,1.381,4.842,2.761,7.259,4.139
								c2.414,1.378,4.826,2.754,7.235,4.128c2.406,1.373,4.811,2.745,7.212,4.114c2.399,1.368,4.796,2.735,7.189,4.1
								c-2.604,5.827-5.626,11.379-9.025,16.625c-3.425,5.285-7.233,10.261-11.388,14.896c-4.184,4.67-8.718,8.993-13.561,12.938
								C638.561,564.748,633.37,568.337,627.91,571.507 M448.434,383.077c-0.047,0.02-0.093,0.042-0.136,0.067
								c-0.043,0.026-0.085,0.055-0.124,0.087s-0.076,0.068-0.11,0.108c-0.034,0.04-0.066,0.083-0.094,0.129
								c-6.305,10.379-11.024,21.593-14.122,33.3c-3.133,11.841-4.6,24.16-4.372,36.587c0.231,12.54,2.188,25.155,5.885,37.456
								c3.72,12.374,9.19,24.387,16.404,35.635c6.72,10.477,14.76,19.884,23.805,28.067c9.032,8.171,19.035,15.093,29.688,20.628
								c10.604,5.508,21.819,9.625,33.329,12.229c11.424,2.584,23.105,3.671,34.74,3.153c5.053-0.225,10.034-0.763,14.925-1.596
								c4.866-0.83,9.641-1.951,14.302-3.347c4.639-1.389,9.165-3.048,13.561-4.96c4.372-1.902,8.613-4.054,12.706-6.438
								c5.705-3.324,11.12-7.098,16.195-11.275c5.037-4.146,9.739-8.688,14.063-13.582c4.289-4.856,8.205-10.059,11.703-15.563
								c3.472-5.465,6.532-11.229,9.139-17.251c0.061-0.137,0.1-0.292,0.115-0.452c0.017-0.16,0.009-0.326-0.024-0.485
								s-0.093-0.312-0.182-0.445s-0.206-0.249-0.354-0.333c-2.563-1.462-5.127-2.926-7.695-4.392
								c-2.57-1.467-5.145-2.937-7.721-4.407c-2.58-1.474-5.162-2.948-7.746-4.424c-2.588-1.479-5.179-2.958-7.771-4.439
								c-0.094-0.054-0.193-0.098-0.295-0.13c-0.103-0.032-0.208-0.054-0.313-0.062s-0.208-0.004-0.308,0.014
								c-0.1,0.019-0.195,0.05-0.283,0.098c-0.04,0.022-0.079,0.046-0.115,0.075c-0.037,0.028-0.071,0.059-0.104,0.094
								c-0.032,0.035-0.063,0.073-0.09,0.115c-0.028,0.042-0.054,0.087-0.075,0.136c-1.103,2.386-2.296,4.708-3.579,6.965
								c-1.287,2.265-2.665,4.463-4.135,6.598c-1.475,2.14-3.041,4.215-4.7,6.224c-1.665,2.015-3.423,3.964-5.273,5.846
								c-1.387,1.359-2.812,2.664-4.272,3.913c-1.465,1.252-2.966,2.448-4.5,3.589c-1.538,1.144-3.109,2.23-4.712,3.262
								c-1.605,1.032-3.241,2.008-4.905,2.926c-7.184,3.963-14.888,6.855-22.884,8.646c-8.063,1.804-16.412,2.484-24.811,2.009
								c-8.456-0.479-16.946-2.129-25.222-4.975c-8.315-2.859-16.396-6.92-23.983-12.199c-10.313-7.176-18.859-16.15-25.489-26.243
								c-6.617-10.073-11.294-21.21-13.92-32.731c-2.609-11.448-3.181-23.228-1.635-34.68c1.531-11.34,5.134-22.323,10.871-32.327
								c0.078-0.136,0.135-0.289,0.167-0.448c0.031-0.159,0.037-0.323,0.013-0.482c-0.025-0.159-0.08-0.313-0.169-0.451
								s-0.213-0.259-0.377-0.354c-2.785-1.602-5.574-3.205-8.366-4.81c-2.796-1.607-5.595-3.216-8.398-4.827
								c-2.806-1.612-5.616-3.227-8.43-4.843c-2.817-1.618-5.637-3.238-8.46-4.86c-0.1-0.058-0.208-0.107-0.322-0.144
								c-0.113-0.038-0.231-0.064-0.349-0.079c-0.118-0.014-0.237-0.015-0.353-0.002S448.538,383.035,448.434,383.077"/>
							<path d="M317.209,309.942c-13.525,18.735-24.443,39.354-32.55,61.273c-8.291,22.417-13.615,46.118-15.77,70.428
								c-2.195,24.77-1.091,50.057,3.484,75.095c4.637,25.38,12.813,50.351,24.631,74.077
								c12.818,25.725,29.339,49.197,48.784,69.814c19.428,20.6,41.616,38.182,65.731,52.23
								c23.905,13.927,49.524,24.275,76.024,30.636c26.083,6.259,52.842,8.611,79.489,6.747c11.918-0.833,23.7-2.46,35.259-4.852
								c11.433-2.366,22.637-5.48,33.531-9.313c10.77-3.788,21.229-8.276,31.303-13.436c9.953-5.098,19.525-10.849,28.647-17.227
								c0.379-0.266,0.758-0.532,1.136-0.8c0.378-0.267,0.755-0.535,1.132-0.806c0.376-0.27,0.752-0.54,1.126-0.812
								s0.748-0.545,1.12-0.818c10.695-7.855,20.688-16.494,29.924-25.801c9.096-9.168,17.457-18.984,25.03-29.342
								c7.462-10.206,14.162-20.941,20.054-32.108c5.808-11.01,10.833-22.444,15.03-34.216c-2.489-1.42-4.98-2.842-7.475-4.264
								c-2.497-1.425-4.997-2.851-7.499-4.278c-2.506-1.429-5.014-2.86-7.525-4.293c-2.514-1.434-5.031-2.87-7.552-4.308
								c-2.219,5.879-4.677,11.647-7.369,17.296c-2.711,5.688-5.66,11.253-8.842,16.686c-3.204,5.473-6.644,10.81-10.313,16.002
								c-3.696,5.229-7.627,10.312-11.784,15.233c-3.213,3.748-6.553,7.396-10.013,10.932c-3.48,3.557-7.084,7-10.806,10.32
								c-3.742,3.34-7.604,6.555-11.58,9.634c-3.999,3.098-8.113,6.057-12.337,8.867c-1.866,1.243-3.755,2.456-5.664,3.64
								c-1.914,1.186-3.85,2.342-5.806,3.467c-1.96,1.128-3.941,2.224-5.942,3.287c-2.007,1.066-4.032,2.1-6.078,3.099
								c-20.786,10.151-43.074,16.809-66.061,19.933c-23.477,3.189-47.571,2.681-71.377-1.525
								c-24.187-4.273-47.926-12.337-70.222-24.107c-22.502-11.88-43.364-27.446-61.556-46.509
								c-10.026-10.507-19.129-21.851-27.203-33.87c-8.057-11.994-15.069-24.632-20.937-37.744
								c-5.842-13.055-10.537-26.55-13.997-40.319c-3.436-13.677-5.646-27.592-6.553-41.583c-0.871-13.367-0.62-26.642,0.708-39.691
								c1.313-12.917,3.68-25.593,7.05-37.907c3.332-12.172,7.641-23.975,12.879-35.294c5.172-11.178,11.245-21.874,18.17-31.982
								c-3.096-1.778-6.197-3.559-9.302-5.342c-3.109-1.786-6.222-3.573-9.339-5.364c-3.121-1.792-6.247-3.587-9.377-5.383
								C323.49,313.546,320.352,311.745,317.209,309.942"/>
							<path d="M695.773,705.417c-9.122,6.378-18.694,12.129-28.647,17.227c-10.074,5.159-20.533,9.647-31.303,13.436
								c-10.895,3.832-22.099,6.946-33.531,9.313c-11.559,2.392-23.341,4.019-35.259,4.852c-26.647,1.864-53.406-0.488-79.489-6.747
								c-26.5-6.36-52.119-16.709-76.024-30.636c-24.115-14.049-46.303-31.631-65.731-52.23
								c-19.444-20.617-35.965-44.09-48.784-69.814c-11.819-23.727-19.994-48.697-24.631-74.077
								c-4.575-25.038-5.679-50.325-3.484-75.095c2.155-24.311,7.479-48.012,15.77-70.428c8.107-21.919,19.024-42.538,32.55-61.273
								c3.143,1.802,6.281,3.604,9.415,5.402c3.13,1.796,6.256,3.591,9.377,5.383c3.118,1.791,6.23,3.578,9.339,5.364
								c3.105,1.783,6.206,3.563,9.302,5.342c-6.925,10.108-12.998,20.804-18.17,31.982c-5.238,11.319-9.547,23.122-12.879,35.294
								c-3.371,12.313-5.737,24.99-7.05,37.907c-1.327,13.049-1.578,26.324-0.708,39.691c0.907,13.991,3.117,27.906,6.553,41.583
								c3.46,13.77,8.154,27.265,13.997,40.319c5.868,13.112,12.879,25.75,20.937,37.744c8.074,12.02,17.177,23.363,27.203,33.87
								c18.192,19.063,39.054,34.629,61.556,46.509c22.296,11.771,46.036,19.834,70.222,24.107
								c23.806,4.206,47.9,4.715,71.377,1.525c22.986-3.124,45.274-9.781,66.061-19.933c2.046-0.999,4.071-2.032,6.078-3.099
								c2.001-1.063,3.982-2.159,5.942-3.287c1.956-1.125,3.892-2.281,5.806-3.467c1.909-1.184,3.798-2.396,5.664-3.64
								c4.224-2.811,8.338-5.77,12.337-8.867c3.976-3.079,7.838-6.294,11.58-9.634c3.722-3.32,7.325-6.764,10.806-10.32
								c3.46-3.536,6.8-7.184,10.013-10.932c4.157-4.922,8.088-10.004,11.784-15.233c3.67-5.192,7.109-10.529,10.313-16.002
								c3.182-5.433,6.131-10.998,8.842-16.686c2.692-5.648,5.15-11.417,7.369-17.296c2.521,1.438,5.038,2.874,7.552,4.308
								c2.512,1.433,5.02,2.864,7.525,4.293c2.502,1.428,5.002,2.854,7.499,4.278c2.494,1.422,4.985,2.844,7.475,4.264
								c-4.197,11.771-9.223,23.206-15.03,34.216c-5.892,11.167-12.592,21.902-20.054,32.108
								c-7.573,10.357-15.935,20.174-25.03,29.342c-9.235,9.307-19.229,17.945-29.924,25.801c-0.372,0.273-0.746,0.547-1.12,0.818
								s-0.75,0.542-1.126,0.812c-0.377,0.271-0.754,0.539-1.132,0.806C696.531,704.885,696.152,705.151,695.773,705.417
								 M316.138,307.063c-0.052,0.018-0.104,0.039-0.152,0.063s-0.096,0.052-0.141,0.083c-0.045,0.031-0.087,0.066-0.127,0.105
								c-0.04,0.039-0.077,0.081-0.111,0.127c-15.23,20.822-27.186,43.848-35.662,68.338c-8.687,25.1-13.681,51.628-14.791,78.721
								c-1.132,27.633,1.783,55.689,8.877,83.185c7.189,27.861,18.616,54.938,34.308,80.165
								c14.657,23.563,32.521,44.628,52.836,62.77c20.25,18.086,42.783,33.132,66.813,44.803
								c23.785,11.553,48.876,19.721,74.509,24.259c25.213,4.465,50.803,5.39,76.059,2.607c11.099-1.223,21.989-3.166,32.621-5.778
								c10.521-2.585,20.784-5.822,30.741-9.663c9.849-3.799,19.394-8.186,28.593-13.11c9.098-4.87,17.853-10.265,26.229-16.138
								c11.354-7.96,22.006-16.793,31.87-26.388c9.71-9.444,18.655-19.624,26.756-30.437c7.976-10.645,15.136-21.905,21.404-33.686
								c6.176-11.605,11.491-23.721,15.877-36.264c0.049-0.139,0.079-0.294,0.087-0.454s-0.006-0.325-0.043-0.482
								c-0.038-0.158-0.1-0.309-0.188-0.44s-0.202-0.244-0.345-0.327c-2.648-1.51-5.3-3.022-7.954-4.537
								c-2.657-1.517-5.318-3.036-7.982-4.557c-2.668-1.522-5.338-3.047-8.012-4.573c-2.676-1.528-5.355-3.059-8.037-4.59
								c-0.089-0.05-0.183-0.091-0.278-0.12c-0.097-0.028-0.195-0.047-0.292-0.052c-0.098-0.006-0.194,0.002-0.286,0.022
								s-0.18,0.056-0.26,0.105c-0.035,0.022-0.07,0.049-0.103,0.077c-0.032,0.029-0.063,0.062-0.092,0.097
								s-0.055,0.074-0.078,0.116s-0.045,0.088-0.063,0.137c-2.21,5.927-4.664,11.739-7.356,17.428
								c-2.712,5.729-5.665,11.331-8.856,16.799c-3.214,5.507-6.669,10.877-10.359,16.099c-3.719,5.26-7.677,10.37-11.87,15.317
								c-3.179,3.698-6.479,7.282-9.893,10.747c-3.434,3.484-6.983,6.849-10.645,10.086c-3.681,3.256-7.474,6.385-11.372,9.38
								c-3.92,3.013-7.947,5.891-12.075,8.628c-5.516,3.657-11.21,7.064-17.07,10.208c-5.902,3.167-11.971,6.065-18.19,8.682
								c-6.264,2.636-12.68,4.985-19.23,7.035c-6.597,2.063-13.329,3.823-20.181,5.264c-11.85,2.491-23.952,3.957-36.174,4.409
								c-12.347,0.456-24.797-0.124-37.209-1.726c-12.521-1.615-24.982-4.269-37.237-7.938c-12.34-3.696-24.447-8.418-36.166-14.137
								c-12.74-6.217-24.908-13.627-36.371-22.083c-11.498-8.482-22.258-17.997-32.152-28.389
								c-9.899-10.396-18.907-21.646-26.902-33.585c-7.979-11.915-14.931-24.489-20.742-37.558
								c-5.952-13.382-10.586-27.214-13.916-41.277c-3.307-13.964-5.32-28.124-6.067-42.271c-0.74-14.017-0.235-27.994,1.482-41.734
								c1.698-13.589,4.578-26.925,8.604-39.825c1.67-5.352,3.55-10.619,5.625-15.789c2.064-5.142,4.321-10.188,6.759-15.128
								c2.424-4.912,5.025-9.719,7.792-14.409c2.75-4.664,5.663-9.213,8.726-13.638c0.092-0.133,0.161-0.284,0.203-0.441
								s0.056-0.321,0.038-0.481c-0.019-0.16-0.07-0.315-0.16-0.456c-0.09-0.141-0.218-0.266-0.391-0.365
								c-3.287-1.889-6.579-3.782-9.876-5.677c-3.301-1.898-6.607-3.799-9.918-5.702c-3.315-1.906-6.636-3.814-9.96-5.725
								c-3.33-1.913-6.664-3.829-10.003-5.746c-0.105-0.062-0.221-0.114-0.342-0.155s-0.248-0.072-0.375-0.089
								c-0.128-0.018-0.257-0.023-0.384-0.014C316.377,307.001,316.254,307.024,316.138,307.063"/>
						</g>
					</g>
				</g>
			</g>
		</g>
	</g>
</g>
</svg>
