<?xml version="1.0" encoding="utf-8"?>
<!-- Generator: Adobe Illustrator 16.0.0, SVG Export Plug-In . SVG Version: 6.00 Build 0)  -->
<!DOCTYPE svg PUBLIC "-//W3C//DTD SVG 1.1//EN" "http://www.w3.org/Graphics/SVG/1.1/DTD/svg11.dtd">
<svg version="1.1" id="Layer_1" xmlns="http://www.w3.org/2000/svg" xmlns:xlink="http://www.w3.org/1999/xlink" x="0px" y="0px"
	 width="1024px" height="1024px" viewBox="0 0 1024 1024" enable-background="new 0 0 1024 1024" xml:space="preserve">
<g>
	<g>
		<g enable-background="new    ">
			<defs>
				<polygon id="SVGID_1_" enable-background="new    " points="-2.091,1266.616 160.336,1.917 810.954,172.623 1064.96,755.845 
									"/>
			</defs>
			<clipPath id="SVGID_2_">
				<use xlink:href="#SVGID_1_"  overflow="visible"/>
			</clipPath>
			<g clip-path="url(#SVGID_2_)">
				<g>
					<g>
						<g>
							<path d="M626.438,324.246l3.938,88.464l41.006-66.09c-1.706-1.289-3.438-2.537-5.195-3.742
								c-1.758-1.207-3.541-2.372-5.346-3.493c-1.808-1.123-3.637-2.202-5.487-3.236c-1.854-1.036-3.728-2.027-5.62-2.973
								c-1.896-0.946-3.805-1.843-5.723-2.689c-1.924-0.848-3.857-1.645-5.799-2.39c-1.946-0.747-3.901-1.441-5.861-2.083
								C630.385,325.37,628.413,324.781,626.438,324.246"/>
							<path d="M630.376,412.71l-3.938-88.464c1.975,0.535,3.946,1.124,5.912,1.768c1.96,0.642,3.915,1.336,5.861,2.083
								c1.941,0.745,3.875,1.542,5.799,2.39c1.918,0.847,3.827,1.743,5.723,2.689c1.893,0.945,3.767,1.937,5.62,2.973
								c1.851,1.034,3.68,2.113,5.487,3.236c1.805,1.121,3.588,2.286,5.346,3.493c1.757,1.205,3.489,2.453,5.195,3.742
								L630.376,412.71 M625.561,323.26l4.045,92.608l42.85-69.249c-1.739-1.332-3.513-2.628-5.321-3.885
								c-1.811-1.259-3.656-2.479-5.535-3.657c-1.882-1.181-3.797-2.321-5.746-3.417c-1.951-1.099-3.938-2.153-5.955-3.161
								c-2.021-1.009-4.045-1.956-6.069-2.843c-2.028-0.89-4.059-1.718-6.087-2.486c-2.033-0.771-4.064-1.48-6.093-2.132
								C629.615,324.386,627.585,323.793,625.561,323.26"/>
							<path d="M622.468,234.994l2.59,58.218c2.671,0.775,5.334,1.621,7.986,2.537c2.645,0.912,5.277,1.895,7.897,2.943
								c2.611,1.046,5.21,2.158,7.792,3.337c2.574,1.176,5.134,2.417,7.673,3.722c2.534,1.303,5.042,2.666,7.522,4.087
								c2.476,1.418,4.924,2.895,7.34,4.427c2.414,1.529,4.797,3.115,7.146,4.755c2.348,1.638,4.662,3.329,6.942,5.074
								l25.663-41.356c-3.322-2.596-6.696-5.121-10.116-7.574c-3.427-2.457-6.902-4.843-10.422-7.152
								c-3.528-2.314-7.104-4.556-10.72-6.718c-3.628-2.169-7.3-4.26-11.012-6.271c-3.725-2.017-7.48-3.948-11.264-5.79
								c-3.798-1.849-7.625-3.609-11.475-5.278c-3.868-1.678-7.762-3.263-11.677-4.753
								C630.401,237.703,626.444,236.3,622.468,234.994"/>
							<path d="M685.357,324.094c-2.28-1.745-4.595-3.437-6.942-5.074c-2.35-1.64-4.732-3.226-7.146-4.755
								c-2.416-1.532-4.864-3.009-7.34-4.427c-2.48-1.421-4.988-2.784-7.522-4.087c-2.539-1.305-5.099-2.546-7.673-3.722
								c-2.582-1.179-5.181-2.291-7.792-3.337c-2.62-1.049-5.253-2.031-7.897-2.943c-2.652-0.916-5.315-1.762-7.986-2.537
								l-2.59-58.218c3.977,1.306,7.934,2.709,11.868,4.207c3.915,1.49,7.809,3.075,11.677,4.753
								c3.85,1.669,7.677,3.43,11.475,5.278c3.783,1.842,7.539,3.773,11.264,5.79c3.712,2.011,7.384,4.102,11.012,6.271
								c3.616,2.162,7.191,4.403,10.72,6.718c3.52,2.31,6.995,4.695,10.422,7.152c3.42,2.453,6.794,4.979,10.116,7.574
								L685.357,324.094 M621.658,234.1l2.61,59.594c2.672,0.758,5.35,1.592,8.029,2.501c2.67,0.906,5.342,1.889,8.014,2.947
								c2.664,1.055,5.327,2.187,7.988,3.395c2.654,1.205,5.306,2.487,7.953,3.848c2.643,1.356,5.24,2.771,7.793,4.238
								c2.548,1.464,5.052,2.982,7.51,4.552c2.455,1.566,4.865,3.185,7.23,4.85c2.362,1.663,4.68,3.374,6.953,5.129l26.206-42.356
								c-3.316-2.605-6.696-5.153-10.141-7.638c-3.45-2.489-6.967-4.917-10.547-7.278c-3.59-2.367-7.245-4.668-10.968-6.9
								c-3.732-2.238-7.534-4.408-11.403-6.503c-3.882-2.104-7.773-4.103-11.671-5.996c-3.914-1.901-7.836-3.698-11.764-5.391
								c-3.945-1.701-7.898-3.298-11.854-4.792C629.622,236.796,625.641,235.396,621.658,234.1"/>
							<path d="M619.11,159.564l2.195,49.323c4.563,1.577,9.1,3.264,13.608,5.054c4.481,1.779,8.937,3.663,13.36,5.646
								c4.398,1.974,8.769,4.046,13.103,6.217c4.314,2.16,8.596,4.417,12.84,6.769c4.228,2.34,8.407,4.77,12.538,7.283
								c4.115,2.506,8.182,5.096,12.195,7.769c4.002,2.665,7.954,5.413,11.851,8.24c3.888,2.82,7.723,5.721,11.5,8.698
								l20.936-33.743c-4.607-3.688-9.285-7.289-14.028-10.802c-4.758-3.522-9.584-6.957-14.475-10.302
								c-4.908-3.355-9.886-6.622-14.926-9.795c-5.063-3.187-10.191-6.281-15.385-9.279c-5.219-3.012-10.484-5.916-15.792-8.71
								c-5.339-2.81-10.724-5.51-16.147-8.096c-5.46-2.604-10.965-5.094-16.506-7.465
								C630.396,163.983,624.771,161.712,619.11,159.564"/>
							<path d="M722.301,264.563c-3.777-2.978-7.612-5.878-11.5-8.698c-3.896-2.827-7.849-5.575-11.851-8.24
								c-4.014-2.673-8.08-5.263-12.195-7.769c-4.131-2.514-8.311-4.943-12.538-7.283c-4.244-2.352-8.525-4.608-12.84-6.769
								c-4.334-2.171-8.704-4.243-13.103-6.217c-4.424-1.983-8.879-3.867-13.36-5.646c-4.509-1.79-9.046-3.477-13.608-5.054
								l-2.195-49.323c5.66,2.147,11.285,4.419,16.867,6.808c5.541,2.371,11.046,4.861,16.506,7.465
								c5.424,2.586,10.809,5.286,16.147,8.096c5.308,2.794,10.573,5.698,15.792,8.71c5.193,2.998,10.322,6.093,15.385,9.279
								c5.04,3.173,10.018,6.439,14.926,9.795c4.891,3.345,9.717,6.779,14.475,10.302c4.743,3.513,9.421,7.114,14.028,10.802
								L722.301,264.563 M618.37,158.753l2.201,50.481c4.528,1.552,9.052,3.216,13.566,4.993c4.488,1.767,8.971,3.646,13.443,5.638
								c4.448,1.981,8.889,4.076,13.318,6.284c4.408,2.198,8.808,4.511,13.195,6.938c4.367,2.419,8.657,4.916,12.871,7.487
								c4.197,2.563,8.322,5.199,12.371,7.905c4.037,2.699,8.002,5.469,11.894,8.305c3.883,2.83,7.695,5.728,11.436,8.688
								l21.38-34.555c-4.577-3.676-9.242-7.282-13.992-10.813c-4.764-3.541-9.618-7.01-14.561-10.401
								c-4.961-3.402-10.014-6.73-15.16-9.977c-5.168-3.261-10.434-6.442-15.797-9.539c-5.393-3.113-10.804-6.096-16.23-8.948
								c-5.459-2.869-10.938-5.608-16.432-8.22c-5.529-2.627-11.078-5.126-16.642-7.495
								C629.628,163.138,624.006,160.881,618.37,158.753"/>
							<path d="M636.592,416.956l88.788,25.133c-0.096-1.909-0.248-3.826-0.455-5.749c-0.207-1.916-0.468-3.838-0.783-5.763
								c-0.314-1.918-0.682-3.84-1.102-5.762c-0.419-1.916-0.891-3.833-1.414-5.748L636.592,416.956"/>
							<path d="M725.38,442.089l-88.788-25.133l85.034,2.111c0.523,1.915,0.995,3.832,1.414,5.748
								c0.42,1.922,0.787,3.844,1.102,5.762c0.315,1.925,0.576,3.847,0.783,5.763C725.132,438.263,725.284,440.18,725.38,442.089
								 M629.605,415.868l96.62,27.291c-0.087-2.1-0.242-4.199-0.461-6.297c-0.219-2.09-0.502-4.178-0.846-6.261
								c-0.344-2.076-0.748-4.147-1.212-6.212c-0.462-2.057-0.982-4.107-1.56-6.148L629.605,415.868"/>
							<path d="M837.042,421.937c1.635,4.534,3.162,9.091,4.578,13.664c1.426,4.605,2.742,9.23,3.943,13.868
								c1.211,4.673,2.307,9.362,3.284,14.061c0.985,4.737,1.852,9.485,2.595,14.24l55.967,15.84
								c-1.234-6.079-2.61-12.133-4.124-18.154c-1.499-5.961-3.133-11.894-4.899-17.792c-1.749-5.843-3.629-11.654-5.637-17.429
								c-1.989-5.725-4.104-11.415-6.343-17.066L837.042,421.937"/>
							<path d="M907.409,493.609l-55.967-15.84c-0.743-4.755-1.609-9.503-2.595-14.24c-0.978-4.698-2.073-9.388-3.284-14.061
								c-1.201-4.638-2.518-9.263-3.943-13.868c-1.416-4.573-2.943-9.13-4.578-13.664l49.364,1.231
								c2.238,5.651,4.354,11.342,6.343,17.066c2.008,5.774,3.888,11.586,5.637,17.429c1.767,5.898,3.4,11.831,4.899,17.792
								C904.799,481.477,906.175,487.53,907.409,493.609 M836.163,421.167c1.66,4.573,3.215,9.186,4.662,13.832
								c1.457,4.68,2.805,9.396,4.037,14.146c1.241,4.785,2.367,9.607,3.37,14.459c1.012,4.893,1.899,9.819,2.657,14.774
								l57.302,16.188c-1.273-6.322-2.694-12.592-4.255-18.801c-1.545-6.146-3.227-12.237-5.041-18.27
								c-1.796-5.976-3.722-11.897-5.771-17.762c-2.031-5.812-4.186-11.57-6.456-17.271L836.163,421.167"/>
							<path d="M752.674,419.84c0.781,2.62,1.492,5.244,2.133,7.869c0.644,2.636,1.215,5.274,1.714,7.911
								c0.502,2.647,0.932,5.294,1.286,7.936c0.356,2.654,0.639,5.304,0.845,7.945l63.684,18.032
								c-0.541-4.083-1.189-8.167-1.945-12.245c-0.751-4.051-1.606-8.097-2.565-12.134c-0.953-4.011-2.008-8.015-3.162-12.005
								c-1.147-3.967-2.395-7.923-3.739-11.862L752.674,419.84"/>
							<path d="M822.335,469.533l-63.684-18.032c-0.206-2.642-0.488-5.291-0.845-7.945c-0.354-2.642-0.784-5.288-1.286-7.936
								c-0.499-2.637-1.07-5.275-1.714-7.911c-0.641-2.625-1.352-5.249-2.133-7.869l58.249,1.447
								c1.345,3.939,2.592,7.896,3.739,11.862c1.154,3.99,2.209,7.994,3.162,12.005c0.959,4.037,1.814,8.083,2.565,12.134
								C821.146,461.366,821.794,465.45,822.335,469.533 M751.714,419.003c0.816,2.693,1.563,5.404,2.234,8.126
								c0.675,2.734,1.275,5.481,1.798,8.237c0.525,2.77,0.972,5.549,1.337,8.335c0.367,2.8,0.652,5.606,0.852,8.417l65.213,18.422
								c-0.557-4.306-1.23-8.592-2.018-12.854c-0.781-4.23-1.674-8.439-2.674-12.622c-0.992-4.155-2.091-8.285-3.29-12.387
								c-1.192-4.076-2.483-8.126-3.871-12.146L751.714,419.003"/>
							<path d="M454.669,244.929c-3.744,2.037-7.402,4.211-10.97,6.518c-3.604,2.332-7.115,4.8-10.526,7.402
								c-3.447,2.631-6.791,5.398-10.025,8.301c-3.27,2.935-6.426,6.006-9.463,9.213l81.066,52.012
								c1.61-2.137,3.301-4.198,5.068-6.184c1.755-1.972,3.585-3.868,5.486-5.688c1.889-1.807,3.847-3.537,5.871-5.188
								c2.011-1.641,4.086-3.204,6.224-4.688L454.669,244.929"/>
							<path d="M494.751,328.374l-81.066-52.012c3.037-3.207,6.193-6.278,9.463-9.213c3.234-2.902,6.578-5.67,10.025-8.301
								c3.411-2.603,6.922-5.07,10.526-7.402c3.567-2.307,7.226-4.48,10.97-6.518l62.731,61.698
								c-2.138,1.483-4.213,3.047-6.224,4.688c-2.024,1.651-3.982,3.382-5.871,5.188c-1.901,1.819-3.731,3.716-5.486,5.688
								C498.052,324.176,496.361,326.237,494.751,328.374 M454.671,243.815c-3.836,2.058-7.598,4.265-11.277,6.621
								c-3.72,2.381-7.355,4.916-10.898,7.605c-3.582,2.719-7.068,5.597-10.451,8.634c-3.419,3.071-6.73,6.306-9.925,9.706
								l83.046,53.26c1.691-2.289,3.466-4.483,5.317-6.584c1.839-2.087,3.755-4.08,5.74-5.98c1.972-1.887,4.014-3.683,6.12-5.387
								c2.091-1.692,4.246-3.294,6.459-4.806L454.671,243.815"/>
							<path d="M548.042,336.767c-1.444,1.127-2.844,2.309-4.193,3.543c-1.357,1.239-2.664,2.531-3.922,3.874
								c-1.262,1.35-2.474,2.75-3.632,4.2c-1.163,1.456-2.272,2.963-3.325,4.518l90.533,58.09L548.042,336.767"/>
							<path d="M623.503,410.991l-90.533-58.09c1.053-1.555,2.162-3.062,3.325-4.518c1.158-1.45,2.37-2.851,3.632-4.2
								c1.258-1.343,2.564-2.635,3.922-3.874c1.35-1.234,2.749-2.416,4.193-3.543L623.503,410.991 M547.951,335.561
								c-1.557,1.183-3.067,2.431-4.528,3.744c-1.469,1.319-2.888,2.705-4.252,4.155c-1.371,1.458-2.688,2.981-3.947,4.57
								c-1.266,1.596-2.472,3.259-3.615,4.987l97.997,62.851L547.951,335.561"/>
							<path d="M361.318,153.117c-6.577,2.424-13.067,5.069-19.459,7.938c-6.497,2.915-12.893,6.061-19.174,9.438
								c-6.387,3.432-12.655,7.103-18.792,11.012c-6.242,3.977-12.347,8.198-18.299,12.667l87.086,55.875
								c3.881-3.666,7.896-7.163,12.039-10.489c4.089-3.285,8.301-6.403,12.625-9.352c4.271-2.913,8.65-5.661,13.131-8.242
								c4.427-2.55,8.951-4.938,13.565-7.16L361.318,153.117"/>
							<path d="M372.681,250.047l-87.086-55.875c5.952-4.469,12.057-8.69,18.299-12.667c6.137-3.909,12.405-7.58,18.792-11.012
								c6.281-3.377,12.677-6.522,19.174-9.438c6.392-2.869,12.882-5.515,19.459-7.938l62.723,61.687
								c-4.614,2.223-9.139,4.61-13.565,7.16c-4.48,2.581-8.86,5.329-13.131,8.242c-4.324,2.948-8.536,6.066-12.625,9.352
								C380.577,242.884,376.562,246.381,372.681,250.047 M361.425,152.099c-6.653,2.422-13.241,5.077-19.749,7.97
								c-6.616,2.941-13.151,6.13-19.59,9.571c-6.548,3.5-12.998,7.262-19.332,11.293c-6.444,4.102-12.771,8.482-18.96,13.147
								l89.221,57.22c4.02-3.844,8.168-7.485,12.433-10.93c4.21-3.399,8.533-6.605,12.958-9.622
								c4.368-2.979,8.836-5.772,13.391-8.384c4.498-2.579,9.082-4.981,13.74-7.21L361.425,152.099"/>
							<path d="M600.014,320.426c-3.268-0.05-6.511,0.067-9.711,0.349c-3.222,0.283-6.4,0.733-9.519,1.348
								c-3.139,0.619-6.218,1.404-9.214,2.355c-3.019,0.958-5.955,2.084-8.789,3.375l64.713,83.956L600.014,320.426"/>
							<path d="M627.494,411.809l-64.713-83.956c2.834-1.291,5.771-2.417,8.789-3.375c2.996-0.951,6.075-1.736,9.214-2.355
								c3.118-0.614,6.297-1.064,9.519-1.348c3.2-0.281,6.443-0.398,9.711-0.349L627.494,411.809 M600.614,319.635
								c-3.474-0.085-6.904,0.013-10.279,0.289c-3.397,0.279-6.74,0.74-10.012,1.383c-3.295,0.647-6.521,1.479-9.66,2.492
								c-3.164,1.021-6.242,2.229-9.219,3.62l68.161,88.449L600.614,319.635"/>
							<path d="M545.475,139.067c-5.157-0.928-10.331-1.753-15.517-2.474c-5.236-0.728-10.484-1.349-15.739-1.861
								c-5.308-0.519-10.623-0.926-15.938-1.22c-5.372-0.298-10.746-0.479-16.115-0.544c-5.41-0.063-10.82-0.008-16.222,0.169
								c-5.463,0.18-10.918,0.482-16.356,0.911c-5.504,0.433-10.992,0.995-16.457,1.688c-5.53,0.701-11.038,1.535-16.514,2.505
								l47.692,61.865c8.003-2.072,16.171-3.718,24.443-4.945c8.124-1.206,16.356-2.009,24.641-2.418
								c8.146-0.402,16.351-0.424,24.565-0.071c8.086,0.347,16.192,1.057,24.273,2.125L545.475,139.067"/>
							<path d="M464.309,200.106l-47.692-61.865c5.476-0.97,10.983-1.804,16.514-2.505c5.465-0.692,10.953-1.255,16.457-1.688
								c5.438-0.429,10.894-0.731,16.356-0.911c5.401-0.177,10.812-0.232,16.222-0.169c5.369,0.064,10.743,0.246,16.115,0.544
								c5.315,0.294,10.631,0.701,15.938,1.22c5.255,0.513,10.503,1.134,15.739,1.861c5.186,0.721,10.359,1.546,15.517,2.474
								l16.757,55.729c-8.081-1.068-16.188-1.778-24.273-2.125c-8.215-0.353-16.42-0.331-24.565,0.071
								c-8.284,0.409-16.517,1.212-24.641,2.418C480.479,196.389,472.312,198.034,464.309,200.106 M546.071,138.587
								c-10.574-1.929-21.182-3.424-31.787-4.474c-10.821-1.071-21.656-1.682-32.465-1.817c-11.048-0.14-22.084,0.217-33.062,1.086
								c-11.239,0.889-22.433,2.314-33.526,4.299l48.834,63.369c8.123-2.145,16.384-3.847,24.74-5.116
								c8.205-1.246,16.51-2.076,24.879-2.498c8.226-0.415,16.521-0.435,24.854-0.066c8.199,0.362,16.443,1.101,24.702,2.211
								L546.071,138.587"/>
							<path d="M570.95,223.794c-6.938-0.738-13.879-1.155-20.787-1.251c-7.002-0.098-13.978,0.136-20.881,0.704
								c-7.006,0.576-13.945,1.498-20.771,2.77c-6.933,1.291-13.753,2.943-20.409,4.962l49.807,64.612
								c4.037-1.627,8.206-3.021,12.478-4.182c4.229-1.148,8.558-2.068,12.959-2.758c4.359-0.684,8.791-1.142,13.269-1.374
								c4.437-0.23,8.92-0.238,13.426-0.023L570.95,223.794"/>
							<path d="M537.909,295.591l-49.807-64.612c6.656-2.019,13.477-3.671,20.409-4.962c6.825-1.271,13.765-2.193,20.771-2.77
								c6.903-0.568,13.879-0.802,20.881-0.704c6.908,0.096,13.85,0.513,20.787,1.251l19.09,63.46
								c-4.506-0.215-8.989-0.207-13.426,0.023c-4.478,0.232-8.909,0.69-13.269,1.374c-4.401,0.689-8.73,1.609-12.959,2.758
								C546.115,292.569,541.946,293.964,537.909,295.591 M571.555,223.176c-7.164-0.792-14.298-1.249-21.377-1.368
								c-7.178-0.121-14.305,0.104-21.352,0.682c-7.153,0.585-14.229,1.531-21.198,2.845c-7.08,1.334-14.053,3.047-20.885,5.144
								l51,66.187c4.133-1.708,8.389-3.167,12.745-4.378c4.313-1.197,8.727-2.151,13.22-2.861c4.451-0.703,8.982-1.168,13.574-1.394
								c4.551-0.223,9.164-0.211,13.822,0.037L571.555,223.176"/>
							<path d="M796.586,280.716l-30.349,24.799c5.364,5.898,10.546,11.992,15.519,18.245c4.989,6.272,9.777,12.717,14.339,19.297
								c4.583,6.611,8.945,13.371,13.057,20.243c4.139,6.916,8.031,13.958,11.648,21.087l44.35-7.071
								c-2.348-4.397-4.771-8.763-7.266-13.09c-2.484-4.308-5.04-8.58-7.664-12.811c-2.613-4.215-5.296-8.391-8.043-12.522
								c-2.737-4.117-5.541-8.193-8.405-12.223c-2.866-4.028-5.797-8.015-8.789-11.954c-2.985-3.93-6.031-7.814-9.136-11.65
								c-3.1-3.827-6.257-7.607-9.47-11.336C803.169,288.007,799.903,284.334,796.586,280.716"/>
							<path d="M820.8,384.387c-3.617-7.129-7.51-14.171-11.648-21.087c-4.111-6.872-8.474-13.632-13.057-20.243
								c-4.562-6.58-9.35-13.024-14.339-19.297c-4.973-6.253-10.154-12.347-15.519-18.245l30.349-24.799
								c3.317,3.618,6.583,7.291,9.791,11.014c3.213,3.729,6.37,7.509,9.47,11.336c3.104,3.836,6.15,7.721,9.136,11.65
								c2.992,3.939,5.923,7.926,8.789,11.954c2.864,4.029,5.668,8.105,8.405,12.223c2.747,4.132,5.43,8.308,8.043,12.522
								c2.624,4.23,5.18,8.503,7.664,12.811c2.494,4.327,4.918,8.692,7.266,13.09L820.8,384.387 M796.413,279.894l-31.089,25.343
								c5.5,6.021,10.784,12.211,15.838,18.548c5.07,6.357,9.917,12.873,14.524,19.524c4.631,6.685,9.028,13.517,13.174,20.475
								c4.172,7.004,8.098,14.147,11.755,21.406l45.375-7.285c-4.755-8.938-9.808-17.721-15.136-26.322
								c-5.283-8.532-10.848-16.904-16.673-25.092c-5.789-8.138-11.847-16.109-18.153-23.89
								C809.745,294.851,803.201,287.272,796.413,279.894"/>
							<path d="M692.287,365.954l-59.215,48.398l82.137-13.112c-1.413-3.153-2.968-6.276-4.652-9.354
								c-1.679-3.068-3.487-6.092-5.413-9.054c-1.922-2.956-3.963-5.853-6.109-8.672
								C696.89,371.345,694.637,368.604,692.287,365.954"/>
							<path d="M633.072,414.353l59.215-48.398c2.35,2.65,4.603,5.391,6.747,8.207c2.146,2.819,4.188,5.716,6.109,8.672
								c1.926,2.962,3.734,5.985,5.413,9.054c1.685,3.077,3.239,6.2,4.652,9.354L633.072,414.353 M692.181,364.863l-62.575,51.005
								l86.67-13.919c-1.467-3.333-3.081-6.623-4.835-9.857c-1.749-3.226-3.637-6.397-5.656-9.503
								c-2.015-3.1-4.161-6.135-6.432-9.095C697.085,370.539,694.691,367.658,692.181,364.863"/>
							<path d="M749.876,318.894L712.61,349.35c3.171,3.547,6.217,7.216,9.123,10.984c2.911,3.774,5.685,7.653,8.305,11.612
								c2.629,3.971,5.105,8.026,7.413,12.145c2.317,4.134,4.467,8.334,6.432,12.578l53.252-8.503
								c-3.082-6.249-6.415-12.423-9.974-18.491c-3.539-6.033-7.306-11.971-11.275-17.779c-3.953-5.784-8.115-11.449-12.461-16.963
								C759.092,329.435,754.568,324.077,749.876,318.894"/>
							<path d="M743.883,396.669c-1.965-4.244-4.114-8.444-6.432-12.578c-2.308-4.118-4.784-8.174-7.413-12.145
								c-2.62-3.959-5.394-7.838-8.305-11.612c-2.906-3.769-5.952-7.438-9.123-10.984l37.266-30.456
								c4.692,5.184,9.216,10.541,13.549,16.039c4.346,5.514,8.508,11.179,12.461,16.963c3.97,5.809,7.736,11.746,11.275,17.779
								c3.559,6.068,6.892,12.242,9.974,18.491L743.883,396.669 M749.727,317.952l-38.177,31.117
								c3.297,3.653,6.445,7.417,9.436,11.275c2.997,3.867,5.839,7.832,8.516,11.879c2.684,4.061,5.205,8.207,7.551,12.426
								c2.355,4.235,4.538,8.547,6.535,12.917l54.496-8.753c-3.146-6.421-6.539-12.744-10.162-18.946
								c-3.603-6.166-7.437-12.224-11.487-18.149c-4.032-5.9-8.286-11.681-12.745-17.318
								C759.241,328.777,754.583,323.288,749.727,317.952"/>
							<path d="M314.665,107.231c-8.203,2.423-16.336,5.108-24.38,8.06c-8.201,3.009-16.313,6.293-24.321,9.856
								c-8.166,3.635-16.225,7.561-24.156,11.778c-8.093,4.304-16.055,8.913-23.865,13.83l32.02,20.553
								c6.906-4.724,13.965-9.168,21.158-13.335c7.061-4.091,14.252-7.914,21.558-11.472c7.173-3.493,14.458-6.729,21.839-9.711
								c7.25-2.929,14.595-5.612,22.021-8.05L314.665,107.231"/>
							<path d="M249.962,171.309l-32.02-20.553c7.811-4.917,15.772-9.526,23.865-13.83c7.932-4.218,15.99-8.144,24.156-11.778
								c8.008-3.563,16.12-6.848,24.321-9.856c8.044-2.951,16.177-5.637,24.38-8.06l21.872,21.51
								c-7.426,2.438-14.771,5.121-22.021,8.05c-7.381,2.981-14.666,6.218-21.839,9.711c-7.306,3.558-14.497,7.381-21.558,11.472
								C263.927,162.141,256.868,166.585,249.962,171.309 M314.819,106.261c-8.264,2.41-16.484,5.094-24.642,8.058
								c-8.317,3.022-16.575,6.339-24.751,9.956c-8.344,3.691-16.605,7.698-24.766,12.03c-8.331,4.422-16.559,9.184-24.66,14.295
								l34.22,21.944c7.104-4.905,14.344-9.493,21.696-13.772c7.215-4.199,14.541-8.102,21.959-11.715
								c7.283-3.547,14.656-6.816,22.102-9.815c7.313-2.945,14.7-5.631,22.144-8.063L314.819,106.261"/>
							<path d="M344.474,287.724c-4.891,7.546-9.303,15.423-13.216,23.618c-3.987,8.351-7.451,17.024-10.37,26.006
								c-2.971,9.145-5.372,18.599-7.182,28.344c-1.842,9.913-3.067,20.115-3.656,30.586c-0.586,10.369-0.542,20.876,0.14,31.491
								c0.692,10.766,2.039,21.623,4.051,32.54c2.036,11.053,4.748,22.146,8.142,33.245c3.429,11.217,7.546,22.416,12.351,33.562
								c4.847,11.243,10.322,22.266,16.409,33.026c6.127,10.828,12.858,21.367,20.177,31.576
								c7.347,10.25,15.267,20.145,23.735,29.645c8.481,9.514,17.492,18.61,27.003,27.254c9.839,8.938,20.083,17.27,30.69,24.969
								c10.57,7.672,21.475,14.696,32.67,21.053c11.128,6.317,22.516,11.96,34.119,16.912c11.506,4.909,23.197,9.129,35.03,12.648
								c13.386,3.982,26.667,6.993,39.795,9.048c12.937,2.024,25.694,3.114,38.231,3.289c12.328,0.173,24.418-0.54,36.231-2.112
								c11.594-1.543,22.9-3.91,33.889-7.076c12.905-3.718,25.148-8.496,36.658-14.231c11.215-5.589,21.719-12.079,31.457-19.376
								c9.481-7.105,18.229-14.971,26.201-23.51c7.759-8.311,14.778-17.258,21.025-26.766c6.205-9.443,11.575-19.345,16.122-29.609
								c4.428-9.996,8.079-20.346,10.963-30.962c2.812-10.354,4.897-20.976,6.266-31.791c1.336-10.563,1.989-21.327,1.966-32.228
								l-27.666-12.563c-0.514,19.224-3.495,37.611-8.847,54.797c-5.588,17.941-13.774,34.621-24.455,49.552
								c-11.179,15.629-25.096,29.348-41.588,40.537c-17.268,11.715-37.318,20.63-59.874,26.001
								c-9.306,2.216-18.845,3.772-28.591,4.651c-9.9,0.894-19.998,1.088-30.264,0.566c-10.411-0.529-20.977-1.793-31.663-3.803
								c-10.817-2.034-21.737-4.829-32.726-8.392c-40.005-12.972-76.644-34.949-107.775-63.338
								c-31.223-28.473-55.889-62.468-72.562-98.921c-16.218-35.459-24.424-72.269-24.03-107.673
								c0.375-33.621,8.5-65.275,24.403-92.92L344.474,287.724"/>
							<path d="M702.713,727.347c-10.988,3.166-22.295,5.533-33.889,7.076c-11.813,1.572-23.903,2.285-36.231,2.112
								c-12.537-0.175-25.295-1.265-38.231-3.289c-13.128-2.055-26.409-5.065-39.795-9.048c-11.833-3.52-23.524-7.739-35.03-12.648
								c-11.604-4.952-22.991-10.595-34.119-16.912c-11.195-6.356-22.1-13.381-32.67-21.053
								c-10.607-7.699-20.852-16.031-30.69-24.969c-9.511-8.644-18.521-17.74-27.003-27.254c-8.469-9.5-16.389-19.395-23.735-29.645
								c-7.318-10.209-14.05-20.748-20.177-31.576c-6.087-10.761-11.563-21.783-16.409-33.026
								c-4.805-11.146-8.922-22.345-12.351-33.562c-3.394-11.099-6.105-22.192-8.142-33.245c-2.012-10.917-3.358-21.774-4.051-32.54
								c-0.682-10.615-0.726-21.122-0.14-31.491c0.589-10.471,1.814-20.673,3.656-30.586c1.81-9.745,4.211-19.199,7.182-28.344
								c2.919-8.981,6.383-17.655,10.37-26.006c3.913-8.195,8.325-16.072,13.216-23.618l43.261,19.646
								c-15.903,27.645-24.028,59.299-24.403,92.92c-0.394,35.404,7.813,72.214,24.03,107.673
								c16.673,36.453,41.339,70.448,72.562,98.921c31.132,28.389,67.771,50.366,107.775,63.338
								c10.988,3.563,21.908,6.357,32.726,8.392c10.687,2.01,21.252,3.273,31.663,3.803c10.266,0.521,20.363,0.327,30.264-0.566
								c9.746-0.879,19.285-2.436,28.591-4.651c22.556-5.371,42.606-14.286,59.874-26.001
								c16.492-11.189,30.409-24.908,41.588-40.537c10.681-14.931,18.867-31.61,24.455-49.552
								c5.352-17.186,8.333-35.573,8.847-54.797l27.666,12.563c0.023,10.9-0.63,21.664-1.966,32.228
								c-1.368,10.815-3.454,21.437-6.266,31.791c-2.884,10.616-6.535,20.966-10.963,30.962
								c-4.547,10.265-9.917,20.166-16.122,29.609c-6.247,9.508-13.267,18.455-21.025,26.766
								c-7.972,8.539-16.72,16.404-26.201,23.51c-9.738,7.297-20.242,13.787-31.457,19.376
								C727.861,718.851,715.618,723.629,702.713,727.347 M343.839,286.396c-21.09,32.125-32.93,69.529-35.241,109.793
								c-2.462,42.87,5.932,87.867,24.698,131.468c19.417,45.109,49.258,87.162,87.726,122.12
								c38.329,34.834,83.692,61.229,133.182,75.915c13.752,4.081,27.358,7.108,40.74,9.138c13.181,1.998,26.113,3.023,38.73,3.135
								c12.403,0.109,24.477-0.665,36.163-2.26c11.472-1.564,22.553-3.919,33.195-7c25.665-7.428,48.66-19.039,68.472-33.95
								c18.774-14.131,34.63-31.181,47.252-50.44c11.962-18.254,21.023-38.497,26.968-60.208c5.65-20.64,8.5-42.665,8.361-65.719
								l-29.097-13.235c-0.472,19.731-3.573,38.424-9.101,55.776c-5.774,18.126-14.21,34.83-25.071,49.691
								c-11.37,15.558-25.396,29.094-41.762,40.063c-17.123,11.477-36.751,20.105-58.415,25.236
								c-8.938,2.116-18.203,3.633-27.76,4.505c-9.705,0.887-19.695,1.106-29.926,0.617c-10.375-0.497-20.979-1.723-31.76-3.719
								c-10.915-2.021-21.99-4.828-33.167-8.459c-39.983-12.988-76.562-34.93-107.602-63.248
								c-31.132-28.402-55.679-62.292-72.222-98.628c-16.09-35.343-24.158-72.025-23.633-107.31
								c0.5-33.504,8.742-65.049,24.743-92.606L343.839,286.396"/>
							<path d="M196.726,220.614c-9.739,10.534-18.818,21.699-27.184,33.484c-8.611,12.135-16.456,24.913-23.476,38.321
								c-7.22,13.793-13.558,28.233-18.949,43.3c-5.54,15.48-10.073,31.598-13.536,48.317c-3.453,16.673-5.804,33.731-7.009,51.123
								c-1.233,17.796-1.265,35.894-0.055,54.227c1.235,18.714,3.759,37.619,7.601,56.641c3.91,19.36,9.174,38.781,15.807,58.176
								c6.73,19.683,14.762,39.017,24.074,57.907c9.413,19.096,20.098,37.662,32.018,55.604
								c12.002,18.063,25.205,35.42,39.557,51.978c14.391,16.603,29.876,32.332,46.387,47.106
								c17.063,15.273,34.968,29.288,53.611,41.984c18.531,12.621,37.712,23.885,57.436,33.753
								c19.52,9.768,39.489,18.128,59.803,25.063c20.021,6.836,40.298,12.261,60.727,16.275c11.563,2.27,23.099,4.063,34.574,5.384
								c11.344,1.306,22.618,2.149,33.795,2.538c11.037,0.383,21.969,0.321,32.77-0.177c10.657-0.491,21.176-1.408,31.535-2.74
								c9.932-1.276,19.725-2.937,29.355-4.966c9.495-2.001,18.826-4.359,27.977-7.061c9.014-2.662,17.847-5.655,26.481-8.966
								c8.502-3.261,16.808-6.827,24.901-10.688c19.42-9.261,37.51-20.124,54.195-32.36c16.027-11.755,30.734-24.759,44.074-38.814
								c12.812-13.499,24.352-27.957,34.597-43.211c9.842-14.654,18.487-30.041,25.921-46.025
								c7.307-15.71,13.36-31.85,18.211-48.268c4.672-15.81,8.236-31.903,10.735-48.159c2.413-15.692,3.838-31.565,4.311-47.519
								c0.458-15.442,0.023-30.993-1.276-46.571l-19.896-9.036c1.908,29.573,0.387,58.59-4.59,86.497
								c-5.309,29.774-14.58,58.452-27.886,85.199c-14.286,28.72-33.263,55.29-56.964,78.488
								c-25.536,24.993-56.52,46.034-92.775,61.429c-15.238,6.47-31.08,11.783-47.481,15.873
								c-16.853,4.203-34.251,7.104-52.14,8.641c-18.336,1.575-37.13,1.713-56.313,0.358c-19.604-1.384-39.55-4.32-59.75-8.853
								c-75.101-16.852-144.372-53.934-202.306-106.025c-58.246-52.372-101.535-116.771-127.036-185.923
								c-24.246-65.746-31.222-132.616-21.174-194.792c9.184-56.825,32.312-107.896,67.962-149.971L196.726,220.614"/>
							<path d="M744.925,907.199c-8.094,3.86-16.399,7.427-24.901,10.688c-8.635,3.311-17.468,6.304-26.481,8.966
								c-9.15,2.701-18.481,5.06-27.977,7.061c-9.631,2.029-19.424,3.689-29.355,4.966c-10.359,1.332-20.878,2.249-31.535,2.74
								c-10.801,0.498-21.732,0.56-32.77,0.177c-11.177-0.389-22.451-1.232-33.795-2.538c-11.476-1.321-23.011-3.114-34.574-5.384
								c-20.429-4.015-40.705-9.439-60.727-16.275c-20.313-6.936-40.283-15.296-59.803-25.063
								c-19.724-9.868-38.904-21.132-57.436-33.753c-18.644-12.696-36.548-26.711-53.611-41.984
								c-16.511-14.774-31.996-30.504-46.387-47.106c-14.352-16.558-27.555-33.914-39.557-51.978
								c-11.92-17.941-22.604-36.508-32.018-55.604c-9.313-18.891-17.344-38.225-24.074-57.907
								c-6.633-19.395-11.896-38.815-15.807-58.176c-3.842-19.021-6.365-37.927-7.601-56.641
								c-1.21-18.333-1.179-36.431,0.055-54.227c1.205-17.392,3.556-34.45,7.009-51.123c3.463-16.72,7.996-32.837,13.536-48.317
								c5.392-15.066,11.729-29.507,18.949-43.3c7.02-13.408,14.864-26.187,23.476-38.321c8.365-11.785,17.444-22.95,27.184-33.484
								l38.617,17.543c-35.65,42.074-58.778,93.146-67.962,149.971c-10.048,62.176-3.072,129.046,21.174,194.792
								c25.501,69.152,68.79,133.551,127.036,185.923c57.934,52.092,127.205,89.174,202.306,106.025
								c20.2,4.532,40.146,7.469,59.75,8.853c19.184,1.354,37.978,1.217,56.313-0.358c17.889-1.537,35.287-4.438,52.14-8.641
								c16.401-4.09,32.243-9.403,47.481-15.873c36.256-15.395,67.239-36.436,92.775-61.429
								c23.701-23.198,42.678-49.769,56.964-78.488c13.306-26.747,22.577-55.425,27.886-85.199
								c4.977-27.907,6.498-56.924,4.59-86.497l19.896,9.036c1.3,15.578,1.734,31.129,1.276,46.571
								c-0.473,15.953-1.897,31.826-4.311,47.519c-2.499,16.256-6.063,32.35-10.735,48.159
								c-4.851,16.418-10.904,32.558-18.211,48.268c-7.434,15.984-16.079,31.371-25.921,46.025
								c-10.245,15.254-21.785,29.712-34.597,43.211c-13.34,14.056-28.047,27.06-44.074,38.814
								C782.435,887.075,764.345,897.938,744.925,907.199 M196.14,219.243c-42.403,45.443-71.233,101.493-84.41,164.686
								c-14.58,69.928-9.466,145.887,16.175,221.046c27.163,79.619,75.758,153.75,142.544,213.514
								c66.377,59.397,146.195,100.544,232.586,117.427c23.53,4.601,46.648,7.192,69.198,7.922
								c21.993,0.711,43.369-0.352,64.007-3.033c20.07-2.607,39.386-6.739,57.857-12.241c17.928-5.34,35.021-11.958,51.217-19.711
								c38.311-18.338,71.363-42.89,98.66-71.771c25.166-26.628,45.374-56.869,60.466-89.417
								c13.959-30.104,23.573-62.249,28.778-95.598c4.848-31.058,5.896-63.329,3.06-96.311l-21.204-9.642
								c2.002,30.341,0.328,59.847-4.897,88.05c-5.581,30.12-15.243,58.904-28.866,85.599
								c-14.633,28.672-33.861,54.981-57.461,77.796c-25.403,24.557-55.793,44.987-90.636,59.723
								c-14.653,6.197-30.056,11.369-46.147,15.398c-16.527,4.139-33.746,7.063-51.578,8.653
								c-18.277,1.63-37.151,1.852-56.518,0.546c-19.798-1.335-40.047-4.263-60.615-8.896
								c-75.057-16.909-144.229-53.937-202.027-105.903c-58.11-52.246-101.236-116.453-126.57-185.395
								c-24.087-65.544-30.906-132.201-20.723-194.19c9.306-56.651,32.533-107.572,68.247-149.543L196.14,219.243"/>
							<path d="M484.187,351.181c-3.496,8.25-5.997,16.983-7.477,26.087c-1.506,9.264-1.949,18.887-1.313,28.74
								c0.646,10.001,2.404,20.21,5.284,30.481c2.915,10.394,6.968,20.815,12.156,31.11c5.277,10.468,11.55,20.447,18.698,29.806
								c7.174,9.391,15.199,18.112,23.941,26.036c8.733,7.916,18.144,14.999,28.09,21.136c9.891,6.102,20.267,11.238,30.984,15.311
								c6.158,2.339,12.301,4.283,18.41,5.835c6.067,1.54,12.096,2.69,18.069,3.452c5.926,0.757,11.792,1.13,17.583,1.124
								c5.739-0.006,11.399-0.384,16.967-1.13c6.608-0.887,12.977-2.286,19.066-4.169c6.01-1.859,11.743-4.188,17.162-6.956
								c5.347-2.73,10.384-5.887,15.081-9.44c4.631-3.505,8.929-7.394,12.863-11.641c3.938-4.249,7.466-8.814,10.577-13.649
								c3.068-4.769,5.732-9.801,7.986-15.058c2.224-5.186,4.049-10.591,5.47-16.18c1.403-5.517,2.413-11.214,3.023-17.06
								l-30.612-13.908c-1.26,8.86-3.745,17.098-7.348,24.556c-3.678,7.611-8.521,14.416-14.412,20.233
								c-6.016,5.939-13.121,10.849-21.179,14.523c-8.223,3.75-17.425,6.21-27.438,7.164c-4.088,0.391-8.23,0.519-12.419,0.383
								c-4.216-0.136-8.475-0.539-12.767-1.21c-4.316-0.675-8.664-1.62-13.03-2.838c-4.389-1.224-8.794-2.72-13.204-4.489
								c-15.756-6.314-30.129-15.617-42.496-26.985c-12.383-11.383-22.595-24.689-30.115-38.938
								c-7.438-14.092-12.16-28.945-13.77-43.612c-1.575-14.356-0.153-28.397,4.549-41.276L484.187,351.181"/>
							<path d="M665.581,569.169c-5.567,0.746-11.228,1.124-16.967,1.13c-5.791,0.006-11.657-0.367-17.583-1.124
								c-5.974-0.762-12.002-1.912-18.069-3.452c-6.109-1.552-12.252-3.496-18.41-5.835c-10.718-4.072-21.094-9.209-30.984-15.311
								c-9.946-6.137-19.356-13.22-28.09-21.136c-8.742-7.924-16.768-16.646-23.941-26.036
								c-7.148-9.358-13.421-19.338-18.698-29.806c-5.188-10.295-9.241-20.717-12.156-31.11c-2.88-10.271-4.638-20.48-5.284-30.481
								c-0.637-9.854-0.193-19.477,1.313-28.74c1.479-9.104,3.98-17.837,7.477-26.087l38.383,17.438
								c-4.702,12.879-6.124,26.92-4.549,41.276c1.609,14.667,6.331,29.521,13.77,43.612c7.521,14.249,17.732,27.556,30.115,38.938
								c12.367,11.368,26.74,20.671,42.496,26.985c4.41,1.77,8.815,3.266,13.204,4.489c4.366,1.218,8.714,2.163,13.03,2.838
								c4.292,0.671,8.551,1.074,12.767,1.21c4.188,0.136,8.331,0.008,12.419-0.383c10.014-0.954,19.216-3.414,27.438-7.164
								c8.058-3.675,15.163-8.584,21.179-14.523c5.891-5.817,10.734-12.622,14.412-20.233c3.603-7.458,6.088-15.695,7.348-24.556
								l30.612,13.908c-0.61,5.846-1.62,11.543-3.023,17.06c-1.421,5.589-3.246,10.994-5.47,16.18
								c-2.254,5.257-4.918,10.289-7.986,15.058c-3.111,4.835-6.64,9.4-10.577,13.649c-3.935,4.247-8.232,8.136-12.863,11.641
								c-4.697,3.554-9.734,6.71-15.081,9.44c-5.419,2.769-11.152,5.097-17.162,6.956
								C678.558,566.883,672.189,568.282,665.581,569.169 M483.515,349.896c-7.576,17.419-10.543,36.69-9.182,56.618
								c1.403,20.539,7.384,41.502,17.445,61.483c10.222,20.299,24.487,39.254,42.042,55.384
								c17.525,16.104,38.005,29.094,60.47,37.617c6.344,2.405,12.654,4.381,18.9,5.941c6.203,1.549,12.335,2.688,18.368,3.432
								c5.983,0.738,11.864,1.088,17.615,1.067c5.698-0.021,11.265-0.405,16.675-1.137c13.26-1.792,25.543-5.65,36.53-11.292
								c10.688-5.488,20.126-12.65,28.052-21.228c7.704-8.336,13.977-18.003,18.604-28.781c4.5-10.48,7.446-22.022,8.648-34.449
								l-32.188-14.634c-1.223,9.112-3.751,17.497-7.419,25.031c-3.745,7.692-8.68,14.503-14.624,20.287
								c-6.071,5.906-13.191,10.74-21.156,14.336c-8.125,3.668-17.112,6.042-26.726,6.948c-3.907,0.369-7.913,0.495-12.003,0.367
								c-4.116-0.129-8.313-0.515-12.574-1.169c-4.285-0.657-8.631-1.586-13.018-2.796c-4.41-1.216-8.857-2.715-13.323-4.508
								c-15.735-6.315-30.063-15.598-42.366-26.931c-12.316-11.347-22.443-24.601-29.866-38.787
								c-7.341-14.029-11.953-28.811-13.447-43.402c-1.462-14.28,0.077-28.244,4.896-41.046L483.515,349.896"/>
							<path d="M533.879,100.503c-5.952-1.263-11.933-2.414-17.937-3.453c-6.068-1.05-12.163-1.985-18.275-2.803
								c-6.183-0.827-12.386-1.533-18.601-2.117c-6.29-0.591-12.595-1.055-18.906-1.391c-6.374-0.339-12.761-0.546-19.15-0.619
								c-6.474-0.073-12.952-0.009-19.429,0.196c-6.563,0.207-13.125,0.559-19.676,1.057c-6.643,0.506-13.276,1.162-19.889,1.973
								l16.125,20.923c12.068-1.777,24.258-2.974,36.483-3.613c11.921-0.624,23.894-0.72,35.839-0.309
								c11.67,0.401,23.334,1.287,34.927,2.639c11.347,1.323,22.645,3.095,33.836,5.303L533.879,100.503"/>
							<path d="M398.142,114.269l-16.125-20.923c6.612-0.811,13.246-1.467,19.889-1.973c6.551-0.498,13.113-0.85,19.676-1.057
								c6.477-0.205,12.955-0.27,19.429-0.196c6.39,0.073,12.776,0.28,19.15,0.619c6.312,0.336,12.616,0.8,18.906,1.391
								c6.215,0.584,12.418,1.29,18.601,2.117c6.112,0.817,12.207,1.753,18.275,2.803c6.004,1.039,11.984,2.19,17.937,3.453
								l5.348,17.785c-11.191-2.208-22.489-3.979-33.836-5.303c-11.593-1.352-23.257-2.237-34.927-2.639
								c-11.945-0.411-23.918-0.315-35.839,0.309C422.399,111.295,410.21,112.491,398.142,114.269 M534.464,100.079
								c-12.18-2.608-24.438-4.749-36.734-6.41c-12.585-1.699-25.234-2.897-37.904-3.578c-12.992-0.697-26.029-0.851-39.058-0.437
								c-13.389,0.425-26.791,1.45-40.147,3.103l17.209,22.341c12.217-1.839,24.508-3.083,36.816-3.759
								c12-0.658,24.035-0.775,36.057-0.372c11.74,0.394,23.486,1.286,35.193,2.66c11.456,1.345,22.896,3.153,34.28,5.413
								L534.464,100.079"/>
							<path d="M617.62,126.076l0.682,15.383c6.068,2.377,12.094,4.88,18.071,7.506c5.931,2.604,11.818,5.332,17.655,8.176
								c5.797,2.824,11.549,5.766,17.25,8.821c5.664,3.035,11.283,6.186,16.85,9.446c5.538,3.243,11.008,6.586,16.405,10.023
								c5.372,3.421,10.676,6.939,15.906,10.55c5.211,3.597,10.353,7.287,15.42,11.067c5.052,3.769,10.034,7.629,14.941,11.578
								l6.376-10.281c-5.16-4.17-10.398-8.251-15.711-12.237c-5.328-3.998-10.734-7.906-16.213-11.718
								c-5.501-3.827-11.079-7.561-16.729-11.196c-5.678-3.653-11.434-7.21-17.261-10.665c-5.861-3.476-11.779-6.838-17.747-10.084
								c-6.007-3.268-12.069-6.419-18.182-9.451c-6.157-3.054-12.368-5.989-18.628-8.799
								C630.396,131.362,624.031,128.654,617.62,126.076"/>
							<path d="M750.801,218.627c-4.907-3.949-9.89-7.81-14.941-11.578c-5.067-3.78-10.209-7.471-15.42-11.067
								c-5.23-3.61-10.534-7.129-15.906-10.55c-5.397-3.438-10.867-6.78-16.405-10.023c-5.566-3.261-11.186-6.411-16.85-9.446
								c-5.701-3.056-11.453-5.997-17.25-8.821c-5.837-2.844-11.725-5.571-17.655-8.176c-5.978-2.626-12.003-5.129-18.071-7.506
								l-0.682-15.383c6.411,2.578,12.775,5.286,19.086,8.119c6.26,2.81,12.471,5.745,18.628,8.799
								c6.112,3.032,12.175,6.184,18.182,9.451c5.968,3.246,11.886,6.608,17.747,10.084c5.827,3.455,11.583,7.012,17.261,10.665
								c5.65,3.636,11.229,7.369,16.729,11.196c5.479,3.812,10.885,7.72,16.213,11.718c5.313,3.986,10.551,8.067,15.711,12.237
								L750.801,218.627 M616.901,125.297l0.721,16.407c6.012,2.343,12.007,4.817,17.979,7.426
								c5.926,2.588,11.832,5.309,17.716,8.163c5.843,2.834,11.667,5.802,17.468,8.903c5.766,3.082,11.513,6.299,17.237,9.651
								c5.694,3.333,11.284,6.752,16.771,10.251c5.459,3.482,10.82,7.048,16.082,10.689c5.242,3.628,10.389,7.334,15.44,11.114
								c5.037,3.769,9.983,7.613,14.837,11.529l6.789-10.969c-5.118-4.148-10.332-8.225-15.643-12.224
								c-5.325-4.011-10.752-7.948-16.277-11.805c-5.549-3.873-11.202-7.668-16.961-11.381c-5.787-3.73-11.686-7.382-17.695-10.946
								c-6.043-3.584-12.111-7.029-18.201-10.337c-6.13-3.329-12.285-6.521-18.463-9.576c-6.225-3.078-12.475-6.02-18.748-8.824
								C629.628,130.542,623.276,127.851,616.901,125.297"/>
							<path d="M816.78,264.208l-9.235,7.548c7.077,7.695,13.942,15.634,20.563,23.771c6.647,8.171,13.065,16.563,19.218,25.132
								c6.193,8.623,12.132,17.445,17.781,26.422c5.697,9.055,11.112,18.286,16.205,27.652l13.678-2.184
								c-2.731-4.946-5.543-9.855-8.429-14.719c-2.871-4.84-5.818-9.638-8.837-14.389c-3.005-4.729-6.082-9.414-9.229-14.048
								c-3.133-4.616-6.336-9.186-9.604-13.702c-3.264-4.513-6.598-8.979-9.996-13.392c-3.389-4.401-6.844-8.753-10.359-13.05
								c-3.509-4.287-7.08-8.521-10.709-12.699C824.203,272.38,820.519,268.265,816.78,264.208"/>
							<path d="M881.312,374.733c-5.093-9.366-10.508-18.598-16.205-27.652c-5.649-8.977-11.588-17.799-17.781-26.422
								c-6.152-8.569-12.57-16.961-19.218-25.132c-6.62-8.138-13.485-16.076-20.563-23.771l9.235-7.548
								c3.738,4.057,7.423,8.172,11.047,12.344c3.629,4.178,7.2,8.412,10.709,12.699c3.516,4.297,6.971,8.648,10.359,13.05
								c3.398,4.413,6.732,8.879,9.996,13.392c3.268,4.517,6.471,9.086,9.604,13.702c3.146,4.634,6.224,9.319,9.229,14.048
								c3.019,4.751,5.966,9.549,8.837,14.389c2.886,4.863,5.697,9.772,8.429,14.719L881.312,374.733 M816.601,263.441l-9.864,8.033
								c7.22,7.829,14.187,15.864,20.884,24.081c6.725,8.251,13.192,16.703,19.385,25.332c6.231,8.684,12.197,17.564,17.876,26.618
								c5.728,9.132,11.176,18.46,16.319,27.957l14.587-2.347c-5.523-10.031-11.357-19.878-17.476-29.516
								c-6.063-9.549-12.418-18.915-19.044-28.071c-6.581-9.095-13.445-18.004-20.571-26.702
								C831.603,280.168,824.231,271.697,816.601,263.441"/>
							<path d="M904.534,423.616c2.479,6.064,4.83,12.177,7.053,18.328c2.244,6.21,4.357,12.465,6.335,18.758
								c1.997,6.355,3.858,12.755,5.579,19.189c1.738,6.505,3.333,13.051,4.779,19.629l17.872,5.058
								c-1.644-7.01-3.439-13.979-5.383-20.899c-1.921-6.841-3.987-13.639-6.193-20.387c-2.183-6.677-4.505-13.309-6.96-19.889
								c-2.431-6.516-4.995-12.985-7.688-19.402L904.534,423.616"/>
							<path d="M946.152,504.578l-17.872-5.058c-1.446-6.578-3.041-13.124-4.779-19.629c-1.721-6.435-3.582-12.834-5.579-19.189
								c-1.978-6.293-4.091-12.548-6.335-18.758c-2.223-6.151-4.574-12.264-7.053-18.328l15.394,0.385
								c2.693,6.417,5.258,12.887,7.688,19.402c2.455,6.58,4.777,13.212,6.96,19.889c2.206,6.748,4.272,13.546,6.193,20.387
								C942.713,490.6,944.509,497.568,946.152,504.578 M903.724,422.901c2.494,6.082,4.87,12.229,7.121,18.438
								c2.271,6.268,4.416,12.602,6.428,18.997c2.033,6.462,3.932,12.992,5.688,19.584c1.775,6.666,3.407,13.4,4.887,20.199
								l19.072,5.389c-1.695-7.266-3.546-14.458-5.543-21.569c-1.975-7.027-4.094-13.982-6.35-20.86
								c-2.232-6.803-4.6-13.536-7.096-20.193c-2.472-6.592-5.071-13.114-7.792-19.563L903.724,422.901"/>
						</g>
					</g>
				</g>
			</g>
		</g>
	</g>
</g>
</svg>
